<svg width="410" height="415" viewBox="0 0 410 415" fill="none" xmlns="http://www.w3.org/2000/svg">
<path d="M192.343 192.786L192.343 192.786L192.348 192.788C193.942 193.465 194.725 194.254 195.101 194.999C195.479 195.748 195.52 196.602 195.332 197.559C195.142 198.525 194.734 199.511 194.301 200.471C194.235 200.618 194.167 200.767 194.098 200.917C193.748 201.68 193.383 202.475 193.232 203.115L193.23 203.123L193.229 203.13C192.852 204.843 191.727 206.067 190.398 207.512L190.349 207.566C189.061 208.966 187.566 210.607 187.278 212.998L187.276 213.008L187.275 213.017C187.139 214.37 186.176 215.538 184.504 216.167C184.082 216.257 183.714 216.323 183.317 216.264C182.72 216.155 182.129 215.771 181.662 215.24C181.192 214.706 180.964 214.158 180.93 213.84C180.933 213.479 181.043 213.123 181.233 212.633C181.256 212.574 181.281 212.512 181.306 212.448C181.481 212.006 181.706 211.438 181.799 210.82L181.799 210.82L181.8 210.812C181.955 209.724 181.669 208.579 181.292 207.535C180.993 206.706 180.596 205.841 180.223 205.026C180.124 204.809 180.026 204.596 179.933 204.388C179.469 203.359 179.097 202.45 178.938 201.664C178.781 200.884 178.87 200.399 179.112 200.066L179.119 200.056L179.127 200.045C179.291 199.805 179.571 199.586 180.02 199.382C180.473 199.177 181.024 199.02 181.662 198.864C181.829 198.823 182.003 198.782 182.183 198.739C182.657 198.627 183.165 198.507 183.633 198.369C184.285 198.176 184.974 197.918 185.556 197.51L185.557 197.509C186.421 196.901 186.904 196.081 187.266 195.365C187.373 195.153 187.468 194.956 187.556 194.771C187.792 194.282 187.986 193.876 188.271 193.489L188.287 193.467L188.302 193.444C188.831 192.634 190.29 191.901 192.343 192.786Z" stroke="url(#paint0_linear_371_96000)" stroke-width="2" stroke-miterlimit="10"/>
<path d="M175.963 206.634L175.963 206.634L175.958 206.624C175.658 206.06 175.336 205.493 175.009 204.916C174.466 203.958 173.909 202.978 173.42 201.953C172.64 200.32 172.202 198.9 172.339 197.806C172.461 196.895 172.991 196.247 173.941 195.634C174.71 195.152 175.725 194.829 176.963 194.546C177.525 194.418 178.11 194.302 178.723 194.18C178.781 194.169 178.839 194.157 178.897 194.146C179.564 194.013 180.261 193.873 180.957 193.707C182.206 193.435 183.434 193.054 184.422 192.361C185.591 191.621 186.348 190.622 186.961 189.605C187.238 189.144 187.497 188.662 187.746 188.197C187.771 188.15 187.796 188.104 187.821 188.057C188.098 187.54 188.37 187.039 188.676 186.549L188.676 186.549L188.681 186.54C190.14 184.148 193.632 183.405 197.59 185.186C198.922 185.786 200.099 186.467 201.126 187.225C202.659 188.411 204.178 189.862 205.23 191.376C206.299 192.913 206.785 194.363 206.548 195.613C206.527 195.721 206.445 195.895 206.197 196.154C205.95 196.41 205.617 196.67 205.212 196.969C205.149 197.016 205.083 197.064 205.015 197.114C204.681 197.359 204.308 197.633 203.986 197.912C203.603 198.245 203.182 198.676 202.946 199.222L202.942 199.23L202.939 199.238C202.572 200.127 202.254 200.967 201.952 201.761C201.414 203.18 200.931 204.452 200.33 205.599L200.325 205.609L200.319 205.619C199.479 207.315 198.968 209.122 198.491 210.806C198.436 211.001 198.381 211.195 198.326 211.386C197.788 213.27 197.246 214.979 196.301 216.462C195.957 216.998 195.289 217.43 194.327 217.989C194.27 218.023 194.211 218.057 194.151 218.091C193.339 218.561 192.326 219.147 191.657 219.98C191.331 220.315 191.138 220.662 191.017 221.123L191.013 221.14L191.009 221.158C190.503 223.432 188.659 225.036 185.93 225.735L185.916 225.739L185.901 225.743C185.229 225.937 184.461 226.013 183.477 225.826L183.277 225.788L183.248 225.794C181.894 225.431 180.567 224.538 179.534 223.464C178.452 222.339 177.842 221.176 177.752 220.438L177.75 220.419L177.747 220.4C177.637 219.711 177.771 219.097 178.012 218.387C178.064 218.234 178.124 218.069 178.189 217.892C178.402 217.312 178.658 216.615 178.77 215.908C178.859 215.394 178.917 214.897 178.884 214.335C178.825 212.978 178.38 211.627 177.827 210.357C177.391 209.354 176.859 208.343 176.356 207.385C176.222 207.13 176.09 206.88 175.963 206.634Z" stroke="url(#paint1_linear_371_96000)" stroke-width="2" stroke-miterlimit="10"/>
<path d="M165.772 194.225L165.774 194.217L165.776 194.209C166.116 192.718 167.252 191.819 168.879 191.08C170.137 190.516 171.646 190.181 173.342 189.899C173.927 189.802 174.543 189.71 175.174 189.615C176.316 189.444 177.507 189.266 178.651 189.037C180.393 188.719 181.876 188.149 183.131 187.436L183.143 187.43L183.155 187.422C184.691 186.493 185.712 185.219 186.553 183.874C186.97 183.205 187.353 182.503 187.728 181.815L187.745 181.783C188.118 181.099 188.485 180.424 188.893 179.757C191.478 175.574 196.973 174.981 202.722 177.61C204.76 178.611 206.687 179.644 208.269 180.893L208.269 180.893L208.279 180.9C210.553 182.652 213.163 184.876 215.089 187.236C217.046 189.635 218.106 191.943 217.756 193.932C217.725 194.072 217.571 194.334 217.06 194.714C216.565 195.083 215.907 195.439 215.157 195.83C215.079 195.87 215 195.911 214.92 195.953C214.265 196.293 213.556 196.661 212.958 197.053C212.313 197.474 211.604 198.04 211.276 198.812L211.276 198.812L211.271 198.824C210.795 199.985 210.37 201.154 209.964 202.273C209.752 202.857 209.545 203.427 209.338 203.975C208.724 205.602 208.09 207.099 207.26 208.457C205.708 210.961 205.345 213.951 205.038 216.694C205.028 216.777 205.019 216.86 205.01 216.943C204.704 219.681 204.426 222.167 203.318 224.234L203.315 224.24C203.196 224.467 202.922 224.725 202.386 224.999C201.858 225.268 201.192 225.495 200.429 225.726C200.214 225.791 199.988 225.857 199.758 225.925C199.208 226.086 198.632 226.254 198.106 226.436C197.361 226.693 196.59 227.016 195.98 227.479C195.554 227.793 195.111 228.239 194.904 228.89L194.892 228.929L194.883 228.969C194.105 232.371 191.224 234.523 187.389 235.412C186.274 235.654 185.09 235.756 183.53 235.414L182.994 235.297C181.01 234.696 179.062 233.383 177.527 231.845C175.866 230.181 174.853 228.422 174.688 227.243L174.686 227.23L174.683 227.217C174.493 226.081 174.708 225.116 175.056 224.053C175.123 223.847 175.197 223.632 175.275 223.408C175.582 222.523 175.937 221.502 176.058 220.396L176.059 220.383L176.06 220.37C176.113 219.738 176.132 218.957 176.021 218.181C175.758 216.249 175.004 214.316 174.106 212.486C173.381 211.008 172.537 209.548 171.748 208.182C171.56 207.857 171.375 207.536 171.195 207.223L171.192 207.216C170.785 206.517 170.333 205.788 169.865 205.034C168.976 203.599 168.03 202.074 167.235 200.495C166.016 198.074 165.361 195.9 165.772 194.225Z" stroke="url(#paint2_linear_371_96000)" stroke-width="2" stroke-miterlimit="10"/>
<path d="M166.295 207.755L166.295 207.755C166.681 208.416 167.095 209.102 167.52 209.807C168.439 211.331 169.409 212.94 170.261 214.556C171.51 216.927 172.574 219.435 172.941 221.962C173.123 222.95 173.103 223.905 173.086 224.75L173.085 224.79L173.084 224.818L173.082 224.845C172.969 226.318 172.506 227.651 172.094 228.835C171.999 229.108 171.907 229.373 171.822 229.63C171.358 231.044 171.055 232.367 171.358 233.96L171.36 233.969C171.654 235.599 173.097 237.946 175.329 240.153C177.536 242.335 180.36 244.225 183.209 245.043L183.216 245.045C183.246 245.048 183.284 245.054 183.324 245.062C183.372 245.071 183.438 245.087 183.514 245.115C185.571 245.651 187.236 245.498 188.674 245.186C193.711 244.091 197.536 241.431 198.561 236.964C198.66 236.445 198.959 236.068 199.223 235.813C199.476 235.568 199.778 235.359 200.003 235.203L200.03 235.184L200.07 235.156L200.113 235.132C200.937 234.673 201.987 234.39 203.023 234.176C203.69 234.037 204.419 233.915 205.126 233.796C205.512 233.731 205.892 233.667 206.251 233.603C207.313 233.412 208.25 233.206 208.98 232.921C209.727 232.63 210.074 232.327 210.207 232.063C211.454 229.461 211.547 226.263 211.648 222.778C211.655 222.54 211.662 222.3 211.669 222.059C211.781 218.422 211.99 214.497 214.058 211.375C215.274 209.509 216.128 207.471 216.928 205.27C217.183 204.57 217.434 203.845 217.692 203.104C218.23 201.554 218.792 199.935 219.457 198.322L219.46 198.315L219.46 198.315C219.863 197.357 220.822 196.676 221.721 196.166C222.562 195.688 223.568 195.246 224.52 194.828C224.633 194.779 224.745 194.729 224.856 194.68C225.938 194.203 226.918 193.754 227.656 193.273C228.435 192.767 228.696 192.383 228.741 192.135L228.742 192.132C229.252 189.39 227.586 186.206 224.739 182.956C221.944 179.764 218.255 176.782 215.29 174.495L166.295 207.755ZM166.295 207.755C165.768 206.855 165.168 205.9 164.542 204.902C163.371 203.038 162.107 201.024 161.049 198.938C159.419 195.725 158.52 192.76 159.178 190.468C159.752 188.53 161.588 187.322 163.87 186.487C165.608 185.863 167.596 185.524 169.731 185.234C170.235 185.165 170.749 185.099 171.269 185.033C172.908 184.823 174.602 184.605 176.224 184.276C178.469 183.908 180.295 183.269 181.87 182.363L181.873 182.361C185.066 180.511 186.709 177.44 188.373 174.329C188.623 173.862 188.873 173.394 189.129 172.929L189.13 172.928C190.816 169.856 193.564 168.3 196.849 167.915C200.17 167.526 204.033 168.343 207.768 170.069L207.777 170.074M166.295 207.755L207.777 170.074M207.777 170.074C210.504 171.301 213.067 172.783 215.29 174.495L207.777 170.074Z" stroke="url(#paint3_linear_371_96000)" stroke-width="2" stroke-miterlimit="10"/>
<path d="M152.623 186.807L152.625 186.803C153.452 184.239 155.967 182.801 158.891 181.88C161.102 181.205 163.561 180.864 166.167 180.566C166.627 180.514 167.091 180.462 167.559 180.411C169.714 180.173 171.944 179.927 174.104 179.507C176.778 179.045 178.944 178.337 180.833 177.241L180.834 177.24C184.782 174.937 186.81 171.113 188.971 167.034C189.146 166.704 189.322 166.373 189.499 166.041L189.5 166.039C191.63 162.038 195.147 160.07 199.32 159.613C203.533 159.152 208.408 160.24 213.063 162.407C216.475 164.026 219.726 165.821 222.516 168.034L222.521 168.037C226.192 170.913 230.976 174.66 234.656 178.678C236.494 180.685 238.021 182.722 238.995 184.714C239.968 186.702 240.357 188.579 240.028 190.312C239.952 190.688 239.543 191.197 238.495 191.814C237.497 192.402 236.185 192.94 234.767 193.5C234.637 193.552 234.505 193.604 234.374 193.656C233.107 194.155 231.785 194.676 230.688 195.247C230.078 195.564 229.502 195.915 229.022 196.31C228.547 196.702 228.116 197.18 227.871 197.766C227.005 199.802 226.308 201.867 225.637 203.857C225.347 204.716 225.062 205.561 224.77 206.384C223.788 209.15 222.705 211.748 221.048 214.135C218.432 217.841 218.385 222.67 218.484 227.197C218.493 227.598 218.503 227.997 218.513 228.394C218.561 230.29 218.607 232.138 218.506 233.918C218.385 236.062 218.051 238.025 217.287 239.735L217.286 239.738C217.147 240.052 216.727 240.413 215.745 240.729C214.8 241.032 213.575 241.219 212.198 241.373C211.701 241.429 211.178 241.481 210.648 241.533C209.761 241.622 208.855 241.712 208.023 241.824C206.691 242.004 205.366 242.259 204.349 242.735L204.321 242.748L204.295 242.763C203.598 243.142 202.726 243.656 202.446 244.73L202.442 244.744L202.439 244.758C201.141 250.396 196.31 253.634 190.121 254.866L190.112 254.868L190.104 254.869C188.344 255.252 186.277 255.438 183.641 254.747C183.495 254.682 183.368 254.654 183.284 254.638L183.237 254.625C179.592 253.571 176.017 251.2 173.24 248.49C170.435 245.752 168.602 242.824 168.225 240.751L168.223 240.743C167.837 238.709 168.246 237.031 168.831 235.257C168.922 234.982 169.018 234.703 169.116 234.417C169.639 232.898 170.218 231.216 170.292 229.315C170.354 228.139 170.301 226.964 170.047 225.758C169.503 222.696 168.138 219.62 166.549 216.7C165.415 214.618 164.138 212.562 162.935 210.628C162.453 209.853 161.984 209.098 161.541 208.368C160.909 207.316 160.178 206.181 159.407 204.983C157.914 202.667 156.272 200.117 154.912 197.482C153.892 195.507 153.072 193.555 152.635 191.721C152.197 189.885 152.157 188.23 152.623 186.807Z" stroke="url(#paint4_linear_371_96000)" stroke-width="2" stroke-miterlimit="10"/>
<path d="M156.753 208.88L156.751 208.876C156.03 207.708 155.196 206.441 154.312 205.1C152.466 202.297 150.406 199.17 148.724 195.945C147.492 193.583 146.501 191.235 145.982 189.019C145.463 186.805 145.429 184.784 146.034 183.027C147.116 179.997 150.258 178.292 153.921 177.267C156.604 176.544 159.516 176.192 162.56 175.893C163.125 175.838 163.694 175.784 164.267 175.73C166.759 175.496 169.317 175.255 171.812 174.833C174.909 174.339 177.447 173.49 179.589 172.286L179.589 172.286L179.599 172.28C184.468 169.469 186.902 164.811 189.609 159.632C189.668 159.518 189.728 159.403 189.788 159.288L189.789 159.288C192.363 154.354 196.641 151.99 201.685 151.472C206.774 150.949 212.635 152.316 218.174 154.905C222.278 156.836 226.192 159.012 229.606 161.676L229.611 161.68C229.717 161.762 229.824 161.844 229.932 161.927C234.262 165.263 239.94 169.638 244.371 174.349C246.641 176.761 248.547 179.224 249.775 181.641C251.001 184.053 251.516 186.349 251.126 188.478C251.015 188.991 250.445 189.622 249.133 190.346C247.876 191.04 246.231 191.665 244.478 192.309C244.328 192.364 244.178 192.419 244.028 192.474C242.446 193.054 240.809 193.654 239.458 194.317C238.714 194.682 238.018 195.083 237.445 195.537C236.876 195.987 236.371 196.533 236.092 197.203L236.09 197.208C235.121 199.567 234.34 201.954 233.585 204.26C233.208 205.411 232.838 206.542 232.454 207.638C231.287 210.977 229.964 214.115 227.877 216.998L227.873 217.004C224.82 221.286 224.94 226.982 225.245 232.386C225.274 232.895 225.305 233.401 225.335 233.905C225.47 236.14 225.602 238.329 225.559 240.44C225.505 243.02 225.188 245.395 224.331 247.466L224.331 247.466L224.327 247.474C224.173 247.857 223.665 248.28 222.459 248.617C221.304 248.941 219.796 249.107 218.113 249.223C217.432 249.27 216.707 249.309 215.975 249.348C214.966 249.403 213.944 249.458 213.011 249.535C211.393 249.668 209.81 249.88 208.605 250.335C207.494 250.713 206.578 251.354 206.251 252.477L206.243 252.505L206.236 252.533C204.696 259.26 198.756 263.096 191.48 264.507C189.293 264.926 186.806 265.142 183.571 264.281C183.568 264.28 183.565 264.279 183.562 264.278C183.517 264.261 183.476 264.248 183.445 264.239C183.397 264.225 183.348 264.214 183.318 264.207L183.304 264.198L183.187 264.165C178.788 262.897 174.474 260.033 171.119 256.778C167.736 253.495 165.489 249.971 165.012 247.482C164.526 244.947 165.035 242.885 165.743 240.752C165.851 240.425 165.966 240.093 166.082 239.756C166.712 237.934 167.398 235.951 167.463 233.699C167.53 232.317 167.399 230.932 167.157 229.594L167.157 229.591C166.478 225.91 164.786 222.243 162.831 218.765C161.561 216.507 160.144 214.271 158.8 212.15C158.086 211.023 157.393 209.928 156.753 208.88Z" stroke="url(#paint5_linear_371_96000)" stroke-width="2" stroke-miterlimit="10"/>
<path d="M161.691 254.24L161.693 254.247C162.253 257.179 164.91 261.295 168.871 265.124C172.803 268.923 177.859 272.282 182.996 273.797L183.11 273.831L183.158 273.858C183.215 273.872 183.332 273.899 183.47 273.96C187.28 274.976 190.172 274.732 192.771 274.279C201.238 272.665 208.133 268.325 209.919 260.516C210.208 259.153 211.504 258.48 212.616 258.119C214.022 257.653 215.88 257.464 217.805 257.364C218.917 257.306 220.123 257.276 221.318 257.246C222.177 257.225 223.031 257.203 223.84 257.172C225.831 257.095 227.63 256.956 229.01 256.627C230.454 256.283 231.082 255.815 231.271 255.374C232.224 252.972 232.523 250.202 232.505 247.191C232.491 244.776 232.276 242.27 232.057 239.719C232.002 239.078 231.947 238.433 231.894 237.787C231.382 231.483 231.117 224.888 234.703 220.041L234.705 220.038C237.22 216.66 238.775 212.955 240.13 209.039C240.557 207.806 240.966 206.542 241.382 205.26C242.271 202.515 243.186 199.689 244.349 196.92C244.662 196.169 245.241 195.558 245.902 195.052C246.57 194.541 247.386 194.09 248.266 193.678C249.849 192.938 251.767 192.272 253.635 191.623C253.835 191.554 254.035 191.484 254.233 191.415C256.321 190.687 258.292 189.974 259.791 189.171C261.359 188.33 262.063 187.568 262.182 186.907L262.183 186.899L262.183 186.899C262.657 184.379 262.021 181.663 260.534 178.816C259.049 175.971 256.753 173.074 254.041 170.245C248.974 164.959 242.586 160.043 237.655 156.247C237.302 155.975 236.957 155.71 236.621 155.45C232.583 152.337 227.935 149.737 223.242 147.467C216.823 144.459 209.978 142.814 204.006 143.392C198.079 143.965 193.021 146.718 189.966 152.565C189.965 152.566 189.965 152.567 189.965 152.568L189.962 152.574C186.793 158.732 184.014 164.131 178.362 167.323C175.92 168.709 173.007 169.698 169.493 170.223C166.605 170.679 163.628 170.901 160.719 171.118C160.12 171.163 159.524 171.207 158.933 171.253C155.439 171.526 152.076 171.862 148.968 172.65C144.649 173.762 140.752 175.65 139.411 179.307L161.691 254.24ZM161.691 254.24C161.105 251.294 161.695 248.882 162.512 246.39C162.637 246.011 162.768 245.626 162.901 245.236C163.628 243.105 164.414 240.804 164.486 238.179M161.691 254.24L164.486 238.179M151.853 209.41C152.491 210.422 153.165 211.467 153.857 212.538C155.566 215.186 157.378 217.995 159 220.859C161.282 224.891 163.246 229.133 164.08 233.384M151.853 209.41L164.081 233.386C164.081 233.385 164.081 233.385 164.08 233.384M151.853 209.41C151.041 208.109 150.095 206.687 149.09 205.176C146.918 201.91 144.468 198.226 142.48 194.432C141.036 191.676 139.876 188.93 139.277 186.337C138.679 183.744 138.656 181.369 139.411 179.307L151.853 209.41ZM164.08 233.384C164.395 234.948 164.557 236.62 164.486 238.179M164.08 233.384L164.486 238.179" stroke="url(#paint6_linear_371_96000)" stroke-width="2" stroke-miterlimit="10"/>
<path d="M132.902 175.551L132.898 175.563C131.985 177.947 131.994 180.68 132.673 183.647C133.353 186.615 134.691 189.753 136.355 192.896C138.61 197.154 141.386 201.289 143.854 204.965C145.055 206.754 146.184 208.435 147.144 209.968C147.927 211.211 148.76 212.497 149.615 213.818C151.508 216.741 153.509 219.83 155.31 222.978C157.932 227.559 160.198 232.371 161.189 237.196C161.577 238.999 161.731 240.844 161.694 242.663C161.633 245.637 160.742 248.239 159.91 250.668C159.758 251.112 159.608 251.551 159.466 251.984C158.531 254.827 157.851 257.604 158.555 261.015L158.556 261.022L158.558 261.03C159.201 264.406 162.268 269.114 166.811 273.478C171.306 277.796 177.082 281.619 182.95 283.358C183.096 283.382 183.216 283.419 183.279 283.439L183.292 283.443C183.336 283.456 183.357 283.462 183.365 283.464L183.441 283.472L183.527 283.496C187.852 284.723 191.281 284.426 194.238 283.896C203.791 282.105 211.769 277.232 213.832 268.256L213.835 268.242L213.839 268.228C214.214 266.79 215.472 266.046 216.86 265.676C218.464 265.173 220.591 265.002 222.807 264.938C224.122 264.9 225.539 264.899 226.943 264.898C227.909 264.898 228.868 264.897 229.783 264.884C232.085 264.852 234.17 264.744 235.767 264.402C237.438 264.043 238.181 263.51 238.398 262.962C239.462 260.206 239.752 257.026 239.671 253.579C239.606 250.832 239.308 247.982 239.007 245.088C238.929 244.341 238.85 243.591 238.776 242.839C238.415 239.207 238.141 235.544 238.452 232.135C238.764 228.716 239.669 225.484 241.718 222.753L241.722 222.748C244.667 218.874 246.445 214.617 247.978 210.119C248.457 208.713 248.916 207.271 249.381 205.809C250.386 202.647 251.422 199.392 252.763 196.196M132.902 175.551L253.686 196.581M132.902 175.551C134.434 171.398 139.06 169.224 144.014 168.032M132.902 175.551L131.964 175.205M252.763 196.196C252.763 196.195 252.763 196.194 252.763 196.194L253.686 196.581M252.763 196.196C252.762 196.196 252.762 196.197 252.762 196.198L253.686 196.581M252.763 196.196C253.106 195.368 253.756 194.69 254.509 194.125C255.269 193.556 256.204 193.05 257.219 192.588C259.079 191.742 261.344 190.986 263.552 190.248C263.746 190.183 263.94 190.119 264.133 190.054C266.557 189.242 268.859 188.447 270.612 187.55C271.486 187.103 272.175 186.654 272.659 186.201C273.142 185.75 273.367 185.346 273.431 184.986L273.432 184.981C273.97 182.059 273.203 178.923 271.459 175.655C269.716 172.388 267.039 169.071 263.894 165.836C258.357 160.14 251.498 154.825 246.042 150.597C245.296 150.019 244.577 149.462 243.891 148.927L243.889 148.925C239.272 145.302 233.969 142.324 228.477 139.769L228.474 139.767C221.172 136.338 213.313 134.418 206.446 135.067C199.626 135.712 193.796 138.879 190.333 145.681L190.329 145.689L190.313 145.719C186.69 152.663 183.565 158.652 177.247 162.161M253.686 196.581C254.639 194.28 259.246 192.741 263.88 191.193C268.893 189.518 273.938 187.833 274.416 185.162C276.646 173.044 258.297 158.827 246.65 149.803C245.906 149.227 245.189 148.671 244.506 148.138C239.809 144.452 234.433 141.437 228.899 138.862C214.096 131.91 196.728 130.919 189.442 145.227C185.783 152.239 182.781 157.947 176.756 161.29M177.247 162.161C177.249 162.16 177.25 162.159 177.252 162.158L176.756 161.29M177.247 162.161C177.245 162.162 177.243 162.163 177.241 162.164L176.756 161.29M177.247 162.161C174.499 163.732 171.25 164.791 167.306 165.411M176.756 161.29C174.135 162.789 171.006 163.817 167.146 164.423M167.146 164.423L167.309 165.41C167.308 165.41 167.307 165.41 167.306 165.411M167.146 164.423C163.737 164.985 160.226 165.233 156.741 165.478C152.295 165.791 147.89 166.102 143.785 167.059M167.146 164.423L167.302 165.411C167.303 165.411 167.304 165.411 167.306 165.411M167.306 165.411C163.848 165.98 160.289 166.231 156.809 166.476C156.329 166.51 155.851 166.543 155.374 166.578C151.419 166.863 147.59 167.199 144.014 168.032M143.785 167.059L144.019 168.031C144.017 168.031 144.016 168.032 144.014 168.032M143.785 167.059C138.803 168.257 133.688 170.531 131.964 175.205M143.785 167.059L144.012 168.032C144.013 168.032 144.014 168.032 144.014 168.032M131.964 175.205C128.59 184.021 136.91 196.416 143.068 205.589C144.258 207.363 145.368 209.016 146.297 210.5C147.094 211.764 147.935 213.063 148.795 214.391C153.426 221.541 158.593 229.52 160.21 237.402C160.582 239.122 160.73 240.891 160.694 242.642C160.637 245.447 159.804 247.884 158.974 250.314C157.835 253.648 156.7 256.97 157.575 261.217C158.978 268.582 170.567 280.765 182.739 284.338L131.964 175.205Z" stroke="url(#paint7_linear_371_96000)" stroke-width="2" stroke-miterlimit="10"/>
<path d="M139.133 163.457L139.14 163.455C143.145 162.556 147.403 162.201 151.788 161.909C152.402 161.868 153.019 161.828 153.638 161.789C157.411 161.546 161.259 161.299 165.016 160.736C169.458 160.127 173.081 158.926 176.087 157.242L176.091 157.24C183.051 153.3 186.628 146.69 190.617 138.94L190.619 138.938C194.562 131.219 201.176 127.663 208.879 126.963C216.631 126.258 225.475 128.458 233.658 132.307L233.663 132.31C239.848 135.177 245.811 138.536 251.05 142.608C251.91 143.277 252.817 143.977 253.761 144.705C259.871 149.421 267.526 155.328 273.736 161.654C277.319 165.303 280.378 169.049 282.374 172.741C284.371 176.434 285.258 179.986 284.64 183.298C284.558 183.732 284.282 184.205 283.716 184.721C283.149 185.237 282.349 185.743 281.345 186.242C279.333 187.243 276.697 188.124 273.939 189.02C273.727 189.088 273.515 189.157 273.303 189.225C270.779 190.042 268.198 190.878 266.085 191.816C264.935 192.326 263.883 192.884 263.032 193.511C262.188 194.133 261.47 194.876 261.095 195.78C259.63 199.29 258.494 202.88 257.385 206.384C256.848 208.083 256.317 209.761 255.758 211.4C254.029 216.469 252 221.286 248.622 225.661L248.621 225.662C246.317 228.656 245.319 232.235 245.003 236.044C244.687 239.844 245.043 243.944 245.506 248.023C245.607 248.919 245.714 249.814 245.82 250.705C246.201 253.904 246.577 257.061 246.701 260.105C246.858 263.99 246.595 267.58 245.448 270.686L245.447 270.687C245.336 270.987 245.088 271.285 244.593 271.566C244.09 271.851 243.387 272.084 242.485 272.261C240.679 272.613 238.311 272.695 235.702 272.689C234.647 272.686 233.541 272.668 232.429 272.651C230.853 272.626 229.263 272.601 227.785 272.617C225.254 272.645 222.841 272.793 221.034 273.312L221.023 273.315C219.631 273.732 218.04 274.435 217.701 276.085C215.351 286.217 206.369 291.654 195.676 293.579C192.305 294.141 188.466 294.468 183.551 293.078L183.465 293.054L183.39 293.047C183.382 293.045 183.361 293.039 183.317 293.025L183.304 293.021C183.242 293.002 183.123 292.965 182.979 292.941C176.338 290.934 169.849 286.611 164.801 281.753C159.708 276.851 156.24 271.558 155.458 267.737C154.706 263.9 155.494 260.765 156.548 257.565C156.7 257.103 156.86 256.637 157.02 256.166C157.96 253.413 158.959 250.487 159.012 247.137C159.054 245.111 158.783 243.112 158.373 241.071L158.371 241.061C157.225 235.658 154.636 230.259 151.651 225.125C149.609 221.614 147.35 218.174 145.216 214.926C144.237 213.436 143.284 211.985 142.391 210.587C141.356 208.958 140.146 207.169 138.855 205.263C136.025 201.081 132.81 196.331 130.22 191.447C128.344 187.911 126.836 184.373 126.072 181.024C125.308 177.676 125.302 174.582 126.349 171.878C128.219 167.113 133.496 164.681 139.133 163.457Z" stroke="url(#paint8_linear_371_96000)" stroke-width="2" stroke-miterlimit="10"/>
<path d="M134.188 158.837L134.191 158.836C138.663 157.893 143.385 157.538 148.203 157.24C148.732 157.207 149.263 157.175 149.795 157.143C154.075 156.884 158.412 156.622 162.604 155.973C167.48 155.268 171.438 153.997 174.748 152.13C182.382 147.871 186.376 140.711 190.759 132.109C195.203 123.437 202.594 119.467 211.174 118.7C219.805 117.927 229.632 120.406 238.732 124.696C245.58 127.944 252.204 131.684 258.065 136.205C259.151 137.05 260.31 137.941 261.521 138.873C268.229 144.032 276.572 150.45 283.388 157.317C287.409 161.369 290.853 165.535 293.104 169.644C295.356 173.755 296.365 177.721 295.666 181.425L295.666 181.425L295.665 181.431C295.572 181.944 295.249 182.487 294.608 183.068C293.966 183.65 293.062 184.215 291.934 184.769C289.674 185.878 286.713 186.849 283.625 187.83C283.379 187.908 283.132 187.986 282.885 188.064C280.066 188.958 277.192 189.869 274.84 190.893C273.557 191.452 272.388 192.062 271.445 192.747C270.51 193.427 269.724 194.235 269.319 195.215C267.677 199.151 266.425 203.163 265.204 207.076C264.619 208.95 264.042 210.802 263.431 212.612C261.529 218.254 259.277 223.626 255.447 228.533L255.445 228.535C252.9 231.817 251.819 235.757 251.504 239.965C251.19 244.163 251.634 248.701 252.198 253.227C252.323 254.226 252.453 255.223 252.583 256.218C253.046 259.762 253.504 263.266 253.677 266.644C253.899 270.961 253.647 274.96 252.391 278.419C252.263 278.767 251.974 279.103 251.414 279.41C250.843 279.724 250.051 279.973 249.042 280.155C247.022 280.518 244.373 280.573 241.465 280.526C240.269 280.507 239.018 280.47 237.76 280.433C236.019 280.382 234.266 280.33 232.632 280.324C229.807 280.314 227.127 280.435 225.119 280.964C223.456 281.387 221.841 282.227 221.464 283.918C218.911 295.084 208.922 301.094 197.031 303.221C193.338 303.853 189.015 304.174 183.503 302.618L183.417 302.594L183.363 302.589C183.345 302.583 183.321 302.575 183.274 302.558L183.267 302.556C183.221 302.539 183.148 302.513 183.072 302.49C183.016 302.474 182.943 302.454 182.86 302.439C175.5 300.24 168.28 295.451 162.659 290.062C156.991 284.627 153.112 278.74 152.248 274.475C151.377 270.171 152.256 266.669 153.428 263.117C153.599 262.601 153.777 262.081 153.957 261.555C155 258.506 156.103 255.284 156.146 251.588L156.146 251.575L156.146 251.562C156.115 249.36 155.895 247.134 155.407 244.842L155.406 244.837C154.105 238.859 151.214 232.888 147.888 227.203C145.666 223.405 143.217 219.681 140.898 216.156C139.756 214.419 138.645 212.73 137.608 211.104L137.608 211.103C136.467 209.317 135.127 207.349 133.695 205.247C130.548 200.627 126.958 195.357 124.071 189.934C121.982 186.01 120.303 182.074 119.461 178.344C118.62 174.615 118.63 171.156 119.838 168.128L119.84 168.122C121.903 162.857 127.914 160.142 134.188 158.837Z" stroke="url(#paint9_linear_371_96000)" stroke-width="2" stroke-miterlimit="10"/>
<path d="M129.236 154.217L129.243 154.216C134.18 153.229 139.355 152.892 144.632 152.603C145.083 152.578 145.535 152.554 145.987 152.529C150.804 152.27 155.692 152.007 160.445 151.27C165.766 150.468 170.093 149.059 173.661 147.08C182.047 142.542 186.388 134.777 191.158 125.336L191.159 125.335C195.992 115.742 204.145 111.373 213.614 110.542C223.135 109.707 233.975 112.46 243.956 117.169L243.956 117.169C251.431 120.692 258.749 124.744 265.259 129.816L265.26 129.817C266.513 130.791 267.856 131.822 269.265 132.904C276.596 138.532 285.705 145.526 293.175 153.014C297.625 157.474 301.448 162.067 303.954 166.602C306.46 171.139 307.601 175.529 306.838 179.637C306.726 180.224 306.351 180.837 305.627 181.481C304.901 182.126 303.887 182.748 302.629 183.353C300.11 184.566 296.816 185.622 293.393 186.687C293.128 186.769 292.863 186.852 292.598 186.934C289.462 187.907 286.273 188.896 283.668 190.013C282.251 190.62 280.965 191.282 279.931 192.025C278.906 192.762 278.053 193.634 277.617 194.688C275.769 199.053 274.377 203.516 273.017 207.879C272.39 209.889 271.77 211.878 271.115 213.827C269.02 220.055 266.535 225.998 262.272 231.404L263.057 232.023L262.272 231.404C259.466 234.963 258.292 239.26 257.975 243.865C257.659 248.459 258.192 253.438 258.863 258.412C259.013 259.526 259.17 260.638 259.326 261.747C259.874 265.629 260.415 269.471 260.643 273.175C260.935 277.93 260.698 282.341 259.332 286.156L259.33 286.162C259.191 286.559 258.868 286.934 258.244 287.271C257.61 287.615 256.728 287.882 255.608 288.071C253.368 288.45 250.427 288.48 247.204 288.397C245.871 288.362 244.479 288.307 243.08 288.252C241.158 288.176 239.225 288.1 237.422 288.075C234.295 288.032 231.344 288.134 229.15 288.688C227.274 289.155 225.553 290.008 225.082 291.817L225.078 291.831L225.075 291.845C222.241 304.176 211.17 310.716 198.198 313.019C194.173 313.723 189.442 314.076 183.339 312.357L183.317 312.351L183.295 312.346C183.228 312.33 183.175 312.312 183.074 312.276L183.065 312.273C182.971 312.239 182.836 312.191 182.667 312.149C174.557 309.708 166.58 304.417 160.372 298.474C154.127 292.496 149.836 286.016 148.889 281.307C147.934 276.555 148.904 272.683 150.186 268.773C150.37 268.212 150.562 267.647 150.755 267.077C151.895 263.721 153.093 260.192 153.129 256.147C153.217 253.705 152.919 251.245 152.366 248.751C150.965 242.182 147.779 235.62 144.105 229.38C141.632 225.181 138.904 221.073 136.327 217.194C135.083 215.322 133.875 213.503 132.748 211.752C131.476 209.749 129.967 207.531 128.352 205.157C124.923 200.114 121.011 194.364 117.858 188.45C115.55 184.122 113.692 179.78 112.765 175.666C111.838 171.554 111.856 167.737 113.214 164.402C115.618 158.529 122.274 155.557 129.236 154.217Z" stroke="url(#paint10_linear_371_96000)" stroke-width="2" stroke-miterlimit="10"/>
<path d="M272.494 123.54C273.911 124.64 275.434 125.807 277.036 127.033C285.025 133.152 294.942 140.746 303.09 148.872C307.977 153.746 312.184 158.767 314.942 163.727C317.701 168.688 318.963 173.496 318.12 177.996C317.99 178.659 317.561 179.341 316.755 180.049C315.948 180.758 314.825 181.438 313.441 182.097C310.668 183.416 307.048 184.561 303.295 185.712C302.993 185.805 302.691 185.897 302.387 185.99C298.959 187.039 295.481 188.102 292.636 189.302C291.084 189.956 289.678 190.668 288.549 191.465C287.429 192.257 286.503 193.188 286.026 194.309L286.023 194.316C284.079 198.994 282.606 203.77 281.164 208.445C280.458 210.733 279.76 212.996 279.018 215.212C276.741 222.008 274.014 228.497 269.317 234.403L269.316 234.404C266.279 238.233 265.023 242.879 264.704 247.874C264.387 252.858 265 258.27 265.768 263.689C265.944 264.931 266.128 266.173 266.311 267.412C266.934 271.611 267.55 275.771 267.831 279.782C268.193 284.97 267.981 289.788 266.533 293.953C266.376 294.399 266.012 294.811 265.319 295.175C264.615 295.545 263.641 295.826 262.41 296.019C259.948 296.405 256.718 296.403 253.186 296.273C251.716 296.219 250.181 296.143 248.64 296.066C246.542 295.961 244.434 295.856 242.462 295.807C239.036 295.721 235.812 295.795 233.416 296.36C231.364 296.808 229.444 297.747 229.019 299.711C225.901 313.202 213.822 320.308 199.708 322.744C195.293 323.477 190.182 323.859 183.54 322.01C183.226 321.855 182.903 321.78 182.697 321.732L182.689 321.73C173.827 319.075 165.112 313.292 158.328 306.806C151.506 300.284 146.802 293.211 145.754 288.086L145.753 288.085C144.68 282.867 145.731 278.644 147.126 274.392C147.329 273.772 147.541 273.149 147.755 272.52C148.994 268.875 150.295 265.051 150.337 260.64C150.393 257.913 150.025 255.239 149.479 252.586L149.477 252.578L149.475 252.571C147.884 245.406 144.377 238.261 140.353 231.465C137.699 226.982 134.785 222.598 132.027 218.446C130.613 216.319 129.24 214.252 127.964 212.266C126.616 210.164 125.025 207.837 123.321 205.344C119.531 199.799 115.179 193.433 111.689 186.893C109.17 182.171 107.141 177.429 106.13 172.933C105.119 168.438 105.14 164.258 106.634 160.602L106.634 160.601C109.229 154.232 116.688 151.018 124.295 149.597L124.299 149.596C129.7 148.566 135.34 148.229 141.082 147.955C141.669 147.927 142.257 147.899 142.846 147.872C147.997 147.633 153.215 147.39 158.309 146.678L158.315 146.677C164.044 145.846 168.71 144.363 172.584 142.199C181.638 137.167 186.285 128.879 191.517 118.638L191.518 118.634C196.852 108.089 205.8 103.315 216.158 102.421C226.568 101.523 238.392 104.556 249.252 109.685L249.254 109.686C257.418 113.518 265.358 118.017 272.494 123.54ZM272.494 123.54C272.494 123.539 272.494 123.539 272.494 123.539L273.107 122.749L272.495 123.54C272.495 123.54 272.494 123.54 272.494 123.54Z" stroke="url(#paint11_linear_371_96000)" stroke-width="2" stroke-miterlimit="10"/>
<path d="M119.354 144.976L119.353 144.976C111.113 146.477 102.951 149.905 100.086 156.912L100.084 156.917C98.4275 160.898 98.391 165.444 99.4796 170.319C100.568 175.196 102.769 180.337 105.502 185.447C109.289 192.528 114.017 199.415 118.124 205.399C119.969 208.086 121.688 210.59 123.141 212.848M119.354 144.976L122.3 213.389M119.354 144.976C125.222 143.902 131.308 143.555 137.492 143.258C137.962 143.236 138.433 143.214 138.905 143.191C144.61 142.921 150.388 142.647 156.045 141.825L156.05 141.824C162.229 140.894 167.148 139.297 171.384 137.001L171.389 136.998C181.118 131.647 186.183 122.806 191.807 111.716L191.809 111.71C197.552 100.209 207.263 95.037 218.504 94.0888C229.798 93.1361 242.625 96.4592 254.366 102.008L254.369 102.009C263.307 106.199 271.94 111.011 279.652 117.042L279.652 117.042C281.36 118.377 283.215 119.802 285.172 121.305C293.699 127.853 304.169 135.894 312.827 144.485C318.146 149.763 322.734 155.205 325.751 160.586C328.769 165.969 330.164 171.199 329.255 176.105M119.354 144.976L254.793 101.103M123.141 212.848L122.3 213.389M123.141 212.848C123.14 212.848 123.139 212.847 123.139 212.846L122.3 213.389M123.141 212.848C124.507 214.958 125.977 217.153 127.491 219.415C130.508 223.921 133.702 228.692 136.608 233.577C140.982 240.93 144.782 248.667 146.473 256.423L146.474 256.426C147.094 259.313 147.454 262.153 147.47 265.077L147.47 265.089C147.437 269.856 146.034 274.003 144.692 277.968C144.463 278.644 144.236 279.315 144.018 279.984C142.508 284.603 141.368 289.193 142.542 294.823C143.71 300.418 148.812 308.076 156.191 315.13C163.531 322.147 172.967 328.414 182.603 331.337M122.3 213.389C123.683 215.526 125.163 217.735 126.682 220.004C134.217 231.259 142.739 243.985 145.496 256.636C146.104 259.468 146.454 262.239 146.47 265.083C146.439 269.675 145.094 273.654 143.752 277.623C141.95 282.956 140.154 288.27 141.563 295.027C144.022 306.812 162.674 326.351 182.345 332.304M182.603 331.337L182.572 331.33L182.345 332.304M182.603 331.337C182.613 331.34 182.624 331.343 182.634 331.347L182.345 332.304M182.603 331.337L182.61 331.339C182.814 331.386 183.137 331.461 183.451 331.616M182.345 332.304C182.602 332.364 182.86 332.424 183.079 332.551M183.079 332.551L183.347 331.587C183.382 331.597 183.416 331.606 183.451 331.616M183.079 332.551C190.473 334.605 196.253 334.221 201.228 333.372M183.079 332.551L183.579 331.685C183.537 331.66 183.494 331.637 183.451 331.616M183.451 331.616C190.612 333.587 196.205 333.215 201.058 332.387M201.228 333.372L201.054 332.388C201.056 332.387 201.057 332.387 201.058 332.387M201.228 333.372C216.636 330.664 230.261 322.939 233.793 307.703C234.156 306.229 235.578 305.456 237.734 304.929C241.61 304.064 247.775 304.411 253.963 304.76C263.503 305.297 273.1 305.837 274.459 301.947M201.228 333.372L201.059 332.387C201.059 332.387 201.059 332.387 201.058 332.387M201.058 332.387C216.299 329.707 229.421 322.136 232.819 307.477L232.822 307.464C233.336 305.378 235.329 304.487 237.497 303.958L237.507 303.955L237.517 303.953C240.114 303.373 243.614 303.32 247.344 303.438C249.485 303.506 251.772 303.635 254.047 303.763C255.722 303.857 257.392 303.951 258.993 304.02C262.827 304.185 266.34 304.214 269.015 303.82C270.353 303.624 271.416 303.33 272.186 302.936C272.945 302.548 273.344 302.103 273.514 301.619M273.514 301.619C273.514 301.62 273.513 301.621 273.513 301.621L274.459 301.947M273.514 301.619C273.514 301.619 273.514 301.618 273.514 301.617L274.459 301.947M273.514 301.619C275.071 297.099 275.267 291.869 274.834 286.245C274.5 281.906 273.799 277.406 273.093 272.869C272.882 271.517 272.671 270.161 272.469 268.806C271.595 262.938 270.893 257.087 271.213 251.706C271.533 246.315 272.882 241.315 276.178 237.21M274.459 301.947C277.333 293.602 275.702 283.124 274.077 272.689C272.033 259.562 270 246.501 276.958 237.835M276.958 237.835L276.178 237.21M276.958 237.835C283.893 229.177 286.914 219.384 289.991 209.412C291.563 204.315 293.15 199.172 295.281 194.109C296.831 190.451 304.602 188.096 312.431 185.723C320.901 183.156 329.439 180.568 330.238 176.288M276.958 237.835L276.179 237.209C276.178 237.21 276.178 237.21 276.178 237.21M276.178 237.21C281.309 230.804 284.269 223.744 286.739 216.361C287.526 214.006 288.267 211.604 289.015 209.179C290.596 204.056 292.209 198.829 294.359 193.721L294.36 193.719C294.867 192.524 295.86 191.528 297.072 190.677C298.292 189.819 299.816 189.053 301.502 188.348C304.6 187.051 308.39 185.903 312.129 184.77C312.454 184.671 312.779 184.573 313.102 184.474C317.188 183.233 321.135 181.997 324.154 180.572C325.662 179.86 326.888 179.124 327.768 178.353C328.648 177.583 329.118 176.837 329.255 176.105M329.255 176.105C329.255 176.105 329.255 176.105 329.255 176.105L330.238 176.288M329.255 176.105C329.255 176.105 329.255 176.104 329.255 176.104L330.238 176.288M330.238 176.288C333.747 157.345 304.767 135.091 285.761 120.495C283.809 118.997 281.963 117.579 280.268 116.254C272.476 110.161 263.771 105.312 254.793 101.103M254.793 101.103C231.123 89.9182 202.759 87.5391 190.915 111.263C185.285 122.365 180.337 130.936 170.907 136.122L254.793 101.103Z" stroke="url(#paint12_linear_371_96000)" stroke-width="2" stroke-miterlimit="10"/>
<path d="M114.407 140.355L114.412 140.355C120.745 139.237 127.295 138.892 133.944 138.574C134.219 138.561 134.495 138.548 134.77 138.535C141.129 138.232 147.572 137.926 153.891 136.947C160.562 136.028 165.89 134.222 170.377 131.817L170.383 131.814C180.788 126.142 186.199 116.699 192.21 104.769L192.211 104.767C198.414 92.3814 208.91 86.8201 221.041 85.809C233.225 84.7936 247.045 88.3802 259.665 94.3472C269.264 98.9186 278.557 104.112 286.891 110.591L286.892 110.591C288.678 111.977 290.615 113.454 292.659 115.013C301.91 122.07 313.339 130.787 322.779 140.109C328.538 145.797 333.51 151.666 336.78 157.47C340.051 163.276 341.568 168.923 340.579 174.222C340.423 175.029 339.899 175.845 338.936 176.678C337.972 177.512 336.635 178.304 334.998 179.067C331.719 180.595 327.44 181.917 323.019 183.242C322.677 183.344 322.334 183.447 321.991 183.55C317.935 184.762 313.83 185.99 310.479 187.378C308.659 188.132 307.018 188.95 305.707 189.866C304.404 190.775 303.345 191.835 302.808 193.105L302.808 193.107C300.499 198.604 298.782 204.222 297.099 209.733C296.302 212.342 295.512 214.928 294.67 217.465C292.032 225.413 288.848 233.029 283.264 239.969C279.729 244.359 278.289 249.719 277.962 255.509C277.635 261.289 278.412 267.58 279.382 273.896C279.611 275.392 279.851 276.887 280.091 278.38C280.869 283.227 281.641 288.036 282.026 292.673C282.529 298.731 282.357 304.37 280.718 309.241C280.531 309.791 280.088 310.283 279.263 310.704C278.426 311.132 277.271 311.446 275.822 311.651C272.927 312.062 269.123 312.007 264.977 311.8C263.23 311.713 261.408 311.598 259.581 311.483C257.138 311.328 254.685 311.173 252.388 311.084C248.359 310.927 244.591 310.958 241.806 311.563C239.396 312.086 237.365 313.115 236.81 315.243L236.806 315.257L236.803 315.271C233.198 330.961 219.028 339.166 202.638 341.98L202.635 341.98C197.315 342.908 191.289 343.31 183.532 341.081L183.507 341.074L183.483 341.068C183.377 341.043 183.251 341.009 183.098 340.967L183.088 340.964C182.959 340.928 182.809 340.887 182.669 340.853C172.279 337.716 162.103 330.956 154.185 323.395C146.23 315.797 140.714 307.546 139.445 301.537L139.445 301.536C138.151 295.439 139.383 290.482 141.01 285.511C141.246 284.788 141.492 284.063 141.74 283.332C143.186 279.072 144.692 274.63 144.716 269.52L144.716 269.512C144.703 266.412 144.312 263.285 143.621 260.176L143.62 260.17C141.718 251.853 137.587 243.552 132.86 235.652C129.783 230.51 126.417 225.483 123.229 220.721C121.531 218.185 119.884 215.725 118.357 213.363L118.356 213.361C116.828 211.004 115.028 208.391 113.096 205.588C108.628 199.103 103.458 191.599 99.3329 183.889C96.3885 178.385 94.0172 172.845 92.8443 167.586C91.6717 162.328 91.7109 157.42 93.5023 153.12C96.6337 145.641 105.475 141.892 114.407 140.355Z" stroke="url(#paint13_linear_371_96000)" stroke-width="2" stroke-miterlimit="10"/>
<path d="M109.468 135.734L109.47 135.734C116.266 134.573 123.269 134.246 130.368 133.968C130.838 133.949 131.308 133.931 131.778 133.913C138.399 133.657 145.096 133.398 151.681 132.487L151.685 132.487C158.798 131.472 164.465 129.594 169.259 127.004L169.262 127.002C180.375 120.945 186.242 110.885 192.606 98.1733L192.606 98.1722C199.275 84.8131 210.529 78.8275 223.529 77.7437C236.582 76.6554 251.387 80.5217 264.924 86.9296C275.144 91.7714 285.17 97.387 294.125 104.314C296.077 105.828 298.201 107.446 300.445 109.156C310.324 116.684 322.53 125.985 332.628 135.93C338.821 142.028 344.173 148.324 347.695 154.552C351.219 160.783 352.858 166.85 351.786 172.544L351.786 172.544C351.619 173.432 351.047 174.319 350.006 175.217C348.964 176.115 347.52 176.965 345.755 177.781C342.222 179.413 337.608 180.819 332.848 182.225C332.471 182.336 332.094 182.447 331.716 182.558C327.355 183.843 322.948 185.141 319.352 186.613C317.395 187.414 315.634 188.283 314.23 189.255C312.835 190.221 311.708 191.346 311.141 192.69L311.14 192.691C308.688 198.541 306.859 204.523 305.062 210.399C304.195 213.234 303.335 216.044 302.417 218.802C299.578 227.331 296.142 235.51 290.123 242.951L290.122 242.952C286.358 247.611 284.837 253.314 284.511 259.489C284.186 265.654 285.046 272.372 286.115 279.128C286.369 280.734 286.635 282.341 286.9 283.944C287.757 289.124 288.607 294.269 289.044 299.231C289.616 305.723 289.466 311.777 287.735 317.017C287.535 317.605 287.055 318.129 286.164 318.574C285.262 319.026 284.017 319.352 282.462 319.561C279.352 319.979 275.267 319.898 270.819 319.655C268.941 319.553 266.985 319.42 265.024 319.287C262.403 319.11 259.772 318.932 257.305 318.823C252.977 318.633 248.936 318.644 245.95 319.262L245.94 319.264C244.654 319.544 243.479 319.949 242.553 320.554C241.611 321.17 240.891 322.019 240.636 323.157C236.748 340.011 221.567 348.783 204.033 351.729L204.024 351.731C198.374 352.73 191.943 353.164 183.601 350.774C183.423 350.719 183.266 350.676 183.123 350.636C182.974 350.595 182.841 350.558 182.692 350.512L182.687 350.511C171.55 347.13 160.613 339.887 152.102 331.792C143.56 323.667 137.624 314.84 136.272 308.387L136.271 308.386C134.894 301.843 136.234 296.529 137.98 291.203C138.222 290.464 138.473 289.723 138.726 288.976C140.283 284.38 141.903 279.599 141.885 274.079L141.885 274.069C141.841 270.697 141.455 267.396 140.692 264.06C138.654 255.133 134.231 246.242 129.163 237.791C125.821 232.218 122.164 226.782 118.706 221.643C116.931 219.005 115.208 216.445 113.608 213.985L113.607 213.984C111.983 211.495 110.071 208.735 108.019 205.773C103.199 198.815 97.6067 190.743 93.1564 182.448C89.9937 176.553 87.4484 170.613 86.1966 164.972C84.9453 159.332 85.0008 154.057 86.9551 149.431L86.9562 149.429C90.3583 141.313 99.903 137.35 109.468 135.734ZM107.237 206.402C109.278 209.348 111.172 212.082 112.77 214.53L151.544 131.497C145.01 132.401 138.36 132.658 131.729 132.914C124.164 133.206 116.622 133.498 109.302 134.748C99.6865 136.372 89.6517 140.412 86.0339 149.042C79.0141 165.659 95.5333 189.506 107.237 206.402Z" stroke="url(#paint14_linear_371_96000)" stroke-width="2" stroke-miterlimit="10"/>
<path d="M108.751 214.46L108.749 214.457C107.041 211.845 105.032 208.946 102.874 205.832C97.7281 198.409 91.738 189.767 86.9768 180.885C83.6071 174.6 80.893 168.261 79.5583 162.238C78.2243 156.218 78.2823 150.581 80.3711 145.636C84.0393 137.051 94.2202 132.832 104.528 131.113C111.789 129.909 119.254 129.583 126.788 129.276L127.376 129.252C134.694 128.956 142.072 128.656 149.273 127.549C156.789 126.504 162.791 124.555 167.887 121.781L167.89 121.779C179.6 115.36 185.883 104.749 192.637 91.1928C199.787 76.9161 211.826 70.5419 225.709 69.4036C239.647 68.2607 255.436 72.4071 269.853 79.2343L269.854 79.2348C280.77 84.3896 291.452 90.3844 300.987 97.8227L300.988 97.823C303.217 99.5601 305.659 101.424 308.245 103.398C318.697 111.376 331.499 121.149 342.133 131.585C348.761 138.09 354.498 144.808 358.28 151.458C362.063 158.11 363.835 164.598 362.699 170.697L362.699 170.702C362.525 171.659 361.911 172.61 360.797 173.567C359.683 174.525 358.138 175.428 356.252 176.294C352.475 178.026 347.54 179.514 342.452 181.002C342.055 181.118 341.657 181.234 341.259 181.35C336.591 182.712 331.875 184.088 328.028 185.651C325.938 186.5 324.061 187.421 322.566 188.452C321.081 189.476 319.888 190.665 319.291 192.081L319.291 192.083C316.68 198.322 314.742 204.704 312.838 210.975C311.92 213.997 311.01 216.994 310.036 219.937C307.024 229.041 303.365 237.774 296.911 245.716C292.889 250.65 291.275 256.707 290.947 263.278C290.619 269.838 291.569 276.996 292.744 284.2C293.024 285.918 293.317 287.637 293.61 289.353C294.55 294.872 295.484 300.358 295.975 305.649C296.617 312.579 296.483 319.047 294.642 324.644L294.642 324.644C294.43 325.289 293.914 325.853 292.962 326.325C291.999 326.804 290.67 327.144 289.011 327.357C285.694 327.781 281.331 327.665 276.581 327.375C274.604 327.255 272.549 327.103 270.487 326.951C267.655 326.742 264.809 326.532 262.133 326.4C257.508 326.172 253.191 326.163 249.992 326.81C247.212 327.297 244.889 328.429 244.293 330.826L244.291 330.835L244.289 330.843C240.12 348.862 223.896 358.097 205.238 361.287C199.174 362.319 192.331 362.782 183.396 360.227L183.372 360.22L183.348 360.214C183.133 360.164 182.84 360.074 182.497 359.968L182.493 359.967C170.621 356.339 158.944 348.602 149.857 339.964C140.737 331.295 134.39 321.877 132.954 314.978L132.953 314.973C131.457 307.963 132.878 302.297 134.737 296.629C134.998 295.831 135.27 295.031 135.543 294.226C137.198 289.346 138.918 284.274 138.91 278.394C138.943 274.868 138.484 271.343 137.654 267.799C135.498 258.316 130.771 248.85 125.355 239.844C121.842 234.005 118.004 228.302 114.369 222.903C112.409 219.992 110.509 217.169 108.751 214.46Z" stroke="url(#paint15_linear_371_96000)" stroke-width="2" stroke-miterlimit="10"/>
<path d="M275.578 70.8462L275.152 71.7509C259.835 64.5369 243.034 60.1162 228.196 61.3166C213.414 62.5124 200.592 69.2753 192.999 84.4887C187.865 94.8172 182.99 103.502 176.082 110.059C169.14 116.648 160.211 121.03 147.072 122.914L147.072 122.914C139.562 123.987 131.889 124.27 124.281 124.55C123.913 124.564 123.545 124.577 123.177 124.591C115.188 124.888 107.278 125.224 99.591 126.491L99.5906 126.491C88.6504 128.289 77.7649 132.721 73.8254 141.944C71.5826 147.198 71.5166 153.196 72.9372 159.601C74.3581 166.006 77.2521 172.751 80.8425 179.436C85.9152 188.88 92.2976 198.07 97.7671 205.946C100.06 209.249 102.193 212.32 104.001 215.081L104.002 215.083C105.864 217.941 107.872 220.913 109.942 223.977C114.926 231.355 120.271 239.268 124.806 247.397C131.229 258.911 136.133 271.034 136.152 282.995C136.171 289.232 134.354 294.616 132.6 299.81C132.313 300.659 132.028 301.504 131.753 302.346C129.785 308.373 128.273 314.407 129.853 321.866C131.425 329.287 138.33 339.471 148.203 348.774C158.044 358.048 170.667 366.286 183.455 369.917L183.456 369.917C192.984 372.637 200.309 372.183 206.701 371.08L206.706 371.079C226.511 367.756 243.747 357.951 248.232 338.873L248.233 338.87C248.646 337.135 250 336.031 251.707 335.344C253.407 334.659 255.617 334.314 258.095 334.167C263.058 333.874 269.443 334.363 275.755 334.852L275.912 334.864C282.216 335.352 288.441 335.834 293.303 335.587C295.758 335.463 297.786 335.156 299.271 334.61C300.76 334.063 301.532 333.345 301.806 332.503L301.806 332.502C303.746 326.566 303.865 319.695 303.155 312.335C302.615 306.726 301.603 300.908 300.586 295.055C300.267 293.221 299.948 291.383 299.642 289.547C298.367 281.892 297.335 274.291 297.664 267.329C297.994 260.355 299.693 253.937 303.954 248.717C303.954 248.717 303.954 248.718 303.954 248.718L275.578 70.8462ZM275.578 70.8462L275.152 71.7509C286.762 77.2182 298.177 83.6354 308.406 91.5637L275.578 70.8462ZM183.181 370.879C192.891 373.65 200.374 373.187 206.871 372.065C226.844 368.714 244.584 358.758 249.205 339.102C250.447 333.895 263.146 334.879 275.885 335.865C288.486 336.84 301.127 337.819 302.757 332.813L183.181 370.879Z" stroke="url(#paint16_linear_371_96000)" stroke-width="2" stroke-miterlimit="10"/>
<defs>
<linearGradient id="paint0_linear_371_96000" x1="192.353" y1="207.173" x2="178.473" y2="199.159" gradientUnits="userSpaceOnUse">
<stop stop-color="#61FE00"/>
<stop offset="0.427083" stop-color="#60D09A"/>
<stop offset="1" stop-color="#6DFFCB"/>
</linearGradient>
<linearGradient id="paint1_linear_371_96000" x1="200.428" y1="211.332" x2="172.469" y2="195.19" gradientUnits="userSpaceOnUse">
<stop stop-color="#61FE00"/>
<stop offset="0.427083" stop-color="#60D09A"/>
<stop offset="1" stop-color="#6DFFCB"/>
</linearGradient>
<linearGradient id="paint2_linear_371_96000" x1="209.233" y1="215.991" x2="166.202" y2="191.147" gradientUnits="userSpaceOnUse">
<stop stop-color="#61FE00"/>
<stop offset="0.427083" stop-color="#60D09A"/>
<stop offset="1" stop-color="#6DFFCB"/>
</linearGradient>
<linearGradient id="paint3_linear_371_96000" x1="217.952" y1="220.65" x2="159.833" y2="187.095" gradientUnits="userSpaceOnUse">
<stop stop-color="#61FE00"/>
<stop offset="0.427083" stop-color="#60D09A"/>
<stop offset="1" stop-color="#6DFFCB"/>
</linearGradient>
<linearGradient id="paint4_linear_371_96000" x1="226.81" y1="225.25" x2="153.55" y2="182.953" gradientUnits="userSpaceOnUse">
<stop stop-color="#61FE00"/>
<stop offset="0.427083" stop-color="#60D09A"/>
<stop offset="1" stop-color="#6DFFCB"/>
</linearGradient>
<linearGradient id="paint5_linear_371_96000" x1="235.621" y1="229.93" x2="147.163" y2="178.859" gradientUnits="userSpaceOnUse">
<stop stop-color="#61FE00"/>
<stop offset="0.427083" stop-color="#60D09A"/>
<stop offset="1" stop-color="#6DFFCB"/>
</linearGradient>
<linearGradient id="paint6_linear_371_96000" x1="244.359" y1="234.72" x2="140.691" y2="174.867" gradientUnits="userSpaceOnUse">
<stop stop-color="#61FE00"/>
<stop offset="0.427083" stop-color="#60D09A"/>
<stop offset="1" stop-color="#6DFFCB"/>
</linearGradient>
<linearGradient id="paint7_linear_371_96000" x1="253.241" y1="239.279" x2="134.423" y2="170.679" gradientUnits="userSpaceOnUse">
<stop stop-color="#61FE00"/>
<stop offset="0.427083" stop-color="#60D09A"/>
<stop offset="1" stop-color="#6DFFCB"/>
</linearGradient>
<linearGradient id="paint8_linear_371_96000" x1="262.063" y1="243.943" x2="128.112" y2="166.606" gradientUnits="userSpaceOnUse">
<stop stop-color="#61FE00"/>
<stop offset="0.427083" stop-color="#60D09A"/>
<stop offset="1" stop-color="#6DFFCB"/>
</linearGradient>
<linearGradient id="paint9_linear_371_96000" x1="270.798" y1="248.577" x2="121.773" y2="162.537" gradientUnits="userSpaceOnUse">
<stop stop-color="#61FE00"/>
<stop offset="0.427083" stop-color="#60D09A"/>
<stop offset="1" stop-color="#6DFFCB"/>
</linearGradient>
<linearGradient id="paint10_linear_371_96000" x1="279.513" y1="253.256" x2="115.353" y2="158.478" gradientUnits="userSpaceOnUse">
<stop stop-color="#61FE00"/>
<stop offset="0.427083" stop-color="#60D09A"/>
<stop offset="1" stop-color="#6DFFCB"/>
</linearGradient>
<linearGradient id="paint11_linear_371_96000" x1="288.478" y1="258" x2="108.953" y2="154.351" gradientUnits="userSpaceOnUse">
<stop stop-color="#61FE00"/>
<stop offset="0.427083" stop-color="#60D09A"/>
<stop offset="1" stop-color="#6DFFCB"/>
</linearGradient>
<linearGradient id="paint12_linear_371_96000" x1="297.244" y1="262.577" x2="102.646" y2="150.226" gradientUnits="userSpaceOnUse">
<stop stop-color="#61FE00"/>
<stop offset="0.427083" stop-color="#60D09A"/>
<stop offset="1" stop-color="#6DFFCB"/>
</linearGradient>
<linearGradient id="paint13_linear_371_96000" x1="306.191" y1="267.195" x2="96.3089" y2="146.02" gradientUnits="userSpaceOnUse">
<stop stop-color="#61FE00"/>
<stop offset="0.427083" stop-color="#60D09A"/>
<stop offset="1" stop-color="#6DFFCB"/>
</linearGradient>
<linearGradient id="paint14_linear_371_96000" x1="314.985" y1="271.896" x2="89.956" y2="141.976" gradientUnits="userSpaceOnUse">
<stop stop-color="#61FE00"/>
<stop offset="0.427083" stop-color="#60D09A"/>
<stop offset="1" stop-color="#6DFFCB"/>
</linearGradient>
<linearGradient id="paint15_linear_371_96000" x1="323.676" y1="276.45" x2="83.5812" y2="137.831" gradientUnits="userSpaceOnUse">
<stop stop-color="#61FE00"/>
<stop offset="0.427083" stop-color="#60D09A"/>
<stop offset="1" stop-color="#6DFFCB"/>
</linearGradient>
<linearGradient id="paint16_linear_371_96000" x1="332.625" y1="281.225" x2="77.2352" y2="133.775" gradientUnits="userSpaceOnUse">
<stop stop-color="#61FE00"/>
<stop offset="0.427083" stop-color="#60D09A"/>
<stop offset="1" stop-color="#6DFFCB"/>
</linearGradient>
</defs>
</svg>
