<svg width="155" height="25" viewBox="0 0 155 25" fill="none" xmlns="http://www.w3.org/2000/svg">
<path d="M56.729 25V19.9401H36.3707V15.0676H48.0129L51.6301 9.97025H36.3707V5.09776H56.729V0.000390209H31.2717V25H53.4297H56.729ZM81.9571 0L62.7227 0.000390209L78.3571 25L93.9539 0.000390209H87.9551L78.3571 15.3675L71.9084 5.09776H78.3383L81.9571 0ZM123.549 19.9401H103.19V15.0676H114.831L118.45 9.97025H103.19V5.09776H123.549V0.000390209H98.0913V25H123.549V19.9401ZM155 19.9401H134.642V0.000390209H129.543V25H151.381L155 19.9401ZM25.4573 19.9401H5.09896V0.000390209H0V25H21.8385" fill="white"/>
<path d="M81.9571 0L62.7227 0.000390209L78.3571 25L93.9539 0.000390209H87.9551L78.3571 15.3675L71.9084 5.09776H78.3383L81.9571 0Z" fill="#60D09A"/>
</svg>
