<svg width="335" height="54" viewBox="0 0 335 54" fill="none" xmlns="http://www.w3.org/2000/svg">
<path d="M122.608 54V43.0706H78.6076V32.5461H103.77L111.588 21.5357H78.6076V11.0112H122.608V0.000842852H67.5873V54H115.477H122.608ZM177.133 0L135.562 0.000842852L169.352 54L203.062 0.000842852H190.096L169.352 33.1937L155.415 11.0112H169.312L177.133 0ZM267.024 43.0706H223.024V32.5461H248.183L256.004 21.5357H223.024V11.0112H267.024V0.000842852H212.004V54H267.024V43.0706ZM335 43.0706H291V0.000842852H279.979V54H327.179L335 43.0706ZM55.0206 43.0706H11.0203V0.000842852H0V54H47.1994" fill="#323232"/>
<path d="M177.133 0L135.562 0.000842852L169.352 54L203.062 0.000842852H190.096L169.352 33.1937L155.415 11.0112H169.312L177.133 0Z" fill="#60D09A"/>
</svg>
