<svg xmlns="http://www.w3.org/2000/svg" viewBox="0 0 260.46 260.46"><defs><style>.cls-1{fill:#fff;}</style></defs><g id="Слой_2" data-name="Слой 2"><g id="Слой_1-2" data-name="Слой 1"><path class="cls-1" d="M123.67,170.42a152.76,152.76,0,0,1,19.41,16.42q9,8.82,17,18.43t15.21,19.95a151.2,151.2,0,0,1,12.79,22,150.48,150.48,0,0,1-19.42-16.41q-9-8.82-17-18.44t-15.19-20A152.11,152.11,0,0,1,123.67,170.42Z"/><path class="cls-1" d="M116.79,168.67a151.89,151.89,0,0,1,16.26,19.55c4.88,6.83,9.38,13.87,13.56,21.1s8,14.65,11.51,22.28a150.93,150.93,0,0,1,8.78,23.87,151.07,151.07,0,0,1-16.27-19.54q-7.31-10.25-13.55-21.11c-4.17-7.24-8-14.66-11.49-22.29A153.25,153.25,0,0,1,116.79,168.67Z"/><path class="cls-1" d="M110.32,165.75a153,153,0,0,1,12.62,22.07c3.61,7.58,6.82,15.3,9.69,23.14s5.36,15.82,7.46,23.95a151.22,151.22,0,0,1,4.51,25A151.61,151.61,0,0,1,132,237.87q-5.42-11.37-9.67-23.15t-7.45-23.95A152.28,152.28,0,0,1,110.32,165.75Z"/><path class="cls-1" d="M104.45,161.76a151.84,151.84,0,0,1,8.6,23.92c2.24,8.09,4.06,16.25,5.52,24.47s2.54,16.52,3.19,24.88a150.9,150.9,0,0,1,.1,25.43,150,150,0,0,1-8.61-23.93c-2.25-8.08-4.07-16.24-5.51-24.47s-2.52-16.51-3.18-24.88A152.9,152.9,0,0,1,104.45,161.76Z"/><path class="cls-1" d="M99.37,156.8a152.31,152.31,0,0,1,4.31,25.06c.81,8.35,1.18,16.7,1.19,25s-.37,16.71-1.18,25.06a150,150,0,0,1-4.32,25A151,151,0,0,1,95,232q-1.2-12.53-1.17-25.06c0-8.35.38-16.7,1.19-25A152.31,152.31,0,0,1,99.37,156.8Z"/><path class="cls-1" d="M95.22,151a151.84,151.84,0,0,1-.1,25.42c-.66,8.37-1.74,16.66-3.18,24.88s-3.27,16.39-5.51,24.48a150.9,150.9,0,0,1-8.61,23.92,150.91,150.91,0,0,1,.09-25.43q1-12.54,3.2-24.87c1.45-8.23,3.27-16.39,5.52-24.47A152.91,152.91,0,0,1,95.22,151Z"/><path class="cls-1" d="M92.14,144.65a152.35,152.35,0,0,1-4.52,25q-3.15,12.19-7.45,24T70.5,216.76a151.09,151.09,0,0,1-12.64,22.06,151.22,151.22,0,0,1,4.51-25q3.15-12.18,7.47-24t9.68-23.13A152.9,152.9,0,0,1,92.14,144.65Z"/><path class="cls-1" d="M90.22,137.81a152.88,152.88,0,0,1-8.8,23.86Q76.2,173.12,69.92,184T56.38,205.07a151.89,151.89,0,0,1-16.27,19.54,150.45,150.45,0,0,1,8.78-23.86q5.22-11.46,11.51-22.29c4.18-7.23,8.68-14.27,13.56-21.1A152.57,152.57,0,0,1,90.22,137.81Z"/><path class="cls-1" d="M89.51,130.75a152.11,152.11,0,0,1-12.81,22q-7.12,10.38-15.19,20t-17,18.44a150.38,150.38,0,0,1-19.41,16.41,150.3,150.3,0,0,1,12.79-22c4.75-6.92,9.83-13.55,15.2-20s11-12.55,17-18.43A152.76,152.76,0,0,1,89.51,130.75Z"/><path class="cls-1" d="M90,123.67a151.94,151.94,0,0,1-16.42,19.41q-8.82,9-18.43,17t-20,15.21a150.67,150.67,0,0,1-22,12.79,151.28,151.28,0,0,1,16.41-19.42q8.82-9,18.44-17c6.41-5.36,13-10.44,20-15.19A152.65,152.65,0,0,1,90,123.67Z"/><path class="cls-1" d="M91.78,116.79a151.8,151.8,0,0,1-19.54,16.26c-6.83,4.88-13.87,9.38-21.1,13.56s-14.65,8-22.29,11.51A150.45,150.45,0,0,1,5,166.9a150.4,150.4,0,0,1,19.54-16.27q10.24-7.31,21.11-13.55c7.23-4.17,14.65-8,22.29-11.49A152.76,152.76,0,0,1,91.78,116.79Z"/><path class="cls-1" d="M94.7,110.32a152.5,152.5,0,0,1-22.07,12.62c-7.57,3.61-15.29,6.82-23.14,9.69S33.67,138,25.55,140.09a151.34,151.34,0,0,1-25,4.51A151.71,151.71,0,0,1,22.59,132q11.36-5.42,23.14-9.67t24-7.45A152.66,152.66,0,0,1,94.7,110.32Z"/><path class="cls-1" d="M98.7,104.45a152,152,0,0,1-23.93,8.6c-8.08,2.24-16.24,4.06-24.47,5.52s-16.51,2.54-24.87,3.19a150.9,150.9,0,0,1-25.43.1,149.91,149.91,0,0,1,23.92-8.61c8.09-2.25,16.25-4.07,24.47-5.51s16.52-2.52,24.89-3.18A152.9,152.9,0,0,1,98.7,104.45Z"/><path class="cls-1" d="M103.65,99.37a152,152,0,0,1-25.05,4.31c-8.35.81-16.71,1.18-25.06,1.19s-16.7-.37-25-1.18A150.08,150.08,0,0,1,3.43,99.37,151.14,151.14,0,0,1,28.49,95Q41,93.84,53.54,93.87c8.35,0,16.71.38,25.06,1.19A152,152,0,0,1,103.65,99.37Z"/><path class="cls-1" d="M109.41,95.22A151.85,151.85,0,0,1,84,95.12c-8.36-.66-16.65-1.74-24.88-3.18s-16.38-3.27-24.47-5.51a150.54,150.54,0,0,1-23.92-8.61,150.79,150.79,0,0,1,25.42.09q12.55,1,24.88,3.2c8.22,1.45,16.38,3.27,24.47,5.52A152.8,152.8,0,0,1,109.41,95.22Z"/><path class="cls-1" d="M115.81,92.14a152.47,152.47,0,0,1-25-4.52q-12.18-3.15-24-7.45T43.7,70.5A151.19,151.19,0,0,1,21.63,57.86a151.53,151.53,0,0,1,25,4.51q12.18,3.15,23.94,7.47t23.14,9.68A153.44,153.44,0,0,1,115.81,92.14Z"/><path class="cls-1" d="M122.64,90.22a152.76,152.76,0,0,1-23.85-8.8Q87.33,76.2,76.5,69.92T55.38,56.38A151.8,151.8,0,0,1,35.85,40.11a150.45,150.45,0,0,1,23.86,8.78Q71.17,54.11,82,60.4C89.22,64.58,96.27,69.08,103.1,74A151.8,151.8,0,0,1,122.64,90.22Z"/><path class="cls-1" d="M129.71,89.51a152.22,152.22,0,0,1-22-12.81q-10.36-7.12-20-15.19t-18.43-17A150.45,150.45,0,0,1,52.93,25.09a149.88,149.88,0,0,1,22,12.79Q85.28,45,94.85,53.08c6.4,5.38,12.55,11,18.43,17A152.83,152.83,0,0,1,129.71,89.51Z"/><path class="cls-1" d="M136.78,90a152.53,152.53,0,0,1-19.4-16.42c-6-5.88-11.64-12-17-18.43s-10.45-13-15.2-20a150.72,150.72,0,0,1-12.8-22A150.6,150.6,0,0,1,91.78,29.67c6,5.88,11.64,12,17,18.44s10.44,13,15.19,20A151.68,151.68,0,0,1,136.78,90Z"/><path class="cls-1" d="M143.66,91.78A153.46,153.46,0,0,1,127.4,72.24Q120.1,62,113.85,51.14T102.34,28.85A150.48,150.48,0,0,1,93.55,5a150.48,150.48,0,0,1,16.28,19.54q7.31,10.24,13.54,21.11t11.5,22.29A151.72,151.72,0,0,1,143.66,91.78Z"/><path class="cls-1" d="M150.14,94.7a151.57,151.57,0,0,1-12.62-22.07c-3.62-7.57-6.83-15.29-9.69-23.14s-5.37-15.82-7.47-23.94a150.3,150.3,0,0,1-4.5-25,150.73,150.73,0,0,1,12.63,22.07q5.43,11.36,9.67,23.14c2.85,7.85,5.36,15.83,7.46,24A153.73,153.73,0,0,1,150.14,94.7Z"/><path class="cls-1" d="M156,98.7a152.91,152.91,0,0,1-8.59-23.93c-2.25-8.08-4.07-16.24-5.52-24.47s-2.54-16.51-3.2-24.87A150.91,150.91,0,0,1,138.6,0a150.9,150.9,0,0,1,8.61,23.92q3.36,12.13,5.51,24.47c1.44,8.23,2.52,16.52,3.18,24.89A151.84,151.84,0,0,1,156,98.7Z"/><path class="cls-1" d="M161.09,103.65a152,152,0,0,1-4.31-25.05c-.81-8.35-1.19-16.71-1.19-25.06s.37-16.7,1.17-25a151.14,151.14,0,0,1,4.33-25.06,151.11,151.11,0,0,1,4.32,25.06c.81,8.35,1.18,16.7,1.17,25.05s-.38,16.71-1.18,25.06A154.14,154.14,0,0,1,161.09,103.65Z"/><path class="cls-1" d="M165.23,109.41A152.91,152.91,0,0,1,165.34,84c.65-8.36,1.74-16.65,3.18-24.88s3.26-16.38,5.51-24.47a149.56,149.56,0,0,1,8.61-23.92,150.78,150.78,0,0,1-.1,25.42c-.65,8.37-1.73,16.66-3.19,24.88s-3.28,16.38-5.52,24.47A151.84,151.84,0,0,1,165.23,109.41Z"/><path class="cls-1" d="M168.31,115.81a153.54,153.54,0,0,1,4.52-25c2.1-8.12,4.61-16.1,7.46-24S186.35,51.27,190,43.7a150.21,150.21,0,0,1,12.63-22.07,150.49,150.49,0,0,1-4.5,25c-2.1,8.12-4.61,16.1-7.47,23.94s-6.07,15.57-9.69,23.14A151.57,151.57,0,0,1,168.31,115.81Z"/><path class="cls-1" d="M170.24,122.64A152.76,152.76,0,0,1,179,98.79c3.47-7.64,7.32-15.06,11.49-22.29s8.67-14.29,13.55-21.12a151,151,0,0,1,16.27-19.53,150.45,150.45,0,0,1-8.78,23.86Q206.35,71.17,200.06,82T186.5,103.1A151.8,151.8,0,0,1,170.24,122.64Z"/><path class="cls-1" d="M171,129.71a152.17,152.17,0,0,1,12.8-22q7.13-10.36,15.2-20t17-18.43a150.55,150.55,0,0,1,19.42-16.42,150.78,150.78,0,0,1-12.79,22q-7.12,10.36-15.21,19.94t-17,18.43A152.83,152.83,0,0,1,171,129.71Z"/><path class="cls-1" d="M170.42,136.78a153.36,153.36,0,0,1,16.42-19.4c5.88-6,12-11.64,18.43-17s13-10.45,19.95-15.2a151.25,151.25,0,0,1,22-12.8,149.81,149.81,0,0,1-16.41,19.42c-5.88,6-12,11.64-18.44,17s-13,10.44-20,15.19A151.15,151.15,0,0,1,170.42,136.78Z"/><path class="cls-1" d="M168.67,143.66a153.54,153.54,0,0,1,19.55-16.26q10.25-7.31,21.1-13.55t22.28-11.51a151,151,0,0,1,23.87-8.79,151.15,151.15,0,0,1-19.54,16.28q-10.25,7.31-21.11,13.54t-22.29,11.5A152.21,152.21,0,0,1,168.67,143.66Z"/><path class="cls-1" d="M165.75,150.14a152.1,152.1,0,0,1,22.07-12.62c7.58-3.62,15.3-6.83,23.14-9.69s15.82-5.37,23.95-7.47a150.18,150.18,0,0,1,25-4.5,150.63,150.63,0,0,1-22.06,12.63q-11.37,5.43-23.15,9.67c-7.85,2.85-15.82,5.36-23.95,7.46A153.34,153.34,0,0,1,165.75,150.14Z"/><path class="cls-1" d="M161.76,156a152.8,152.8,0,0,1,23.92-8.59c8.09-2.25,16.25-4.07,24.47-5.52s16.52-2.54,24.88-3.2a150.91,150.91,0,0,1,25.43-.09,151,151,0,0,1-23.93,8.61q-12.12,3.36-24.47,5.51c-8.22,1.44-16.51,2.52-24.88,3.18A151.84,151.84,0,0,1,161.76,156Z"/><path class="cls-1" d="M156.8,161.09a152.31,152.31,0,0,1,25.06-4.31c8.35-.81,16.7-1.19,25-1.19s16.71.37,25.06,1.17a151,151,0,0,1,25,4.33,151,151,0,0,1-25,4.32c-8.35.81-16.7,1.18-25.06,1.17s-16.7-.38-25-1.18A154.45,154.45,0,0,1,156.8,161.09Z"/><path class="cls-1" d="M151,165.23a152.9,152.9,0,0,1,25.42.11c8.37.65,16.66,1.74,24.88,3.18s16.39,3.26,24.48,5.51a149.91,149.91,0,0,1,23.92,8.61,150.9,150.9,0,0,1-25.43-.1c-8.36-.65-16.65-1.73-24.87-3.19s-16.39-3.28-24.47-5.52A152,152,0,0,1,151,165.23Z"/><path class="cls-1" d="M144.65,168.31a153.42,153.42,0,0,1,25,4.52c8.13,2.1,16.11,4.61,24,7.46s15.57,6.06,23.14,9.67a150.11,150.11,0,0,1,22.06,12.63,150.18,150.18,0,0,1-25-4.5c-8.12-2.1-16.1-4.61-24-7.47s-15.56-6.07-23.13-9.69A151,151,0,0,1,144.65,168.31Z"/><path class="cls-1" d="M137.81,170.24a152.88,152.88,0,0,1,23.86,8.8c7.63,3.47,15.05,7.32,22.29,11.49s14.28,8.67,21.11,13.55a151.07,151.07,0,0,1,19.54,16.27,150.45,150.45,0,0,1-23.86-8.78q-11.46-5.22-22.29-11.51t-21.1-13.56A152.57,152.57,0,0,1,137.81,170.24Z"/><path class="cls-1" d="M130.75,171a152.06,152.06,0,0,1,22,12.8q10.38,7.13,20,15.2t18.44,17a150.48,150.48,0,0,1,16.41,19.42,151.2,151.2,0,0,1-22-12.79c-6.92-4.75-13.55-9.83-20-15.21s-12.55-11-18.43-17A152.76,152.76,0,0,1,130.75,171Z"/><path class="cls-1" d="M123.67,170.42a152.76,152.76,0,0,1,19.41,16.42q9,8.82,17,18.43t15.21,19.95a151.2,151.2,0,0,1,12.79,22,150.48,150.48,0,0,1-19.42-16.41q-9-8.82-17-18.44t-15.19-20A152.11,152.11,0,0,1,123.67,170.42Z"/><path class="cls-1" d="M116.79,168.67a151.89,151.89,0,0,1,16.26,19.55c4.88,6.83,9.38,13.87,13.56,21.1s8,14.65,11.51,22.28a150.93,150.93,0,0,1,8.78,23.87,151.07,151.07,0,0,1-16.27-19.54q-7.31-10.25-13.55-21.11c-4.17-7.24-8-14.66-11.49-22.29A153.25,153.25,0,0,1,116.79,168.67Z"/><path class="cls-1" d="M110.32,165.75a153,153,0,0,1,12.62,22.07c3.61,7.58,6.82,15.3,9.69,23.14s5.36,15.82,7.46,23.95a151.22,151.22,0,0,1,4.51,25A151.61,151.61,0,0,1,132,237.87q-5.42-11.37-9.67-23.15t-7.45-23.95A152.28,152.28,0,0,1,110.32,165.75Z"/><path class="cls-1" d="M104.45,161.76a151.84,151.84,0,0,1,8.6,23.92c2.24,8.09,4.06,16.25,5.52,24.47s2.54,16.52,3.19,24.88a150.9,150.9,0,0,1,.1,25.43,150,150,0,0,1-8.61-23.93c-2.25-8.08-4.07-16.24-5.51-24.47s-2.52-16.51-3.18-24.88A152.9,152.9,0,0,1,104.45,161.76Z"/><path class="cls-1" d="M99.37,156.8a152.31,152.31,0,0,1,4.31,25.06c.81,8.35,1.18,16.7,1.19,25s-.37,16.71-1.18,25.06a150,150,0,0,1-4.32,25A151,151,0,0,1,95,232q-1.2-12.53-1.17-25.06c0-8.35.38-16.7,1.19-25A152.31,152.31,0,0,1,99.37,156.8Z"/></g></g></svg>