<svg width="1439" height="343" viewBox="0 0 1439 343" fill="none" xmlns="http://www.w3.org/2000/svg">
<g opacity="0.3">
<path d="M403.323 0C403.523 27.7636 398.414 55.5271 388.396 81.1874C378.379 106.953 363.452 130.51 344.719 150.281C326.086 170.052 303.546 185.827 279.103 196.553C254.66 207.28 228.113 212.749 201.566 212.854C175.018 212.854 148.471 207.28 124.028 196.553C99.5849 185.827 77.0449 170.052 58.4119 150.281C39.7789 130.51 24.7523 106.953 14.7346 81.1874C4.71683 55.4219 -0.292064 27.6584 -0.191886 0C0.00846882 27.7636 5.31792 55.3168 15.6362 80.8719C25.7541 106.427 40.7807 129.668 59.5139 149.124C78.1469 168.579 100.386 184.249 124.729 194.766C148.972 205.282 175.319 210.751 201.566 210.645C227.812 210.645 254.159 205.282 278.402 194.766C302.745 184.249 324.984 168.579 343.617 149.124C362.25 129.668 377.277 106.322 387.495 80.8719C397.813 55.4219 403.123 27.7636 403.323 0Z" fill="#60D09A"/>
<path d="M391.702 0C391.902 26.0809 387.094 52.3722 377.677 76.5601C368.261 100.853 354.135 123.043 336.504 141.657C318.873 160.271 297.736 175.205 274.595 185.301C251.554 195.397 226.509 200.55 201.465 200.655C176.421 200.655 151.477 195.397 128.336 185.301C105.295 175.205 84.0571 160.377 66.4259 141.657C48.7947 123.043 34.7698 100.748 25.253 76.5601C15.8363 52.267 11.128 26.0809 11.2281 0C11.4285 26.0809 16.4374 52.1618 26.1546 76.1395C35.7716 100.222 49.8966 122.202 67.5278 140.5C85.159 158.799 106.096 173.522 129.037 183.513C151.877 193.504 176.721 198.552 201.465 198.552C226.209 198.552 250.953 193.504 273.893 183.513C296.834 173.627 317.771 158.799 335.402 140.5C353.034 122.202 367.159 100.117 376.776 76.1395C386.493 52.1618 391.602 26.1861 391.702 0Z" fill="#60D09A"/>
<path d="M380.181 0C380.381 24.5034 375.873 49.112 367.057 71.9329C358.142 94.7537 344.918 115.576 328.389 133.139C311.86 150.701 291.924 164.688 270.286 174.153C248.547 183.618 225.106 188.561 201.564 188.561C178.023 188.561 154.581 183.618 132.843 174.153C111.104 164.688 91.2689 150.701 74.7396 133.139C58.2103 115.681 44.9869 94.7537 36.0711 71.9329C27.2555 49.112 22.7474 24.5034 22.9478 0C23.1482 24.5034 27.8565 49.0069 36.9726 71.5122C45.9886 94.1227 59.3123 114.735 75.8415 131.982C92.3708 149.124 112.106 163.006 133.544 172.365C155.082 181.725 178.323 186.458 201.564 186.458C224.805 186.458 248.047 181.725 269.585 172.365C291.123 163.111 310.758 149.229 327.287 131.982C343.816 114.735 357.14 94.1227 366.156 71.5122C375.272 49.0069 379.98 24.6086 380.181 0Z" fill="#60D09A"/>
<path d="M368.662 0C368.862 22.926 364.655 45.9571 356.44 67.3056C348.126 88.6541 335.804 108.215 320.276 124.515C304.849 140.921 286.216 153.962 265.88 162.901C245.544 171.84 223.605 176.362 201.566 176.362C179.527 176.362 157.588 171.734 137.252 162.901C116.916 154.067 98.283 140.921 82.8556 124.515C67.4283 108.11 55.0063 88.5489 46.6916 67.3056C38.3769 45.9571 34.2695 22.926 34.4699 0C34.6702 22.926 39.0781 45.8519 47.5932 66.8849C56.0081 88.0231 68.4301 107.268 83.9576 123.359C99.3849 139.449 117.818 152.384 137.953 161.113C158.089 169.841 179.827 174.258 201.566 174.258C223.304 174.258 245.043 169.841 265.179 161.113C285.314 152.384 303.647 139.449 319.174 123.359C334.602 107.268 347.024 87.9179 355.539 66.8849C364.054 45.8519 368.462 22.926 368.662 0Z" fill="#60D09A"/>
<path d="M357.14 0C357.34 21.3485 353.433 42.8021 345.82 62.6783C338.106 82.5545 326.586 100.748 312.16 115.997C297.735 131.246 280.404 143.445 261.571 151.753C242.637 160.061 222.201 164.268 201.665 164.373C181.228 164.373 160.692 160.061 141.758 151.753C122.825 143.445 105.494 131.351 91.1689 115.997C76.7433 100.748 65.2228 82.5545 57.5091 62.6783C49.7955 42.8021 45.9888 21.3485 46.1892 0C46.3895 21.3485 50.4967 42.697 58.5109 62.2577C66.3248 81.9235 77.9454 99.9067 92.3709 114.84C106.796 129.774 123.927 141.868 142.66 149.965C161.393 158.063 181.629 162.27 201.865 162.164C222.101 162.164 242.337 158.063 261.07 149.965C279.803 141.868 296.933 129.774 311.359 114.84C325.784 99.9067 337.305 81.9235 345.219 62.2577C352.732 42.697 356.94 21.3485 357.14 0Z" fill="#60D09A"/>
<path d="M345.519 0C345.72 19.771 342.113 39.6472 335.001 58.0511C327.888 76.4549 317.169 93.2813 303.846 107.479C290.522 121.676 274.494 132.929 256.963 140.606C239.432 148.283 220.498 152.174 201.564 152.279C182.631 152.279 163.597 148.283 146.166 140.606C128.635 132.929 112.607 121.676 99.2833 107.479C85.9597 93.3865 75.3409 76.4549 68.1281 58.0511C61.0155 39.6472 57.5093 19.771 57.6095 0C57.8099 19.771 61.6165 39.542 69.0296 57.6304C76.3426 75.8239 87.0616 92.44 100.385 106.322C113.709 120.098 129.537 131.351 146.868 138.818C164.198 146.284 182.931 150.176 201.564 150.176C220.298 150.176 239.031 146.39 256.261 138.818C273.592 131.351 289.42 120.204 302.744 106.322C316.067 92.44 326.786 75.8239 334.099 57.6304C341.512 39.542 345.419 19.771 345.519 0Z" fill="#60D09A"/>
<path d="M334.001 0C334.201 18.1935 330.895 36.4922 324.384 53.4238C317.872 70.3554 308.055 85.9198 295.733 98.8551C283.511 111.896 268.685 122.307 252.557 129.353C236.428 136.399 218.997 140.08 201.566 140.08C184.135 140.08 166.604 136.399 150.576 129.353C134.447 122.307 119.721 111.896 107.399 98.8551C95.1777 85.8146 85.3604 70.3554 78.7487 53.4238C72.2371 36.4922 68.9313 18.1935 69.1316 0C69.332 18.1935 72.8382 36.2819 79.6503 53.0031C86.3622 69.7244 96.1795 84.9733 108.501 97.6982C120.723 110.423 135.349 120.624 151.277 127.565C167.205 134.506 184.436 137.976 201.566 137.976C218.797 137.976 236.027 134.506 251.855 127.565C267.783 120.729 282.309 110.423 294.631 97.6982C306.853 84.9733 316.77 69.7244 323.482 53.0031C330.294 36.2819 333.8 18.1935 334.001 0Z" fill="#60D09A"/>
<path d="M322.479 0C322.679 16.6161 319.674 33.3373 313.764 48.7966C307.753 64.2558 298.837 78.4531 287.617 90.3367C276.398 102.22 262.974 111.685 248.248 118.205C233.522 124.621 217.593 127.986 201.665 127.986C185.737 127.986 169.809 124.621 155.083 118.205C140.357 111.79 126.833 102.326 115.713 90.3367C104.493 78.4531 95.5772 64.2558 89.5666 48.7966C83.6561 33.3373 80.6508 16.6161 80.8512 0C81.0516 16.6161 84.2572 33.127 90.4682 48.3759C96.579 63.6248 105.595 77.5066 116.815 89.1799C128.035 100.748 141.258 110.108 155.784 116.418C170.31 122.728 186.037 125.883 201.665 125.883C217.393 125.883 233.021 122.728 247.546 116.418C262.072 110.108 275.396 100.748 286.516 89.1799C297.735 77.6118 306.651 63.6248 312.862 48.3759C319.073 33.127 322.279 16.6161 322.479 0Z" fill="#60D09A"/>
<path d="M310.959 0C311.16 15.0386 308.455 30.0772 303.146 44.0641C297.736 58.0511 289.622 70.8812 279.504 81.7132C269.386 92.5452 257.164 101.064 243.84 106.953C230.517 112.842 216.091 115.787 201.666 115.892C187.24 115.892 172.815 112.842 159.491 106.953C146.167 101.169 133.946 92.5452 123.828 81.7132C113.71 70.9864 105.596 58.0511 100.186 44.0641C94.7765 30.0772 92.0717 14.9334 92.3722 0C92.5725 15.0386 95.4776 29.972 101.088 43.7486C106.597 57.5252 114.812 70.1451 124.93 80.5564C135.048 90.9677 147.069 99.4861 160.192 105.165C173.316 110.844 187.541 113.789 201.666 113.683C215.891 113.683 230.016 110.844 243.139 105.165C256.262 99.4861 268.284 91.0729 278.402 80.5564C288.52 70.0399 296.634 57.5252 302.244 43.7486C307.754 29.972 310.659 15.0386 310.959 0Z" fill="#60D09A"/>
<path d="M299.338 0C299.539 13.4611 297.134 26.9222 292.326 39.4369C287.517 51.9515 280.305 63.4145 271.189 73.0897C262.173 82.7649 251.153 90.4419 239.232 95.7002C227.311 100.958 214.388 103.588 201.465 103.693C188.542 103.693 175.619 100.958 163.698 95.7002C151.777 90.4419 140.858 82.7649 131.742 73.0897C122.726 63.4145 115.413 51.9515 110.604 39.4369C105.796 26.9222 103.391 13.356 103.592 0C103.892 26.9222 114.611 53.3187 132.743 72.038C141.759 81.3977 152.478 88.9696 164.299 94.0175C176.02 99.0654 188.743 101.695 201.365 101.695C213.987 101.695 226.71 99.1706 238.431 94.0175C250.151 88.9696 260.87 81.3977 269.986 72.038C288.419 53.3187 299.038 26.9222 299.338 0Z" fill="#60D09A"/>
<path d="M287.817 0C288.018 11.8836 285.914 23.7673 281.707 34.8096C277.499 45.8519 271.088 56.0529 263.074 64.5713C255.059 73.0897 245.442 79.9254 234.924 84.5527C224.405 89.1799 212.985 91.5987 201.565 91.5987C190.144 91.5987 178.724 89.1799 168.206 84.5527C157.687 79.9254 147.97 73.1948 140.056 64.5713C132.041 56.0529 125.73 45.8519 121.423 34.8096C117.215 23.7673 115.112 11.7785 115.312 0C115.612 23.7673 125.129 47.0088 141.158 63.4145C149.172 71.6174 158.589 78.2428 168.907 82.7649C179.225 87.287 190.445 89.4954 201.565 89.4954C212.684 89.4954 223.904 87.287 234.222 82.7649C244.541 78.3479 253.958 71.6174 261.972 63.4145C278.1 47.0088 287.517 23.7673 287.817 0Z" fill="#60D09A"/>
<path d="M276.296 0C276.497 10.3062 274.693 20.6123 271.087 30.1824C267.38 39.7524 261.871 48.5862 254.958 55.9478C248.046 63.4145 239.631 69.1986 230.515 73.3C221.399 77.2963 211.481 79.3996 201.564 79.3996C191.646 79.3996 181.729 77.2963 172.613 73.3C163.496 69.3037 155.081 63.4145 148.169 55.9478C141.257 48.5862 135.747 39.7524 132.041 30.1824C128.434 20.6123 126.631 10.201 126.831 0C127.132 20.5072 135.347 40.6989 149.271 54.8961C156.183 61.9422 164.398 67.7262 173.314 71.6174C182.23 75.5085 191.847 77.4014 201.564 77.4014C211.181 77.4014 220.898 75.5085 229.814 71.6174C238.73 67.8314 246.944 62.0473 253.856 54.8961C267.781 40.6989 275.996 20.6123 276.296 0Z" fill="#60D09A"/>
<path d="M264.777 0C264.977 8.7287 263.475 17.4574 260.469 25.5551C257.364 33.6528 252.756 41.1195 246.845 47.4294C241.035 53.7393 233.922 58.6821 226.209 62.1525C218.495 65.5178 210.08 67.3056 201.665 67.3056C193.25 67.3056 184.936 65.5178 177.122 62.1525C169.408 58.7872 162.295 53.7393 156.485 47.4294C150.675 41.1195 145.967 33.6528 142.861 25.5551C139.856 17.4574 138.253 8.62353 138.553 0C138.854 17.3522 145.866 34.2838 157.587 46.2726C163.397 52.267 170.31 57.1046 177.823 60.3647C185.336 63.6248 193.451 65.3075 201.665 65.2023C209.78 65.2023 217.894 63.6248 225.507 60.3647C233.021 57.1046 239.933 52.267 245.743 46.2726C257.464 34.2838 264.376 17.3522 264.777 0Z" fill="#60D09A"/>
<path d="M253.157 0C253.357 7.04606 252.155 14.1973 249.65 20.9278C247.146 27.5532 243.339 33.758 238.531 38.9111C229.014 49.3224 215.289 55.2116 201.465 55.2116C187.741 55.2116 174.016 49.2172 164.399 38.9111C159.591 33.758 155.784 27.6584 153.28 20.9278C150.775 14.3024 149.573 7.15122 149.773 0C150.174 14.1973 155.884 27.9739 165.401 37.7542C170.21 42.5918 175.82 46.5881 181.93 49.2172C188.041 51.8464 194.653 53.2135 201.365 53.2135C207.977 53.2135 214.588 51.8464 220.799 49.2172C226.91 46.5881 232.52 42.5918 237.328 37.7542C247.146 27.9739 252.856 14.1973 253.157 0Z" fill="#60D09A"/>
<path d="M241.635 0C241.836 5.46858 240.934 11.0423 239.031 16.3006C237.127 21.4537 234.222 26.2913 230.415 30.2875C226.709 34.2838 222.201 37.5439 217.192 39.7524C212.283 41.9608 206.874 43.0125 201.464 43.1177C196.055 43.1177 190.745 41.9608 185.736 39.7524C180.828 37.5439 176.32 34.389 172.513 30.2875C168.806 26.2913 165.901 21.4537 163.898 16.3006C161.994 11.1475 161.093 5.57375 161.293 0C161.694 11.0423 166.202 21.664 173.615 29.1307C181.028 36.7026 191.146 41.0144 201.364 41.0144C211.582 41.0144 221.8 36.7026 229.113 29.1307C236.727 21.664 241.335 11.0423 241.635 0Z" fill="#60D09A"/>
<path d="M230.116 0C230.317 3.89111 229.716 7.88738 228.413 11.6733C227.111 15.3541 225.007 18.8245 222.302 21.7692C219.698 24.7138 216.392 27.0274 212.886 28.6049C209.38 30.1824 205.473 31.0237 201.666 31.0237C197.759 31.0237 193.952 30.1824 190.446 28.6049C186.94 27.0274 183.634 24.7138 181.029 21.7692C178.325 18.8245 176.321 15.4593 174.919 11.6733C173.616 7.88738 173.015 3.99627 173.215 0C173.616 7.88738 176.922 15.2489 182.131 20.6123C187.341 25.8706 194.553 28.9204 201.766 28.9204C208.979 28.9204 216.092 25.8706 221.401 20.6123C226.41 15.3541 229.716 7.88738 230.116 0Z" fill="#60D09A"/>
<path d="M218.594 0C218.995 4.62726 217.392 9.57001 214.187 13.1456C212.584 14.9334 210.68 16.3006 208.476 17.3522C206.373 18.2987 203.968 18.8245 201.664 18.8245C199.36 18.8245 196.956 18.2987 194.852 17.3522C192.749 16.4057 190.745 14.9334 189.142 13.1456C185.936 9.57001 184.334 4.62726 184.734 0C185.135 4.62726 187.139 8.93902 190.244 11.9888C193.35 15.0386 197.457 16.7212 201.664 16.7212C205.872 16.7212 209.979 15.0386 213.085 11.9888C216.19 8.93902 218.194 4.62726 218.594 0Z" fill="#60D09A"/>
<path d="M-0.994327 342.206C-1.19468 314.443 3.91427 286.679 13.932 261.019C23.9498 235.254 38.8763 211.697 57.6095 191.926C76.2425 172.155 98.7824 156.38 123.226 145.653C147.669 134.926 174.216 129.458 200.763 129.353C227.31 129.353 253.857 134.926 278.3 145.653C302.744 156.38 325.284 172.155 343.917 191.926C362.55 211.697 377.576 235.254 387.594 261.019C397.612 286.785 402.621 314.548 402.52 342.206C402.32 314.443 397.011 286.89 386.692 261.335C376.575 235.779 361.548 212.538 342.815 193.083C324.182 173.627 301.942 157.957 277.599 147.441C253.356 136.924 227.009 131.456 200.763 131.561C174.516 131.561 148.17 136.924 123.927 147.441C99.5838 157.957 77.3444 173.627 58.7114 193.083C40.0784 212.538 25.0517 235.885 14.8336 261.335C4.51536 286.89 -0.793972 314.443 -0.994327 342.206Z" fill="#FE9900"/>
<path d="M10.5255 342.207C10.3252 316.126 15.1337 289.834 24.5504 265.646C33.9671 241.353 48.0921 219.164 65.7233 200.549C83.3545 181.935 104.492 167.002 127.633 156.906C150.674 146.81 175.718 141.657 200.762 141.552C225.807 141.552 250.751 146.81 273.892 156.906C296.933 167.002 318.17 181.83 335.802 200.549C353.433 219.164 367.458 241.459 376.975 265.646C386.391 289.94 391.1 316.126 390.999 342.207C390.799 316.126 385.79 290.045 376.073 266.067C366.456 241.984 352.331 220.005 334.7 201.706C317.069 183.407 296.131 168.684 273.191 158.694C250.35 148.703 225.506 143.655 200.762 143.655C176.019 143.655 151.275 148.703 128.334 158.694C105.394 168.579 84.4565 183.407 66.8252 201.706C49.194 220.005 35.0689 242.089 25.4519 266.067C15.7347 290.045 10.7259 316.021 10.5255 342.207Z" fill="#FE9900"/>
<path d="M22.147 342.206C21.9467 317.703 26.4546 293.094 35.2702 270.273C44.186 247.453 57.4094 226.63 73.9387 209.067C90.468 191.505 110.403 177.518 132.042 168.053C153.78 158.588 177.222 153.646 200.763 153.646C224.305 153.646 247.747 158.588 269.485 168.053C291.224 177.518 311.059 191.505 327.588 209.067C344.117 226.525 357.341 247.453 366.257 270.273C375.072 293.094 379.58 317.703 379.38 342.206C379.179 317.703 374.471 293.199 365.355 270.694C356.339 248.084 343.015 227.471 326.486 210.224C309.957 193.082 290.222 179.201 268.784 169.841C247.246 160.481 224.005 155.749 200.763 155.749C177.522 155.749 154.281 160.481 132.743 169.841C111.205 179.095 91.5699 192.977 75.0406 210.224C58.5114 227.471 45.1878 248.084 36.1719 270.694C27.0557 293.199 22.2472 317.703 22.147 342.206Z" fill="#FE9900"/>
<path d="M33.667 342.207C33.4666 319.281 37.674 296.25 45.8886 274.902C54.2033 253.553 66.5251 233.993 82.0526 217.692C97.48 201.286 116.113 188.246 136.449 179.307C156.785 170.368 178.724 165.846 200.763 165.846C222.802 165.846 244.741 170.473 265.077 179.307C285.413 188.141 304.046 201.286 319.473 217.692C334.901 234.098 347.323 253.658 355.637 274.902C363.952 296.25 368.059 319.281 367.859 342.207C367.659 319.281 363.251 296.355 354.736 275.322C346.321 254.184 333.899 234.939 318.371 218.849C302.944 202.759 284.511 189.823 264.376 181.095C244.24 172.366 222.501 167.949 200.763 167.949C179.024 167.949 157.286 172.366 137.15 181.095C117.015 189.823 98.6822 202.759 83.1547 218.849C67.7274 234.939 55.3053 254.289 46.7902 275.322C38.2751 296.355 33.7672 319.281 33.667 342.207Z" fill="#FE9900"/>
<path d="M45.187 342.207C44.9867 320.858 48.8935 299.405 56.507 279.529C64.2207 259.652 75.7412 241.459 90.1667 226.21C104.592 210.961 121.923 198.762 140.756 190.454C159.69 182.146 180.126 177.939 200.662 177.834C221.099 177.834 241.635 182.146 260.569 190.454C279.502 198.762 296.833 210.856 311.158 226.21C325.584 241.459 337.104 259.652 344.818 279.529C352.531 299.405 356.338 320.858 356.138 342.207C355.938 320.858 351.83 299.51 343.816 279.949C336.002 260.283 324.382 242.3 309.956 227.367C295.53 212.433 278.4 200.339 259.667 192.242C240.934 184.144 220.698 179.937 200.462 180.042C180.226 180.042 159.99 184.144 141.257 192.242C122.524 200.339 105.394 212.433 90.9681 227.367C76.5425 242.3 65.0222 260.283 57.1082 279.949C49.4947 299.51 45.3874 320.858 45.187 342.207Z" fill="#FE9900"/>
<path d="M56.7071 342.207C56.5068 322.436 60.1132 302.559 67.2258 284.156C74.3384 265.752 85.0573 248.925 98.3809 234.728C111.705 220.531 127.733 209.278 145.264 201.601C162.795 193.924 181.729 190.033 200.662 189.928C219.596 189.928 238.629 193.924 256.06 201.601C273.591 209.278 289.62 220.531 302.943 234.728C316.267 248.82 326.886 265.752 334.099 284.156C341.211 302.559 344.717 322.436 344.617 342.207C344.417 322.436 340.61 302.665 333.197 284.576C325.884 266.383 315.165 249.767 301.841 235.885C288.518 222.108 272.69 210.856 255.359 203.389C238.028 195.922 219.295 192.031 200.662 192.031C181.929 192.031 163.196 195.817 145.965 203.389C128.635 210.856 112.806 222.003 99.4829 235.885C86.1593 249.767 75.4403 266.383 68.1274 284.576C60.8144 302.665 56.9075 322.436 56.7071 342.207Z" fill="#FE9900"/>
<path d="M68.2273 342.207C68.027 324.013 71.3328 305.714 77.8444 288.783C84.3559 271.851 94.1733 256.287 106.495 243.352C118.717 230.311 133.543 219.9 149.672 212.854C165.8 205.808 183.231 202.127 200.662 202.127C218.093 202.127 235.624 205.808 251.652 212.854C267.781 219.9 282.507 230.311 294.829 243.352C307.05 256.392 316.868 271.851 323.479 288.783C329.991 305.714 333.297 324.013 333.097 342.207C332.896 324.013 329.39 305.925 322.578 289.204C315.866 272.482 306.049 257.233 293.727 244.508C281.505 231.783 266.879 221.582 250.951 214.642C235.023 207.701 217.792 204.23 200.662 204.23C183.431 204.23 166.201 207.701 150.373 214.642C134.445 221.477 119.919 231.783 107.597 244.508C95.3754 257.233 85.4579 272.482 78.746 289.204C72.0341 305.925 68.5279 324.013 68.2273 342.207Z" fill="#FE9900"/>
<path d="M79.8492 342.207C79.6489 325.591 82.6542 308.87 88.5646 293.41C94.5753 277.951 103.491 263.754 114.711 251.87C125.931 239.987 139.355 230.522 154.081 224.002C168.807 217.586 184.735 214.221 200.663 214.221C216.591 214.221 232.52 217.586 247.246 224.002C261.972 230.417 275.496 239.881 286.616 251.87C297.835 263.754 306.751 277.951 312.762 293.41C318.672 308.87 321.678 325.591 321.477 342.207C321.277 325.591 318.071 309.08 311.86 293.831C305.749 278.582 296.733 264.7 285.514 253.027C274.294 241.459 261.07 232.099 246.545 225.789C232.019 219.479 216.291 216.324 200.663 216.324C184.935 216.324 169.308 219.479 154.782 225.789C140.256 232.099 126.933 241.459 115.813 253.027C104.593 264.595 95.6773 278.582 89.4663 293.831C83.2553 309.08 80.0496 325.591 79.8492 342.207Z" fill="#FE9900"/>
<path d="M91.3698 342.206C91.1694 327.168 93.8742 312.129 99.1836 298.142C104.593 284.155 112.708 271.325 122.825 260.493C132.943 249.661 145.165 241.143 158.489 235.253C171.812 229.364 186.238 226.42 200.663 226.314C215.089 226.314 229.514 229.364 242.838 235.253C256.162 241.038 268.383 249.661 278.501 260.493C288.619 271.22 296.734 284.155 302.143 298.142C307.553 312.129 310.257 327.273 309.957 342.206C309.757 327.168 306.851 312.234 301.242 298.458C295.732 284.681 287.517 272.061 277.399 261.65C267.281 251.239 255.26 242.72 242.137 237.041C229.014 231.362 214.788 228.418 200.663 228.523C186.438 228.523 172.313 231.362 159.19 237.041C146.067 242.72 134.045 251.133 123.927 261.65C113.809 272.166 105.695 284.681 100.085 298.458C94.4752 312.234 91.5701 327.168 91.3698 342.206Z" fill="#FE9900"/>
<path d="M102.89 342.208C102.69 328.747 105.094 315.286 109.903 302.771C114.711 290.256 121.924 278.793 131.04 269.118C140.056 259.443 151.076 251.766 162.997 246.508C174.918 241.249 187.841 238.62 200.764 238.515C213.687 238.515 226.61 241.249 238.531 246.508C250.452 251.766 261.371 259.443 270.487 269.118C279.503 278.793 286.816 290.256 291.625 302.771C296.433 315.286 298.838 328.852 298.637 342.208C298.337 315.286 287.618 288.889 269.486 270.17C260.47 260.81 249.751 253.238 237.93 248.19C226.209 243.142 213.486 240.513 200.864 240.513C188.242 240.513 175.519 243.037 163.798 248.19C152.078 253.238 141.359 260.81 132.243 270.17C113.91 288.889 103.191 315.286 102.89 342.208Z" fill="#FE9900"/>
<path d="M114.41 342.206C114.209 330.323 116.313 318.439 120.52 307.397C124.728 296.354 131.139 286.153 139.153 277.635C147.168 269.116 156.785 262.281 167.303 257.653C177.822 253.026 189.242 250.607 200.662 250.607C212.083 250.607 223.503 253.026 234.021 257.653C244.54 262.281 254.257 269.011 262.171 277.635C270.185 286.153 276.497 296.354 280.804 307.397C285.012 318.439 287.115 330.428 286.915 342.206C286.615 318.439 277.098 295.197 261.069 278.792C253.055 270.589 243.638 263.963 233.32 259.441C223.002 254.919 211.782 252.711 200.662 252.711C189.543 252.711 178.323 254.919 168.005 259.441C157.686 263.858 148.27 270.589 140.255 278.792C124.227 295.197 114.81 318.439 114.41 342.206Z" fill="#FE9900"/>
<path d="M126.031 342.207C125.83 331.901 127.634 321.595 131.24 312.025C134.947 302.455 140.456 293.621 147.369 286.259C154.281 278.793 162.696 273.009 171.812 268.907C180.928 264.911 190.845 262.808 200.763 262.808C210.681 262.808 220.598 264.911 229.714 268.907C238.83 272.903 247.245 278.793 254.158 286.259C261.07 293.621 266.58 302.455 270.286 312.025C273.893 321.595 275.696 332.006 275.496 342.207C275.195 321.7 266.98 301.508 253.056 287.311C246.143 280.265 237.929 274.481 229.013 270.59C220.097 266.699 210.48 264.806 200.763 264.806C191.146 264.806 181.429 266.699 172.513 270.59C163.597 274.376 155.383 280.16 148.47 287.311C134.546 301.508 126.331 321.7 126.031 342.207Z" fill="#FE9900"/>
<path d="M137.551 342.207C137.351 333.478 138.853 324.75 141.859 316.652C144.964 308.554 149.572 301.087 155.483 294.778C161.293 288.468 168.406 283.525 176.119 280.054C183.833 276.689 192.248 274.901 200.663 274.901C209.078 274.901 217.392 276.689 225.206 280.054C232.92 283.42 240.032 288.468 245.843 294.778C251.653 301.087 256.361 308.554 259.467 316.652C262.472 324.75 264.075 333.583 263.775 342.207C263.474 324.855 256.462 307.923 244.741 295.934C238.931 289.94 232.018 285.102 224.505 281.842C216.992 278.582 208.877 276.9 200.663 277.005C192.548 277.005 184.434 278.582 176.821 281.842C169.307 285.102 162.395 289.94 156.585 295.934C144.864 307.923 137.851 324.855 137.551 342.207Z" fill="#FE9900"/>
<path d="M149.072 342.207C148.872 335.161 150.074 328.01 152.578 321.279C155.083 314.654 158.89 308.449 163.698 303.296C173.215 292.885 186.939 286.996 200.764 286.996C214.488 286.996 228.212 292.99 237.829 303.296C242.638 308.449 246.445 314.549 248.949 321.279C251.454 327.905 252.656 335.056 252.455 342.207C252.055 328.01 246.345 314.233 236.828 304.453C232.019 299.615 226.409 295.619 220.298 292.99C214.188 290.361 207.576 288.994 200.864 288.994C194.252 288.994 187.641 290.361 181.43 292.99C175.319 295.619 169.709 299.615 164.9 304.453C155.183 314.233 149.473 328.01 149.072 342.207Z" fill="#FE9900"/>
<path d="M160.592 342.208C160.391 336.739 161.293 331.166 163.196 325.907C165.1 320.754 168.005 315.917 171.812 311.92C175.518 307.924 180.026 304.664 185.035 302.456C189.944 300.247 195.353 299.195 200.763 299.09C206.173 299.09 211.482 300.247 216.491 302.456C221.4 304.664 225.908 307.819 229.714 311.92C233.421 315.917 236.326 320.754 238.33 325.907C240.233 331.06 241.135 336.634 240.934 342.208C240.534 331.166 236.025 320.544 228.612 313.077C221.199 305.505 211.081 301.194 200.863 301.194C190.645 301.194 180.427 305.505 173.114 313.077C165.501 320.544 160.993 331.166 160.592 342.208Z" fill="#FE9900"/>
<path d="M172.214 342.206C172.013 338.315 172.614 334.319 173.917 330.533C175.219 326.852 177.323 323.382 180.027 320.437C182.632 317.492 185.938 315.179 189.444 313.601C192.95 312.024 196.857 311.183 200.664 311.183C204.571 311.183 208.378 312.024 211.884 313.601C215.39 315.179 218.696 317.492 221.3 320.437C224.005 323.382 226.009 326.747 227.411 330.533C228.714 334.319 229.315 338.21 229.114 342.206C228.714 334.319 225.408 326.957 220.199 321.594C214.989 316.336 207.777 313.286 200.564 313.286C193.351 313.286 186.238 316.336 180.929 321.594C175.82 326.957 172.514 334.319 172.214 342.206Z" fill="#FE9900"/>
<path d="M183.732 342.206C183.332 337.579 184.935 332.636 188.14 329.061C189.743 327.273 191.647 325.906 193.85 324.854C195.954 323.908 198.358 323.382 200.662 323.382C202.966 323.382 205.371 323.908 207.475 324.854C209.578 325.801 211.582 327.273 213.185 329.061C216.39 332.636 217.993 337.579 217.592 342.206C217.192 337.579 215.188 333.267 212.083 330.218C208.977 327.168 204.87 325.485 200.662 325.485C196.455 325.485 192.348 327.168 189.242 330.218C186.137 333.267 184.133 337.579 183.732 342.206Z" fill="#FE9900"/>
</g>
<g opacity="0.3">
<path d="M344.23 342.209C344.029 314.446 349.139 286.682 359.156 261.022C369.174 235.257 384.1 211.7 402.834 191.929C421.467 172.158 444.007 156.383 468.45 145.656C492.893 134.929 519.44 129.461 545.987 129.355C572.534 129.355 599.081 134.929 623.525 145.656C647.968 156.383 670.508 172.158 689.141 191.929C707.774 211.7 722.8 235.257 732.818 261.022C742.836 286.788 747.845 314.551 747.745 342.209C747.544 314.446 742.235 286.893 731.917 261.338C721.799 235.782 706.772 212.541 688.039 193.085C669.406 173.63 647.166 157.96 622.823 147.444C598.58 136.927 572.234 131.459 545.987 131.564C519.741 131.564 493.394 136.927 469.151 147.444C444.808 157.96 422.569 173.63 403.936 193.085C385.303 212.541 370.276 235.888 360.058 261.338C349.74 286.788 344.43 314.446 344.23 342.209Z" fill="#60D09A"/>
<path d="M355.851 342.209C355.65 316.129 360.459 289.837 369.875 265.649C379.292 241.356 393.417 219.166 411.048 200.552C428.68 181.938 449.817 167.005 472.958 156.909C495.999 146.813 521.043 141.66 546.088 141.555C571.132 141.555 596.076 146.813 619.217 156.909C642.258 167.005 663.496 181.833 681.127 200.552C698.758 219.166 712.783 241.461 722.3 265.649C731.716 289.942 736.425 316.129 736.325 342.209C736.124 316.129 731.115 290.048 721.398 266.07C711.781 241.987 697.656 220.008 680.025 201.709C662.394 183.41 641.457 168.687 618.516 158.697C595.675 148.706 570.831 143.658 546.088 143.658C521.344 143.658 496.6 148.706 473.659 158.697C450.719 168.582 429.782 183.41 412.15 201.709C394.519 220.008 380.394 242.092 370.777 266.07C361.06 290.048 355.951 316.023 355.851 342.209Z" fill="#60D09A"/>
<path d="M367.372 342.209C367.172 317.706 371.68 293.097 380.495 270.277C389.411 247.456 402.635 226.633 419.164 209.071C435.693 191.508 455.628 177.521 477.267 168.056C499.005 158.591 522.447 153.649 545.988 153.649C569.53 153.649 592.972 158.591 614.71 168.056C636.449 177.521 656.284 191.508 672.813 209.071C689.342 226.528 702.566 247.456 711.482 270.277C720.297 293.097 724.805 317.706 724.605 342.209C724.405 317.706 719.696 293.203 710.58 270.697C701.564 248.087 688.24 227.474 671.711 210.227C655.182 193.085 635.447 179.204 614.009 169.844C592.471 160.484 569.23 155.752 545.988 155.752C522.747 155.752 499.506 160.484 477.968 169.844C456.43 179.099 436.795 192.98 420.266 210.227C403.737 227.474 390.413 248.087 381.397 270.697C372.281 293.203 367.572 317.601 367.372 342.209Z" fill="#60D09A"/>
<path d="M378.891 342.209C378.69 319.283 382.898 296.252 391.112 274.904C399.427 253.555 411.749 233.995 427.277 217.694C442.704 201.288 461.337 188.248 481.673 179.309C502.009 170.37 523.948 165.848 545.987 165.848C568.026 165.848 589.965 170.475 610.301 179.309C630.637 188.143 649.27 201.288 664.697 217.694C680.124 234.1 692.546 253.661 700.861 274.904C709.176 296.252 713.283 319.283 713.083 342.209C712.882 319.283 708.475 296.358 699.96 275.325C691.545 254.186 679.123 234.941 663.595 218.851C648.168 202.761 629.735 189.825 609.599 181.097C589.464 172.368 567.725 167.951 545.987 167.951C524.248 167.951 502.51 172.368 482.374 181.097C462.238 189.825 443.906 202.761 428.378 218.851C412.951 234.941 400.529 254.292 392.014 275.325C383.499 296.358 379.091 319.283 378.891 342.209Z" fill="#60D09A"/>
<path d="M390.411 342.209C390.21 320.861 394.117 299.407 401.731 279.531C409.445 259.655 420.965 241.461 435.39 226.212C449.816 210.964 467.147 198.764 485.98 190.456C504.914 182.148 525.35 177.942 545.886 177.837C566.322 177.837 586.859 182.148 605.792 190.456C624.726 198.764 642.057 210.858 656.382 226.212C670.807 241.461 682.328 259.655 690.042 279.531C697.755 299.407 701.562 320.861 701.362 342.209C701.161 320.861 697.054 299.512 689.04 279.952C681.226 260.286 669.605 242.303 655.18 227.369C640.754 212.436 623.624 200.342 604.891 192.244C586.158 184.146 565.922 179.94 545.686 180.045C525.45 180.045 505.214 184.146 486.481 192.244C467.748 200.342 450.617 212.436 436.192 227.369C421.766 242.303 410.246 260.286 402.332 279.952C394.819 299.512 390.611 320.861 390.411 342.209Z" fill="#60D09A"/>
<path d="M402.033 342.209C401.833 322.438 405.439 302.562 412.552 284.158C419.665 265.755 430.384 248.928 443.707 234.731C457.031 220.534 473.059 209.281 490.59 201.604C508.121 193.927 527.055 190.036 545.988 189.931C564.922 189.931 583.956 193.927 601.386 201.604C618.918 209.281 634.946 220.534 648.269 234.731C661.593 248.823 672.212 265.755 679.425 284.158C686.537 302.562 690.043 322.438 689.943 342.209C689.743 322.438 685.936 302.667 678.523 284.579C671.21 266.386 660.491 249.769 647.168 235.888C633.844 222.111 618.016 210.858 600.685 203.392C583.354 195.925 564.621 192.034 545.988 192.034C527.255 192.034 508.522 195.82 491.291 203.392C473.961 210.858 458.133 222.006 444.809 235.888C431.485 249.769 420.766 266.386 413.453 284.579C406.04 302.667 402.134 322.438 402.033 342.209Z" fill="#60D09A"/>
<path d="M413.552 342.209C413.352 324.016 416.657 305.717 423.169 288.786C429.681 271.854 439.498 256.29 451.82 243.354C464.041 230.314 478.868 219.903 494.996 212.857C511.125 205.81 528.556 202.13 545.987 202.13C563.417 202.13 580.949 205.81 596.977 212.857C613.105 219.903 627.832 230.314 640.153 243.354C652.375 256.395 662.192 271.854 668.804 288.786C675.316 305.717 678.621 324.016 678.421 342.209C678.221 324.016 674.715 305.928 667.902 289.206C661.191 272.485 651.373 257.236 639.051 244.511C626.83 231.786 612.204 221.585 596.276 214.644C580.347 207.703 563.117 204.233 545.987 204.233C528.756 204.233 511.526 207.703 495.698 214.644C479.769 221.48 465.243 231.786 452.922 244.511C440.7 257.236 430.783 272.485 424.071 289.206C417.259 305.928 413.752 324.016 413.552 342.209Z" fill="#60D09A"/>
<path d="M425.074 342.209C424.873 325.593 427.878 308.872 433.789 293.413C439.8 277.954 448.715 263.756 459.935 251.873C471.155 239.989 484.579 230.524 499.305 224.004C514.031 217.589 529.959 214.224 545.888 214.224C561.816 214.224 577.744 217.589 592.47 224.004C607.196 230.419 620.72 239.884 631.84 251.873C643.06 263.756 651.975 277.954 657.986 293.413C663.897 308.872 666.902 325.593 666.702 342.209C666.501 325.593 663.296 309.082 657.085 293.834C650.974 278.585 641.958 264.703 630.738 253.03C619.518 241.461 606.294 232.102 591.769 225.792C577.243 219.482 561.515 216.327 545.888 216.327C530.16 216.327 514.532 219.482 500.006 225.792C485.48 232.102 472.157 241.461 461.037 253.03C449.817 264.598 440.902 278.585 434.691 293.834C428.48 309.082 425.274 325.593 425.074 342.209Z" fill="#60D09A"/>
<path d="M436.593 342.209C436.393 327.171 439.098 312.132 444.407 298.145C449.817 284.158 457.931 271.328 468.049 260.496C478.167 249.664 490.389 241.146 503.712 235.257C517.036 229.367 531.461 226.423 545.887 226.318C560.313 226.318 574.738 229.367 588.062 235.257C601.385 241.041 613.607 249.664 623.725 260.496C633.843 271.223 641.957 284.158 647.367 298.145C652.776 312.132 655.481 327.276 655.181 342.209C654.98 327.171 652.075 312.237 646.465 298.461C640.955 284.684 632.741 272.064 622.623 261.653C612.505 251.242 600.484 242.723 587.36 237.044C574.237 231.366 560.012 228.421 545.887 228.526C531.662 228.526 517.537 231.366 504.413 237.044C491.29 242.723 479.269 251.137 469.151 261.653C459.033 272.17 450.919 284.684 445.309 298.461C439.799 312.237 436.894 327.171 436.593 342.209Z" fill="#60D09A"/>
<path d="M448.214 342.209C448.014 328.748 450.418 315.287 455.227 302.773C460.035 290.258 467.248 278.795 476.364 269.12C485.38 259.445 496.4 251.768 508.321 246.509C520.242 241.251 533.165 238.622 546.088 238.517C559.011 238.517 571.933 241.251 583.855 246.509C595.776 251.768 606.695 259.445 615.811 269.12C624.827 278.795 632.14 290.258 636.949 302.773C641.757 315.287 644.161 328.854 643.961 342.209C643.661 315.287 632.941 288.891 614.809 270.171C605.793 260.812 595.074 253.24 583.253 248.192C571.533 243.144 558.81 240.515 546.188 240.515C533.565 240.515 520.843 243.039 509.122 248.192C497.401 253.24 486.682 260.812 477.566 270.171C459.134 288.891 448.515 315.287 448.214 342.209Z" fill="#60D09A"/>
<path d="M459.735 342.209C459.535 330.326 461.639 318.442 465.846 307.4C470.054 296.358 476.465 286.157 484.479 277.638C492.493 269.12 502.11 262.284 512.629 257.657C523.148 253.03 534.568 250.611 545.988 250.611C557.408 250.611 568.829 253.03 579.347 257.657C589.866 262.284 599.583 269.015 607.497 277.638C615.511 286.157 621.822 296.358 626.13 307.4C630.337 318.442 632.441 330.431 632.241 342.209C631.94 318.442 622.424 295.201 606.395 278.795C598.381 270.592 588.964 263.967 578.646 259.445C568.328 254.923 557.108 252.714 545.988 252.714C534.868 252.714 523.649 254.923 513.33 259.445C503.012 263.862 493.595 270.592 485.581 278.795C469.452 295.201 460.036 318.442 459.735 342.209Z" fill="#60D09A"/>
<path d="M471.255 342.209C471.054 331.903 472.857 321.597 476.464 312.027C480.17 302.457 485.68 293.623 492.592 286.262C499.505 278.795 507.92 273.011 517.036 268.909C526.152 264.913 536.069 262.81 545.987 262.81C555.905 262.81 565.822 264.913 574.938 268.909C584.054 272.906 592.469 278.795 599.382 286.262C606.294 293.623 611.804 302.457 615.51 312.027C619.117 321.597 620.92 332.008 620.719 342.209C620.419 321.702 612.204 301.511 598.28 287.313C591.367 280.267 583.153 274.483 574.237 270.592C565.321 266.701 555.704 264.808 545.987 264.808C536.37 264.808 526.653 266.701 517.737 270.592C508.821 274.378 500.607 280.162 493.694 287.313C479.77 301.511 471.555 321.597 471.255 342.209Z" fill="#60D09A"/>
<path d="M482.774 342.209C482.573 333.481 484.076 324.752 487.081 316.654C490.187 308.557 494.795 301.09 500.706 294.78C506.516 288.47 513.628 283.527 521.342 280.057C529.056 276.692 537.471 274.904 545.886 274.904C554.3 274.904 562.615 276.692 570.429 280.057C578.143 283.422 585.255 288.47 591.066 294.78C596.876 301.09 601.584 308.557 604.69 316.654C607.695 324.752 609.298 333.586 608.997 342.209C608.697 324.857 601.684 307.926 589.964 295.937C584.153 289.942 577.241 285.105 569.728 281.845C562.214 278.585 554.1 276.902 545.886 277.007C537.771 277.007 529.657 278.585 522.043 281.845C514.53 285.105 507.618 289.942 501.807 295.937C490.087 307.926 483.174 324.857 482.774 342.209Z" fill="#60D09A"/>
<path d="M494.396 342.209C494.196 335.163 495.398 328.012 497.902 321.282C500.407 314.656 504.214 308.452 509.022 303.298C518.539 292.887 532.263 286.998 546.088 286.998C559.812 286.998 573.536 292.992 583.153 303.298C587.962 308.452 591.769 314.551 594.273 321.282C596.778 327.907 597.98 335.058 597.779 342.209C597.379 328.012 591.668 314.236 582.152 304.455C577.343 299.618 571.733 295.621 565.622 292.992C559.512 290.363 552.9 288.996 546.188 288.996C539.576 288.996 532.965 290.363 526.754 292.992C520.643 295.621 515.033 299.618 510.224 304.455C500.407 314.236 494.697 328.012 494.396 342.209Z" fill="#60D09A"/>
<path d="M505.917 342.209C505.717 336.741 506.619 331.167 508.522 325.909C510.425 320.756 513.331 315.918 517.137 311.922C520.844 307.926 525.352 304.666 530.361 302.457C535.269 300.249 540.679 299.197 546.089 299.092C551.498 299.092 556.808 300.249 561.817 302.457C566.725 304.666 571.233 307.82 575.04 311.922C578.746 315.918 581.652 320.756 583.655 325.909C585.558 331.062 586.46 336.636 586.26 342.209C585.859 331.167 581.351 320.545 573.938 313.079C566.525 305.507 556.407 301.195 546.189 301.195C535.971 301.195 525.753 305.507 518.44 313.079C510.826 320.545 506.218 331.167 505.917 342.209Z" fill="#60D09A"/>
<path d="M517.436 342.209C517.236 338.318 517.837 334.322 519.139 330.536C520.442 326.855 522.545 323.385 525.25 320.44C527.855 317.496 531.161 315.182 534.667 313.605C538.173 312.027 542.08 311.186 545.887 311.186C549.794 311.186 553.6 312.027 557.107 313.605C560.613 315.182 563.919 317.496 566.523 320.44C569.228 323.385 571.232 326.75 572.634 330.536C573.936 334.322 574.538 338.213 574.337 342.209C573.937 334.322 570.631 326.961 565.421 321.597C560.212 316.339 552.999 313.289 545.787 313.289C538.574 313.289 531.461 316.339 526.152 321.597C521.143 326.855 517.837 334.322 517.436 342.209Z" fill="#60D09A"/>
<path d="M528.956 342.209C528.556 337.582 530.159 332.639 533.364 329.064C534.967 327.276 536.87 325.909 539.074 324.857C541.178 323.911 543.582 323.385 545.886 323.385C548.19 323.385 550.595 323.911 552.698 324.857C554.802 325.804 556.806 327.276 558.409 329.064C561.614 332.639 563.217 337.582 562.816 342.209C562.416 337.582 560.412 333.27 557.307 330.221C554.201 327.171 550.094 325.488 545.886 325.488C541.679 325.488 537.572 327.171 534.466 330.221C531.361 333.27 529.357 337.582 528.956 342.209Z" fill="#60D09A"/>
<path d="M748.545 0.00151062C748.745 27.7651 743.637 55.5286 733.619 81.1889C723.601 106.954 708.674 130.511 689.941 150.282C671.308 170.053 648.768 185.828 624.325 196.555C599.882 207.282 573.335 212.75 546.788 212.855C520.241 212.855 493.694 207.282 469.25 196.555C444.807 185.828 422.267 170.053 403.634 150.282C385.001 130.511 369.975 106.954 359.957 81.1889C349.939 55.4235 344.93 27.6599 345.03 0.00151062C345.231 27.7651 350.54 55.3183 360.858 80.8734C370.976 106.429 386.003 129.67 404.736 149.125C423.369 168.581 445.608 184.251 469.952 194.767C494.195 205.284 520.541 210.752 546.788 210.647C573.034 210.647 599.381 205.284 623.624 194.767C647.967 184.251 670.206 168.581 688.839 149.125C707.472 129.67 722.499 106.323 732.717 80.8734C743.035 55.3183 748.345 27.7651 748.545 0.00151062Z" fill="#FE9900"/>
<path d="M737.025 0.000930786C737.226 26.0818 732.417 52.3731 723 76.5611C713.584 100.854 699.459 123.044 681.827 141.658C664.196 160.272 643.059 175.206 619.918 185.302C596.877 195.398 571.833 200.551 546.788 200.656C521.744 200.656 496.8 195.398 473.659 185.302C450.618 175.206 429.38 160.378 411.749 141.658C394.118 123.044 380.093 100.749 370.576 76.5611C361.159 52.268 356.451 26.0818 356.551 0.000930786C356.752 26.0818 361.761 52.1628 371.478 76.1404C381.095 100.223 395.22 122.203 412.851 140.501C430.482 158.8 451.419 173.523 474.36 183.514C497.2 193.505 522.045 198.552 546.788 198.552C571.532 198.552 596.276 193.505 619.217 183.514C642.157 173.628 663.094 158.8 680.726 140.501C698.357 122.203 712.482 100.118 722.099 76.1404C731.816 52.1628 736.825 26.187 737.025 0.000930786Z" fill="#FE9900"/>
<path d="M725.404 0.00062561C725.604 24.5041 721.096 49.1127 712.281 71.9335C703.365 94.7543 690.141 115.577 673.612 133.14C657.083 150.702 637.147 164.689 615.509 174.154C593.771 183.619 570.329 188.562 546.787 188.562C523.246 188.562 499.804 183.619 478.066 174.154C456.327 164.689 436.492 150.702 419.963 133.14C403.433 115.682 390.21 94.7543 381.294 71.9335C372.479 49.1127 367.971 24.5041 368.171 0.00062561C368.371 24.5041 373.08 49.0075 382.196 71.5128C391.212 94.1233 404.535 114.736 421.065 131.983C437.594 149.125 457.329 163.006 478.767 172.366C500.305 181.726 523.546 186.458 546.787 186.458C570.029 186.458 593.27 181.726 614.808 172.366C636.346 163.112 655.981 149.23 672.51 131.983C689.039 114.736 702.363 94.1233 711.379 71.5128C720.495 49.0075 725.304 24.5041 725.404 0.00062561Z" fill="#FE9900"/>
<path d="M713.884 0.00154114C714.084 22.9275 709.877 45.9586 701.662 67.3071C693.347 88.6556 681.026 108.216 665.498 124.517C650.071 140.923 631.438 153.963 611.102 162.902C590.766 171.841 568.827 176.363 546.788 176.363C524.749 176.363 502.81 171.736 482.474 162.902C462.138 154.068 443.505 140.923 428.078 124.517C412.65 108.111 400.228 88.5505 391.913 67.3071C383.599 45.9586 379.491 22.9275 379.692 0.00154114C379.892 22.9275 384.3 45.8535 392.815 66.8865C401.23 88.0247 413.652 107.27 429.18 123.36C444.607 139.45 463.04 152.386 483.175 161.114C503.311 169.843 525.049 174.26 546.788 174.26C568.526 174.26 590.265 169.843 610.401 161.114C630.536 152.386 648.869 139.45 664.396 123.36C679.823 107.27 692.245 87.9195 700.761 66.8865C709.276 45.8535 713.784 22.9275 713.884 0.00154114Z" fill="#FE9900"/>
<path d="M702.364 9.15527e-05C702.564 21.3486 698.657 42.8023 691.044 62.6785C683.33 82.5546 671.81 100.748 657.384 115.997C642.958 131.246 625.628 143.445 606.794 151.753C587.861 160.061 567.425 164.268 546.888 164.373C526.452 164.373 505.916 160.061 486.982 151.753C468.049 143.445 450.718 131.351 436.393 115.997C421.967 100.748 410.447 82.5546 402.733 62.6785C395.019 42.8023 391.213 21.3486 391.413 9.15527e-05C391.613 21.3486 395.721 42.6971 403.735 62.2578C411.549 81.9237 423.169 99.9069 437.595 114.84C452.02 129.774 469.151 141.868 487.884 149.965C506.617 158.063 526.853 162.27 547.089 162.165C567.325 162.165 587.56 158.063 606.294 149.965C625.027 141.868 642.157 129.774 656.583 114.84C671.008 99.9069 682.529 81.9237 690.443 62.2578C698.056 42.6971 702.163 21.3486 702.364 9.15527e-05Z" fill="#FE9900"/>
<path d="M690.844 0.00234985C691.044 19.7734 687.438 39.6496 680.325 58.0534C673.212 76.4573 662.493 93.2837 649.17 107.481C635.846 121.678 619.818 132.931 602.287 140.608C584.756 148.285 565.822 152.176 546.889 152.281C527.955 152.281 508.921 148.285 491.491 140.608C473.959 132.931 457.931 121.678 444.608 107.481C431.284 93.3889 420.665 76.4573 413.452 58.0534C406.34 39.6496 402.833 19.7734 402.934 0.00234985C403.134 19.7734 406.941 39.5444 414.354 57.6328C421.667 75.8263 432.386 92.4424 445.709 106.324C459.033 120.101 474.861 131.353 492.192 138.82C509.523 146.287 528.256 150.178 546.889 150.178C565.622 150.178 584.355 146.392 601.586 138.82C618.916 131.353 634.744 120.206 648.068 106.324C661.392 92.4424 672.11 75.8263 679.423 57.6328C686.736 39.5444 690.643 19.7734 690.844 0.00234985Z" fill="#FE9900"/>
<path d="M679.323 0.000305176C679.524 18.1939 676.218 36.4926 669.706 53.4241C663.195 70.3557 653.378 85.9201 641.056 98.8554C628.834 111.896 614.008 122.307 597.879 129.353C581.751 136.399 564.32 140.08 546.889 140.08C529.458 140.08 511.927 136.399 495.899 129.353C479.77 122.307 465.044 111.896 452.722 98.8554C440.5 85.8149 430.683 70.3557 424.071 53.4241C417.56 36.4926 414.254 18.1939 414.454 0.000305176C414.655 18.1939 418.161 36.2823 424.973 53.0035C431.685 69.7247 441.502 84.9736 453.824 97.6986C466.046 110.424 480.672 120.625 496.6 127.565C512.528 134.506 529.759 137.977 546.889 137.977C564.119 137.977 581.35 134.506 597.178 127.565C613.106 120.73 627.632 110.424 639.954 97.6986C652.175 84.9736 662.093 69.7247 668.805 53.0035C675.517 36.2823 679.023 18.1939 679.323 0.000305176Z" fill="#FE9900"/>
<path d="M667.702 0.000534058C667.902 16.6166 664.897 33.3379 658.986 48.7971C652.975 64.2564 644.06 78.4536 632.84 90.3373C621.62 102.221 608.196 111.686 593.47 118.206C578.744 124.621 562.816 127.986 546.888 127.986C530.959 127.986 515.031 124.621 500.305 118.206C485.579 111.791 472.055 102.326 460.935 90.3373C449.715 78.4536 440.8 64.2564 434.789 48.7971C428.878 33.3379 425.873 16.6166 426.074 0.000534058C426.274 16.6166 429.48 33.1275 435.691 48.3764C441.801 63.6253 450.817 77.5071 462.037 89.1805C473.257 100.749 486.48 110.108 501.006 116.418C515.532 122.728 531.26 125.883 546.888 125.883C562.615 125.883 578.243 122.728 592.769 116.418C607.294 110.108 620.618 100.749 631.738 89.1805C642.958 77.6123 651.874 63.6253 658.085 48.3764C664.296 33.1275 667.501 16.6166 667.702 0.000534058Z" fill="#FE9900"/>
<path d="M656.181 0.000244141C656.381 15.0388 653.677 30.0775 648.367 44.0644C642.958 58.0513 634.843 70.8815 624.725 81.7135C614.607 92.5455 602.386 101.064 589.062 106.953C575.739 112.842 561.313 115.787 546.887 115.892C532.462 115.892 518.036 112.842 504.713 106.953C491.389 101.169 479.167 92.5455 469.049 81.7135C458.932 70.9866 450.817 58.0513 445.408 44.0644C439.998 30.0775 437.293 14.9337 437.594 0.000244141C437.794 15.0388 440.699 29.9723 446.309 43.7489C451.819 57.5255 460.034 70.1453 470.152 80.5566C480.269 90.968 492.291 99.4863 505.414 105.165C518.537 110.844 532.762 113.789 546.887 113.684C561.113 113.684 575.238 110.844 588.361 105.165C601.484 99.4863 613.505 91.0731 623.623 80.5566C633.741 70.0401 641.856 57.5255 647.466 43.7489C653.076 29.9723 655.981 15.0388 656.181 0.000244141Z" fill="#FE9900"/>
<path d="M644.662 0.000656128C644.863 13.4618 642.458 26.9229 637.65 39.4375C632.841 51.9522 625.629 63.4152 616.512 73.0903C607.496 82.7655 596.477 90.4426 584.556 95.7008C572.635 100.959 559.712 103.588 546.789 103.693C533.866 103.693 520.943 100.959 509.022 95.7008C497.101 90.4426 486.181 82.7655 477.065 73.0903C468.049 63.4152 460.736 51.9522 455.928 39.4375C451.119 26.9229 448.715 13.3566 448.915 0.000656128C449.216 26.9229 459.935 53.3193 478.067 72.0387C487.083 81.3984 497.802 88.9703 509.623 94.0182C521.344 99.0661 534.066 101.695 546.689 101.695C559.311 101.695 572.034 99.1713 583.754 94.0182C595.475 88.9703 606.194 81.3984 615.31 72.0387C633.643 53.3193 644.362 26.9229 644.662 0.000656128Z" fill="#FE9900"/>
<path d="M633.141 0.0018692C633.342 11.8855 631.238 23.7692 627.03 34.8115C622.823 45.8538 616.412 56.0548 608.397 64.5732C600.383 73.0916 590.766 79.9273 580.247 84.5546C569.729 89.1818 558.309 91.6006 546.888 91.6006C535.468 91.6006 524.048 89.1818 513.529 84.5546C503.011 79.9273 493.293 73.1967 485.379 64.5732C477.365 56.0548 471.054 45.8538 466.746 34.8115C462.539 23.7692 460.435 11.7803 460.636 0.0018692C460.936 23.7692 470.453 47.0106 486.481 63.4164C494.496 71.6193 503.912 78.2446 514.231 82.7667C524.549 87.2888 535.769 89.4973 546.888 89.4973C558.008 89.4973 569.228 87.2888 579.546 82.7667C589.865 78.3498 599.281 71.6193 607.295 63.4164C623.324 47.0106 632.741 23.7692 633.141 0.0018692Z" fill="#FE9900"/>
<path d="M621.52 0.000831604C621.72 10.307 619.917 20.6132 616.311 30.1832C612.604 39.7532 607.095 48.5871 600.182 55.9486C593.27 63.4153 584.855 69.1994 575.739 73.3008C566.623 77.2971 556.705 79.4004 546.788 79.4004C536.87 79.4004 526.953 77.2971 517.836 73.3008C508.72 69.3046 500.305 63.4153 493.393 55.9486C486.481 48.5871 480.971 39.7532 477.265 30.1832C473.658 20.6132 471.855 10.2018 472.055 0.000831604C472.356 20.508 480.57 40.6997 494.495 54.897C501.407 61.943 509.622 67.7271 518.538 71.6182C527.453 75.5093 537.071 77.4023 546.788 77.4023C556.405 77.4023 566.122 75.5093 575.038 71.6182C583.954 67.8322 592.168 62.0482 599.08 54.897C613.005 40.6997 621.22 20.508 621.52 0.000831604Z" fill="#FE9900"/>
<path d="M610 0.00202942C610.2 8.73072 608.698 17.4594 605.692 25.5571C602.587 33.6548 597.979 41.1215 592.068 47.4314C586.258 53.7413 579.145 58.6841 571.432 62.1545C563.718 65.5198 555.303 67.3076 546.888 67.3076C538.473 67.3076 530.158 65.5198 522.345 62.1545C514.631 58.7893 507.518 53.7413 501.708 47.4314C495.898 41.1215 491.189 33.6548 488.084 25.5571C485.078 17.4594 483.476 8.62556 483.776 0.00202942C484.077 17.3543 491.089 34.2858 502.81 46.2746C508.62 52.269 515.532 57.1066 523.046 60.3668C530.559 63.6269 538.674 65.3095 546.888 65.2043C555.002 65.2043 563.117 63.6269 570.73 60.3668C578.244 57.1066 585.156 52.269 590.966 46.2746C602.687 34.2858 609.699 17.3543 610 0.00202942Z" fill="#FE9900"/>
<path d="M598.48 0.00125504C598.681 7.04731 597.479 14.1986 594.974 20.9291C592.47 27.5545 588.663 33.7592 583.855 38.9123C574.338 49.3236 560.613 55.2129 546.789 55.2129C533.065 55.2129 519.34 49.2185 509.723 38.9123C504.915 33.7592 501.108 27.6597 498.603 20.9291C496.099 14.3037 494.897 7.15248 495.097 0.00125504C495.498 14.1985 501.208 27.9752 510.725 37.7555C515.534 42.5931 521.143 46.5894 527.254 49.2185C533.365 51.8476 539.977 53.2148 546.689 53.2148C553.3 53.2148 559.912 51.8476 566.123 49.2185C572.234 46.5894 577.844 42.5931 582.652 37.7555C592.37 27.9752 598.08 14.1985 598.48 0.00125504Z" fill="#FE9900"/>
<path d="M586.959 0.000511169C587.159 5.46909 586.258 11.0428 584.354 16.3011C582.451 21.4542 579.546 26.2918 575.739 30.2881C572.032 34.2843 567.524 37.5444 562.516 39.7529C557.607 41.9614 552.197 43.013 546.788 43.1182C541.378 43.1182 536.069 41.9614 531.06 39.7529C526.151 37.5444 521.643 34.3895 517.836 30.2881C514.13 26.2918 511.225 21.4542 509.221 16.3011C507.318 11.148 506.416 5.57426 506.617 0.000511169C507.017 11.0428 511.525 21.6645 518.938 29.1312C526.352 36.7031 536.469 41.0149 546.688 41.0149C556.906 41.0149 567.124 36.7031 574.437 29.1312C582.05 21.6645 586.558 11.0428 586.959 0.000511169Z" fill="#FE9900"/>
<path d="M575.339 0.00123215C575.54 3.89234 574.938 7.88861 573.636 11.6746C572.334 15.3553 570.23 18.8258 567.525 21.7704C564.921 24.715 561.615 27.0286 558.109 28.6061C554.602 30.1836 550.696 31.0249 546.889 31.0249C542.982 31.0249 539.175 30.1836 535.669 28.6061C532.163 27.0286 528.857 24.715 526.252 21.7704C523.547 18.8258 521.544 15.4605 520.141 11.6746C518.839 7.88861 518.238 3.9975 518.438 0.00123215C518.839 7.88861 522.145 15.2502 527.354 20.6136C532.563 25.8718 539.776 28.9216 546.989 28.9216C554.202 28.9216 561.314 25.8718 566.624 20.6136C571.733 15.2502 575.039 7.88861 575.339 0.00123215Z" fill="#FE9900"/>
<path d="M563.818 0.00111008C564.219 4.62837 562.616 9.57113 559.411 13.1467C557.808 14.9346 555.904 16.3017 553.7 17.3533C551.597 18.2998 549.192 18.8257 546.888 18.8257C544.584 18.8257 542.18 18.2998 540.076 17.3533C537.973 16.4069 535.969 14.9346 534.366 13.1467C531.16 9.57113 529.558 4.62837 529.958 0.00111008C530.359 4.62837 532.363 8.94017 535.468 11.99C538.574 15.0397 542.681 16.7224 546.888 16.7224C551.096 16.7224 555.203 15.0397 558.309 11.99C561.414 8.94017 563.418 4.62837 563.818 0.00111008Z" fill="#FE9900"/>
</g>
<g opacity="0.3">
<path d="M1093.77 0C1093.97 27.7636 1088.86 55.5271 1078.84 81.1874C1068.83 106.953 1053.9 130.51 1035.17 150.281C1016.53 170.052 993.993 185.827 969.55 196.553C945.107 207.28 918.56 212.749 892.013 212.854C865.466 212.854 838.919 207.28 814.475 196.553C790.032 185.827 767.492 170.052 748.859 150.281C730.226 130.51 715.2 106.953 705.182 81.1874C695.164 55.4219 690.155 27.6584 690.255 0C690.456 27.7636 695.765 55.3168 706.083 80.8719C716.201 106.427 731.228 129.668 749.961 149.124C768.594 168.579 790.834 184.249 815.177 194.766C839.42 205.282 865.766 210.751 892.013 210.645C918.259 210.645 944.606 205.282 968.849 194.766C993.192 184.249 1015.43 168.579 1034.06 149.124C1052.7 129.668 1067.72 106.322 1077.94 80.8719C1088.26 55.4219 1093.57 27.7636 1093.77 0Z" fill="#60D09A"/>
<path d="M1082.15 0C1082.35 26.0809 1077.54 52.3722 1068.12 76.5601C1058.71 100.853 1044.58 123.043 1026.95 141.657C1009.32 160.271 988.183 175.205 965.042 185.301C942.001 195.397 916.957 200.55 891.912 200.655C866.868 200.655 841.924 195.397 818.783 185.301C795.742 175.205 774.504 160.377 756.873 141.657C739.242 123.043 725.217 100.748 715.7 76.5601C706.284 52.267 701.575 26.0809 701.675 0C701.876 26.0809 706.885 52.1618 716.602 76.1395C726.219 100.222 740.344 122.202 757.975 140.5C775.606 158.799 796.543 173.522 819.484 183.513C842.325 193.504 867.169 198.552 891.912 198.552C916.656 198.552 941.4 193.504 964.341 183.513C987.281 173.627 1008.22 158.799 1025.85 140.5C1043.48 122.202 1057.61 100.117 1067.22 76.1395C1076.94 52.1618 1082.05 26.1861 1082.15 0Z" fill="#60D09A"/>
<path d="M1070.63 0C1070.83 24.5034 1066.32 49.112 1057.5 71.9329C1048.59 94.7537 1035.37 115.576 1018.84 133.139C1002.31 150.701 982.372 164.688 960.733 174.153C938.995 183.618 915.553 188.561 892.012 188.561C868.47 188.561 845.028 183.618 823.29 174.153C801.551 164.688 781.716 150.701 765.187 133.139C748.658 115.681 735.434 94.7537 726.518 71.9329C717.703 49.112 713.195 24.5034 713.395 0C713.595 24.5034 718.304 49.0069 727.42 71.5122C736.436 94.1227 749.76 114.735 766.289 131.982C782.818 149.124 802.553 163.006 823.991 172.365C845.529 181.725 868.77 186.458 892.012 186.458C915.253 186.458 938.494 181.725 960.032 172.365C981.57 163.111 1001.2 149.229 1017.73 131.982C1034.26 114.735 1047.59 94.1227 1056.6 71.5122C1065.72 49.0069 1070.43 24.6086 1070.63 0Z" fill="#60D09A"/>
<path d="M1059.11 0C1059.31 22.926 1055.1 45.9571 1046.89 67.3056C1038.57 88.6541 1026.25 108.215 1010.72 124.515C995.296 140.921 976.663 153.962 956.327 162.901C935.991 171.84 914.052 176.362 892.013 176.362C869.974 176.362 848.035 171.734 827.699 162.901C807.363 154.067 788.73 140.921 773.303 124.515C757.876 108.11 745.454 88.5489 737.139 67.3056C728.824 45.9571 724.717 22.926 724.917 0C725.118 22.926 729.525 45.8519 738.04 66.8849C746.455 88.0231 758.877 107.268 774.405 123.359C789.832 139.449 808.265 152.384 828.4 161.113C848.536 169.841 870.275 174.258 892.013 174.258C913.752 174.258 935.49 169.841 955.626 161.113C975.762 152.384 994.094 139.449 1009.62 123.359C1025.05 107.268 1037.47 87.9179 1045.99 66.8849C1054.5 45.8519 1058.91 22.926 1059.11 0Z" fill="#60D09A"/>
<path d="M1047.59 0C1047.79 21.3485 1043.88 42.8021 1036.27 62.6783C1028.56 82.5545 1017.04 100.748 1002.61 115.997C988.184 131.246 970.853 143.445 952.02 151.753C933.086 160.061 912.65 164.268 892.114 164.373C871.678 164.373 851.141 160.061 832.208 151.753C813.274 143.445 795.943 131.351 781.618 115.997C767.193 100.748 755.672 82.5545 747.958 62.6783C740.245 42.8021 736.438 21.3485 736.638 0C736.839 21.3485 740.946 42.697 748.96 62.2577C756.774 81.9235 768.395 99.9067 782.82 114.84C797.246 129.774 814.376 141.868 833.109 149.965C851.842 158.063 872.078 162.27 892.314 162.164C912.55 162.164 932.786 158.063 951.519 149.965C970.252 141.868 987.383 129.774 1001.81 114.84C1016.23 99.9067 1027.75 81.9235 1035.67 62.2577C1043.18 42.697 1047.39 21.3485 1047.59 0Z" fill="#60D09A"/>
<path d="M1035.97 0C1036.17 19.771 1032.56 39.6472 1025.45 58.0511C1018.34 76.4549 1007.62 93.2813 994.293 107.479C980.969 121.676 964.941 132.929 947.41 140.606C929.879 148.283 910.945 152.174 892.012 152.279C873.078 152.279 854.044 148.283 836.614 140.606C819.082 132.929 803.054 121.676 789.731 107.479C776.407 93.3865 765.788 76.4549 758.575 58.0511C751.463 39.6472 747.957 19.771 748.057 0C748.257 19.771 752.064 39.542 759.477 57.6304C766.79 75.8239 777.509 92.44 790.832 106.322C804.156 120.098 819.984 131.351 837.315 138.818C854.646 146.284 873.379 150.176 892.012 150.176C910.745 150.176 929.478 146.39 946.709 138.818C964.039 131.351 979.867 120.204 993.191 106.322C1006.51 92.44 1017.23 75.8239 1024.55 57.6304C1031.96 39.542 1035.87 19.771 1035.97 0Z" fill="#60D09A"/>
<path d="M1024.45 0C1024.65 18.1935 1021.34 36.4922 1014.83 53.4238C1008.32 70.3554 998.502 85.9198 986.18 98.8551C973.959 111.896 959.132 122.307 943.004 129.353C926.875 136.399 909.444 140.08 892.013 140.08C874.583 140.08 857.052 136.399 841.023 129.353C824.895 122.307 810.168 111.896 797.847 98.8551C785.625 85.8146 775.808 70.3554 769.196 53.4238C762.684 36.4922 759.379 18.1935 759.579 0C759.779 18.1935 763.285 36.2819 770.098 53.0031C776.809 69.7244 786.627 84.9733 798.949 97.6982C811.17 110.423 825.796 120.624 841.724 127.565C857.653 134.506 874.883 137.976 892.013 137.976C909.244 137.976 926.474 134.506 942.303 127.565C958.231 120.729 972.757 110.423 985.078 97.6982C997.3 84.9733 1007.22 69.7244 1013.93 53.0031C1020.74 36.2819 1024.25 18.1935 1024.45 0Z" fill="#60D09A"/>
<path d="M1012.93 0C1013.13 16.6161 1010.12 33.3373 1004.21 48.7966C998.2 64.2558 989.285 78.4531 978.065 90.3367C966.845 102.22 953.421 111.685 938.695 118.205C923.969 124.621 908.041 127.986 892.112 127.986C876.184 127.986 860.256 124.621 845.53 118.205C830.804 111.79 817.28 102.326 806.16 90.3367C794.94 78.4531 786.025 64.2558 780.014 48.7966C774.103 33.3373 771.098 16.6161 771.298 0C771.499 16.6161 774.704 33.127 780.915 48.3759C787.026 63.6248 796.042 77.5066 807.262 89.1799C818.482 100.748 831.706 110.108 846.231 116.418C860.757 122.728 876.485 125.883 892.112 125.883C907.84 125.883 923.468 122.728 937.994 116.418C952.52 110.108 965.843 100.748 976.963 89.1799C988.183 77.6118 997.098 63.6248 1003.31 48.3759C1009.52 33.127 1012.73 16.6161 1012.93 0Z" fill="#60D09A"/>
<path d="M1001.41 0C1001.61 15.0386 998.902 30.0772 993.593 44.0641C988.183 58.0511 980.069 70.8812 969.951 81.7132C959.833 92.5452 947.611 101.064 934.288 106.953C920.964 112.842 906.539 115.787 892.113 115.892C877.687 115.892 863.262 112.842 849.938 106.953C836.615 101.169 824.393 92.5452 814.275 81.7132C804.157 70.9864 796.043 58.0511 790.633 44.0641C785.224 30.0772 782.519 14.9334 782.819 0C783.02 15.0386 785.925 29.972 791.535 43.7486C797.045 57.5252 805.259 70.1451 815.377 80.5564C825.495 90.9677 837.516 99.4861 850.64 105.165C863.763 110.844 877.988 113.789 892.113 113.683C906.338 113.683 920.463 110.844 933.587 105.165C946.71 99.4861 958.731 91.0729 968.849 80.5564C978.967 70.0399 987.081 57.5252 992.691 43.7486C998.201 29.972 1001.11 15.0386 1001.41 0Z" fill="#60D09A"/>
<path d="M989.786 0C989.986 13.4611 987.582 26.9222 982.773 39.4369C977.965 51.9515 970.752 63.4145 961.636 73.0897C952.62 82.7649 941.6 90.4419 929.679 95.7002C917.758 100.958 904.835 103.588 891.912 103.693C878.989 103.693 866.066 100.958 854.145 95.7002C842.224 90.4419 831.305 82.7649 822.189 73.0897C813.173 63.4145 805.86 51.9515 801.051 39.4369C796.243 26.9222 793.839 13.356 794.039 0C794.339 26.9222 805.059 53.3187 823.191 72.038C832.207 81.3977 842.926 88.9696 854.747 94.0175C866.467 99.0654 879.19 101.695 891.812 101.695C904.435 101.695 917.157 99.1706 928.878 94.0175C940.599 88.9696 951.318 81.3977 960.434 72.038C978.866 53.3187 989.485 26.9222 989.786 0Z" fill="#60D09A"/>
<path d="M978.265 0C978.465 11.8836 976.361 23.7673 972.154 34.8096C967.946 45.8519 961.535 56.0529 953.521 64.5713C945.507 73.0897 935.89 79.9254 925.371 84.5527C914.852 89.1799 903.432 91.5987 892.012 91.5987C880.592 91.5987 869.171 89.1799 858.653 84.5527C848.134 79.9254 838.417 73.1948 830.503 64.5713C822.489 56.0529 816.178 45.8519 811.87 34.8096C807.663 23.7673 805.559 11.7785 805.759 0C806.06 23.7673 815.576 47.0088 831.605 63.4145C839.619 71.6174 849.036 78.2428 859.354 82.7649C869.672 87.287 880.892 89.4954 892.012 89.4954C903.132 89.4954 914.351 87.287 924.67 82.7649C934.988 78.3479 944.405 71.6174 952.419 63.4145C968.548 47.0088 977.964 23.7673 978.265 0Z" fill="#60D09A"/>
<path d="M966.745 0C966.946 10.3062 965.143 20.6123 961.536 30.1824C957.83 39.7524 952.32 48.5862 945.408 55.9478C938.495 63.4145 930.08 69.1986 920.964 73.3C911.848 77.2963 901.931 79.3996 892.013 79.3996C882.095 79.3996 872.178 77.2963 863.062 73.3C853.946 69.3037 845.531 63.4145 838.618 55.9478C831.706 48.5862 826.196 39.7524 822.49 30.1824C818.883 20.6123 817.08 10.201 817.281 0C817.581 20.5072 825.796 40.6989 839.72 54.8961C846.633 61.9422 854.847 67.7262 863.763 71.6174C872.679 75.5085 882.296 77.4014 892.013 77.4014C901.63 77.4014 911.347 75.5085 920.263 71.6174C929.179 67.8314 937.393 62.0473 944.306 54.8961C958.23 40.6989 966.445 20.6123 966.745 0Z" fill="#60D09A"/>
<path d="M955.226 0C955.427 8.7287 953.924 17.4574 950.919 25.5551C947.813 33.6528 943.205 41.1195 937.294 47.4294C931.484 53.7393 924.372 58.6821 916.658 62.1525C908.944 65.5178 900.529 67.3056 892.114 67.3056C883.7 67.3056 875.385 65.5178 867.571 62.1525C859.857 58.7872 852.745 53.7393 846.934 47.4294C841.124 41.1195 836.416 33.6528 833.31 25.5551C830.305 17.4574 828.702 8.62353 829.003 0C829.303 17.3522 836.316 34.2838 848.036 46.2726C853.847 52.267 860.759 57.1046 868.272 60.3647C875.786 63.6248 883.9 65.3075 892.114 65.2023C900.229 65.2023 908.343 63.6248 915.957 60.3647C923.47 57.1046 930.382 52.267 936.193 46.2726C947.913 34.2838 954.826 17.3522 955.226 0Z" fill="#60D09A"/>
<path d="M943.604 0C943.804 7.04606 942.602 14.1973 940.098 20.9278C937.593 27.5532 933.786 33.758 928.978 38.9111C919.461 49.3224 905.737 55.2116 891.912 55.2116C878.188 55.2116 864.464 49.2172 854.847 38.9111C850.038 33.758 846.231 27.6584 843.727 20.9278C841.222 14.3024 840.02 7.15122 840.221 0C840.621 14.1973 846.332 27.9739 855.848 37.7542C860.657 42.5918 866.267 46.5881 872.378 49.2172C878.488 51.8464 885.1 53.2135 891.812 53.2135C898.424 53.2135 905.035 51.8464 911.246 49.2172C917.357 46.5881 922.967 42.5918 927.776 37.7542C937.593 27.9739 943.303 14.1973 943.604 0Z" fill="#60D09A"/>
<path d="M932.083 0C932.283 5.46858 931.381 11.0423 929.478 16.3006C927.575 21.4537 924.669 26.2913 920.863 30.2875C917.156 34.2838 912.648 37.5439 907.639 39.7524C902.731 41.9608 897.321 43.0125 891.911 43.1177C886.502 43.1177 881.192 41.9608 876.183 39.7524C871.275 37.5439 866.767 34.389 862.96 30.2875C859.254 26.2913 856.348 21.4537 854.345 16.3006C852.442 11.1475 851.54 5.57375 851.74 0C852.141 11.0423 856.649 21.664 864.062 29.1307C871.475 36.7026 881.593 41.0144 891.811 41.0144C902.029 41.0144 912.247 36.7026 919.56 29.1307C927.174 21.664 931.782 11.0423 932.083 0Z" fill="#60D09A"/>
<path d="M920.564 0C920.764 3.89111 920.163 7.88738 918.861 11.6733C917.558 15.3541 915.455 18.8245 912.75 21.7692C910.145 24.7138 906.839 27.0274 903.333 28.6049C899.827 30.1824 895.92 31.0237 892.113 31.0237C888.206 31.0237 884.4 30.1824 880.893 28.6049C877.387 27.0274 874.081 24.7138 871.477 21.7692C868.772 18.8245 866.768 15.4593 865.366 11.6733C864.064 7.88738 863.462 3.99627 863.663 0C864.063 7.88738 867.369 15.2489 872.579 20.6123C877.788 25.8706 885.001 28.9204 892.213 28.9204C899.426 28.9204 906.539 25.8706 911.848 20.6123C916.857 15.3541 920.163 7.88738 920.564 0Z" fill="#60D09A"/>
<path d="M909.044 0C909.444 4.62726 907.841 9.57001 904.636 13.1456C903.033 14.9334 901.13 16.3006 898.926 17.3522C896.822 18.2987 894.418 18.8245 892.114 18.8245C889.81 18.8245 887.405 18.2987 885.302 17.3522C883.198 16.4057 881.194 14.9334 879.591 13.1456C876.386 9.57001 874.783 4.62726 875.184 0C875.584 4.62726 877.588 8.93902 880.693 11.9888C883.799 15.0386 887.906 16.7212 892.114 16.7212C896.321 16.7212 900.428 15.0386 903.534 11.9888C906.639 8.93902 908.643 4.62726 909.044 0Z" fill="#60D09A"/>
<path d="M689.455 342.206C689.255 314.443 694.363 286.679 704.381 261.019C714.399 235.254 729.326 211.697 748.059 191.926C766.692 172.155 789.232 156.38 813.675 145.653C838.118 134.926 864.665 129.458 891.212 129.353C917.759 129.353 944.306 134.926 968.75 145.653C993.193 156.38 1015.73 172.155 1034.37 191.926C1053 211.697 1068.03 235.254 1078.04 261.019C1088.06 286.785 1093.07 314.548 1092.97 342.206C1092.77 314.443 1087.46 286.89 1077.14 261.335C1067.02 235.779 1052 212.538 1033.26 193.083C1014.63 173.627 992.392 157.957 968.048 147.441C943.805 136.924 917.459 131.456 891.212 131.561C864.966 131.561 838.619 136.924 814.376 147.441C790.033 157.957 767.794 173.627 749.161 193.083C730.528 212.538 715.501 235.885 705.283 261.335C694.965 286.89 689.655 314.443 689.455 342.206Z" fill="#FE9900"/>
<path d="M700.975 342.207C700.774 316.126 705.583 289.834 715 265.646C724.416 241.353 738.541 219.164 756.173 200.549C773.804 181.935 794.941 167.002 818.082 156.906C841.123 146.81 866.167 141.657 891.212 141.552C916.256 141.552 941.2 146.81 964.341 156.906C987.382 167.002 1008.62 181.83 1026.25 200.549C1043.88 219.164 1057.91 241.459 1067.42 265.646C1076.84 289.94 1081.55 316.126 1081.45 342.207C1081.25 316.126 1076.24 290.045 1066.52 266.067C1056.91 241.984 1042.78 220.005 1025.15 201.706C1007.52 183.407 986.581 168.684 963.64 158.694C940.8 148.703 915.955 143.655 891.212 143.655C866.468 143.655 841.724 148.703 818.783 158.694C795.843 168.579 774.906 183.407 757.274 201.706C739.643 220.005 725.518 242.089 715.901 266.067C706.184 290.045 701.175 316.021 700.975 342.207Z" fill="#FE9900"/>
<path d="M712.596 342.206C712.396 317.703 716.904 293.094 725.719 270.273C734.635 247.453 747.859 226.63 764.388 209.067C780.917 191.505 800.853 177.518 822.491 168.053C844.229 158.588 867.671 153.646 891.213 153.646C914.754 153.646 938.196 158.588 959.934 168.053C981.673 177.518 1001.51 191.505 1018.04 209.067C1034.57 226.525 1047.79 247.453 1056.71 270.273C1065.52 293.094 1070.03 317.703 1069.83 342.206C1069.63 317.703 1064.92 293.199 1055.8 270.694C1046.79 248.084 1033.46 227.471 1016.94 210.224C1000.41 193.082 980.671 179.201 959.233 169.841C937.695 160.481 914.454 155.749 891.213 155.749C867.971 155.749 844.73 160.481 823.192 169.841C801.654 179.095 782.019 192.977 765.49 210.224C748.961 227.471 735.637 248.084 726.621 270.694C717.505 293.199 712.696 317.703 712.596 342.206Z" fill="#FE9900"/>
<path d="M724.116 342.207C723.916 319.281 728.123 296.25 736.338 274.902C744.653 253.553 756.974 233.993 772.502 217.692C787.929 201.286 806.562 188.246 826.898 179.307C847.234 170.368 869.173 165.846 891.212 165.846C913.251 165.846 935.19 170.473 955.526 179.307C975.862 188.141 994.495 201.286 1009.92 217.692C1025.35 234.098 1037.77 253.658 1046.09 274.902C1054.4 296.25 1058.51 319.281 1058.31 342.207C1058.11 319.281 1053.7 296.355 1045.18 275.322C1036.77 254.184 1024.35 234.939 1008.82 218.849C993.393 202.759 974.961 189.823 954.825 181.095C934.689 172.366 912.951 167.949 891.212 167.949C869.474 167.949 847.735 172.366 827.599 181.095C807.464 189.823 789.131 202.759 773.604 218.849C758.177 234.939 745.755 254.289 737.239 275.322C728.724 296.355 724.216 319.281 724.116 342.207Z" fill="#FE9900"/>
<path d="M735.636 342.207C735.436 320.858 739.343 299.405 746.956 279.529C754.67 259.652 766.19 241.459 780.616 226.21C795.042 210.961 812.372 198.762 831.206 190.454C850.139 182.146 870.575 177.939 891.112 177.834C911.548 177.834 932.084 182.146 951.018 190.454C969.951 198.762 987.282 210.856 1001.61 226.21C1016.03 241.459 1027.55 259.652 1035.27 279.529C1042.98 299.405 1046.79 320.858 1046.59 342.207C1046.39 320.858 1042.28 299.51 1034.27 279.949C1026.45 260.283 1014.83 242.3 1000.41 227.367C985.98 212.433 968.849 200.339 950.116 192.242C931.383 184.144 911.147 179.937 890.911 180.042C870.675 180.042 850.44 184.144 831.706 192.242C812.973 200.339 795.843 212.433 781.417 227.367C766.992 242.3 755.471 260.283 747.557 279.949C739.944 299.51 735.837 320.858 735.636 342.207Z" fill="#FE9900"/>
<path d="M747.156 342.207C746.956 322.436 750.562 302.559 757.675 284.156C764.788 265.752 775.507 248.925 788.83 234.728C802.154 220.531 818.182 209.278 835.713 201.601C853.244 193.924 872.178 190.033 891.111 189.928C910.045 189.928 929.079 193.924 946.509 201.601C964.041 209.278 980.069 220.531 993.392 234.728C1006.72 248.82 1017.33 265.752 1024.55 284.156C1031.66 302.559 1035.17 322.436 1035.07 342.207C1034.87 322.436 1031.06 302.665 1023.65 284.576C1016.33 266.383 1005.61 249.767 992.291 235.885C978.967 222.108 963.139 210.856 945.808 203.389C928.477 195.922 909.744 192.031 891.111 192.031C872.378 192.031 853.645 195.817 836.414 203.389C819.084 210.856 803.256 222.003 789.932 235.885C776.608 249.767 765.89 266.383 758.577 284.576C751.264 302.665 747.357 322.436 747.156 342.207Z" fill="#FE9900"/>
<path d="M758.677 342.207C758.476 324.013 761.782 305.714 768.294 288.783C774.805 271.851 784.622 256.287 796.944 243.352C809.166 230.311 823.992 219.9 840.121 212.854C856.249 205.808 873.68 202.127 891.111 202.127C908.542 202.127 926.073 205.808 942.101 212.854C958.23 219.9 972.956 230.311 985.278 243.352C997.5 256.392 1007.32 271.851 1013.93 288.783C1020.44 305.714 1023.75 324.013 1023.55 342.207C1023.35 324.013 1019.84 305.925 1013.03 289.204C1006.32 272.482 996.498 257.233 984.176 244.508C971.954 231.783 957.328 221.582 941.4 214.642C925.472 207.701 908.241 204.23 891.111 204.23C873.881 204.23 856.65 207.701 840.822 214.642C824.894 221.477 810.368 231.783 798.046 244.508C785.825 257.233 775.907 272.482 769.195 289.204C762.483 305.925 758.977 324.013 758.677 342.207Z" fill="#FE9900"/>
<path d="M770.298 342.207C770.098 325.591 773.103 308.87 779.014 293.41C785.025 277.951 793.94 263.754 805.16 251.87C816.38 239.987 829.804 230.522 844.53 224.002C859.256 217.586 875.184 214.221 891.112 214.221C907.041 214.221 922.969 217.586 937.695 224.002C952.421 230.417 965.945 239.881 977.065 251.87C988.285 263.754 997.2 277.951 1003.21 293.41C1009.12 308.87 1012.13 325.591 1011.93 342.207C1011.73 325.591 1008.52 309.08 1002.31 293.831C996.199 278.582 987.183 264.7 975.963 253.027C964.743 241.459 951.52 232.099 936.994 225.789C922.468 219.479 906.74 216.324 891.112 216.324C875.385 216.324 859.757 219.479 845.231 225.789C830.706 232.099 817.382 241.459 806.262 253.027C795.042 264.595 786.126 278.582 779.915 293.831C773.704 309.08 770.499 325.591 770.298 342.207Z" fill="#FE9900"/>
<path d="M781.819 342.206C781.619 327.168 784.323 312.129 789.633 298.142C795.042 284.155 803.157 271.325 813.275 260.493C823.393 249.661 835.614 241.143 848.938 235.253C862.261 229.364 876.687 226.42 891.113 226.314C905.538 226.314 919.964 229.364 933.287 235.253C946.611 241.038 958.833 249.661 968.951 260.493C979.068 271.22 987.183 284.155 992.592 298.142C998.002 312.129 1000.71 327.273 1000.41 342.206C1000.21 327.168 997.301 312.234 991.691 298.458C986.181 284.681 977.966 272.061 967.848 261.65C957.731 251.239 945.709 242.72 932.586 237.041C919.463 231.362 905.238 228.418 891.113 228.523C876.887 228.523 862.762 231.362 849.639 237.041C836.516 242.72 824.495 251.133 814.377 261.65C804.259 272.166 796.144 284.681 790.534 298.458C784.924 312.234 782.019 327.168 781.819 342.206Z" fill="#FE9900"/>
<path d="M793.338 342.208C793.137 328.747 795.542 315.286 800.35 302.771C805.159 290.256 812.371 278.793 821.488 269.118C830.504 259.443 841.523 251.766 853.444 246.508C865.365 241.249 878.288 238.62 891.211 238.515C904.134 238.515 917.057 241.249 928.978 246.508C940.899 251.766 951.819 259.443 960.935 269.118C969.951 278.793 977.264 290.256 982.072 302.771C986.881 315.286 989.285 328.852 989.084 342.208C988.784 315.286 978.065 288.889 959.933 270.17C950.917 260.81 940.198 253.238 928.377 248.19C916.656 243.142 903.934 240.513 891.311 240.513C878.689 240.513 865.966 243.037 854.246 248.19C842.525 253.238 831.806 260.81 822.69 270.17C804.357 288.889 793.638 315.286 793.338 342.208Z" fill="#FE9900"/>
<path d="M804.859 342.206C804.658 330.323 806.762 318.439 810.97 307.397C815.177 296.354 821.588 286.153 829.603 277.635C837.617 269.116 847.234 262.281 857.753 257.653C868.271 253.026 879.691 250.607 891.112 250.607C902.532 250.607 913.952 253.026 924.471 257.653C934.989 262.281 944.706 269.011 952.621 277.635C960.635 286.153 966.946 296.354 971.253 307.397C975.461 318.439 977.565 330.428 977.364 342.206C977.064 318.439 967.547 295.197 951.519 278.792C943.504 270.589 934.088 263.963 923.769 259.441C913.451 254.919 902.231 252.711 891.112 252.711C879.992 252.711 868.772 254.919 858.454 259.441C848.135 263.858 838.719 270.589 830.705 278.792C814.676 295.197 805.259 318.439 804.859 342.206Z" fill="#FE9900"/>
<path d="M816.48 342.207C816.28 331.901 818.083 321.595 821.689 312.025C825.396 302.455 830.905 293.621 837.818 286.259C844.73 278.793 853.145 273.009 862.261 268.907C871.377 264.911 881.295 262.808 891.212 262.808C901.13 262.808 911.047 264.911 920.164 268.907C929.28 272.903 937.695 278.793 944.607 286.259C951.519 293.621 957.029 302.455 960.735 312.025C964.342 321.595 966.145 332.006 965.945 342.207C965.644 321.7 957.43 301.508 943.505 287.311C936.593 280.265 928.378 274.481 919.462 270.59C910.547 266.699 900.929 264.806 891.212 264.806C881.595 264.806 871.878 266.699 862.962 270.59C854.046 274.376 845.832 280.16 838.92 287.311C824.995 301.508 816.78 321.7 816.48 342.207Z" fill="#FE9900"/>
<path d="M828 342.207C827.8 333.478 829.302 324.75 832.308 316.652C835.413 308.554 840.021 301.087 845.932 294.778C851.742 288.468 858.855 283.525 866.568 280.054C874.282 276.689 882.697 274.901 891.112 274.901C899.527 274.901 907.842 276.689 915.655 280.054C923.369 283.42 930.482 288.468 936.292 294.778C942.102 301.087 946.811 308.554 949.916 316.652C952.922 324.75 954.524 333.583 954.224 342.207C953.923 324.855 946.911 307.923 935.19 295.934C929.38 289.94 922.468 285.102 914.954 281.842C907.441 278.582 899.326 276.9 891.112 277.005C882.998 277.005 874.883 278.582 867.27 281.842C859.756 285.102 852.844 289.94 847.034 295.934C835.313 307.923 828.301 324.855 828 342.207Z" fill="#FE9900"/>
<path d="M839.52 342.207C839.319 335.161 840.521 328.01 843.026 321.279C845.53 314.654 849.337 308.449 854.145 303.296C863.662 292.885 877.387 286.996 891.211 286.996C904.935 286.996 918.66 292.99 928.277 303.296C933.085 308.449 936.892 314.549 939.397 321.279C941.901 327.905 943.103 335.056 942.903 342.207C942.502 328.01 936.792 314.233 927.275 304.453C922.466 299.615 916.857 295.619 910.746 292.99C904.635 290.361 898.023 288.994 891.311 288.994C884.7 288.994 878.088 290.361 871.877 292.99C865.766 295.619 860.156 299.615 855.348 304.453C845.63 314.233 839.92 328.01 839.52 342.207Z" fill="#FE9900"/>
<path d="M851.041 342.208C850.841 336.739 851.742 331.166 853.646 325.907C855.549 320.754 858.454 315.917 862.261 311.92C865.968 307.924 870.476 304.664 875.484 302.456C880.393 300.247 885.803 299.195 891.212 299.09C896.622 299.09 901.931 300.247 906.94 302.456C911.849 304.664 916.357 307.819 920.163 311.92C923.87 315.917 926.775 320.754 928.779 325.907C930.682 331.06 931.584 336.634 931.383 342.208C930.983 331.166 926.475 320.544 919.062 313.077C911.648 305.505 901.531 301.194 891.312 301.194C881.094 301.194 870.876 305.505 863.563 313.077C855.95 320.544 851.442 331.166 851.041 342.208Z" fill="#FE9900"/>
<path d="M862.661 342.206C862.46 338.315 863.062 334.319 864.364 330.533C865.666 326.852 867.77 323.382 870.475 320.437C873.079 317.492 876.385 315.179 879.891 313.601C883.398 312.024 887.304 311.183 891.111 311.183C895.018 311.183 898.825 312.024 902.331 313.601C905.837 315.179 909.143 317.492 911.748 320.437C914.453 323.382 916.456 326.747 917.859 330.533C919.161 334.319 919.762 338.21 919.562 342.206C919.161 334.319 915.855 326.957 910.646 321.594C905.437 316.336 898.224 313.286 891.011 313.286C883.798 313.286 876.686 316.336 871.376 321.594C866.267 326.957 862.961 334.319 862.661 342.206Z" fill="#FE9900"/>
<path d="M874.182 342.206C873.781 337.579 875.384 332.636 878.589 329.061C880.192 327.273 882.096 325.906 884.3 324.854C886.403 323.908 888.808 323.382 891.112 323.382C893.416 323.382 895.82 323.908 897.924 324.854C900.027 325.801 902.031 327.273 903.634 329.061C906.84 332.636 908.442 337.579 908.042 342.206C907.641 337.579 905.637 333.267 902.532 330.218C899.426 327.168 895.319 325.485 891.112 325.485C886.904 325.485 882.797 327.168 879.691 330.218C876.586 333.267 874.582 337.579 874.182 342.206Z" fill="#FE9900"/>
</g>
<g opacity="0.3">
<path d="M1034.68 342.209C1034.48 314.446 1039.59 286.682 1049.61 261.022C1059.62 235.257 1074.55 211.7 1093.28 191.929C1111.92 172.158 1134.46 156.383 1158.9 145.656C1183.34 134.929 1209.89 129.461 1236.44 129.355C1262.98 129.355 1289.53 134.929 1313.97 145.656C1338.42 156.383 1360.96 172.158 1379.59 191.929C1398.22 211.7 1413.25 235.257 1423.27 261.022C1433.29 286.788 1438.29 314.551 1438.19 342.209C1437.99 314.446 1432.68 286.893 1422.37 261.338C1412.25 235.782 1397.22 212.541 1378.49 193.085C1359.86 173.63 1337.62 157.96 1313.27 147.444C1289.03 136.927 1262.68 131.459 1236.44 131.564C1210.19 131.564 1183.84 136.927 1159.6 147.444C1135.26 157.96 1113.02 173.63 1094.38 193.085C1075.75 212.541 1060.73 235.888 1050.51 261.338C1040.19 286.788 1034.88 314.446 1034.68 342.209Z" fill="#60D09A"/>
<path d="M1046.3 342.209C1046.1 316.129 1050.9 289.837 1060.32 265.649C1069.74 241.356 1083.86 219.166 1101.49 200.552C1119.13 181.938 1140.26 167.005 1163.4 156.909C1186.44 146.813 1211.49 141.66 1236.53 141.555C1261.58 141.555 1286.52 146.813 1309.66 156.909C1332.7 167.005 1353.94 181.833 1371.57 200.552C1389.2 219.166 1403.23 241.461 1412.75 265.649C1422.16 289.942 1426.87 316.129 1426.77 342.209C1426.57 316.129 1421.56 290.048 1411.84 266.07C1402.23 241.987 1388.1 220.008 1370.47 201.709C1352.84 183.41 1331.9 168.687 1308.96 158.697C1286.12 148.706 1261.28 143.658 1236.53 143.658C1211.79 143.658 1187.05 148.706 1164.1 158.697C1141.16 168.582 1120.23 183.41 1102.6 201.709C1084.96 220.008 1070.84 242.092 1061.22 266.07C1051.51 290.048 1046.4 316.023 1046.3 342.209Z" fill="#60D09A"/>
<path d="M1057.82 342.209C1057.62 317.706 1062.13 293.097 1070.94 270.277C1079.86 247.456 1093.08 226.633 1109.61 209.071C1126.14 191.508 1146.07 177.521 1167.71 168.056C1189.45 158.591 1212.89 153.649 1236.43 153.649C1259.98 153.649 1283.42 158.591 1305.16 168.056C1326.89 177.521 1346.73 191.508 1363.26 209.071C1379.79 226.528 1393.01 247.456 1401.93 270.277C1410.74 293.097 1415.25 317.706 1415.05 342.209C1414.85 317.706 1410.14 293.203 1401.03 270.697C1392.01 248.087 1378.69 227.474 1362.16 210.227C1345.63 193.085 1325.89 179.204 1304.45 169.844C1282.92 160.484 1259.67 155.752 1236.43 155.752C1213.19 155.752 1189.95 160.484 1168.41 169.844C1146.88 179.099 1127.24 192.98 1110.71 210.227C1094.18 227.474 1080.86 248.087 1071.84 270.697C1062.73 293.203 1058.02 317.601 1057.82 342.209Z" fill="#60D09A"/>
<path d="M1069.34 342.209C1069.14 319.283 1073.35 296.252 1081.56 274.904C1089.88 253.555 1102.2 233.995 1117.73 217.694C1133.15 201.288 1151.79 188.248 1172.12 179.309C1192.46 170.37 1214.4 165.848 1236.44 165.848C1258.48 165.848 1280.41 170.475 1300.75 179.309C1321.09 188.143 1339.72 201.288 1355.15 217.694C1370.57 234.1 1383 253.661 1391.31 274.904C1399.63 296.252 1403.73 319.283 1403.53 342.209C1403.33 319.283 1398.92 296.358 1390.41 275.325C1381.99 254.186 1369.57 234.941 1354.04 218.851C1338.62 202.761 1320.18 189.825 1300.05 181.097C1279.91 172.368 1258.17 167.951 1236.44 167.951C1214.7 167.951 1192.96 172.368 1172.82 181.097C1152.69 189.825 1134.36 202.761 1118.83 218.851C1103.4 234.941 1090.98 254.292 1082.46 275.325C1073.95 296.358 1069.54 319.283 1069.34 342.209Z" fill="#60D09A"/>
<path d="M1080.86 342.209C1080.66 320.861 1084.56 299.407 1092.18 279.531C1099.89 259.655 1111.41 241.461 1125.84 226.212C1140.26 210.964 1157.59 198.764 1176.43 190.456C1195.36 182.148 1215.8 177.942 1236.33 177.837C1256.77 177.837 1277.31 182.148 1296.24 190.456C1315.17 198.764 1332.5 210.858 1346.83 226.212C1361.25 241.461 1372.78 259.655 1380.49 279.531C1388.2 299.407 1392.01 320.861 1391.81 342.209C1391.61 320.861 1387.5 299.512 1379.49 279.952C1371.67 260.286 1360.05 242.303 1345.63 227.369C1331.2 212.436 1314.07 200.342 1295.34 192.244C1276.6 184.146 1256.37 179.94 1236.13 180.045C1215.9 180.045 1195.66 184.146 1176.93 192.244C1158.2 200.342 1141.06 212.436 1126.64 227.369C1112.21 242.303 1100.69 260.286 1092.78 279.952C1085.27 299.512 1081.06 320.861 1080.86 342.209Z" fill="#60D09A"/>
<path d="M1092.48 342.209C1092.28 322.438 1095.89 302.562 1103 284.158C1110.11 265.755 1120.83 248.928 1134.15 234.731C1147.48 220.534 1163.51 209.281 1181.04 201.604C1198.57 193.927 1217.5 190.036 1236.44 189.931C1255.37 189.931 1274.4 193.927 1291.83 201.604C1309.36 209.281 1325.39 220.534 1338.72 234.731C1352.04 248.823 1362.66 265.755 1369.87 284.158C1376.98 302.562 1380.49 322.438 1380.39 342.209C1380.19 322.438 1376.38 302.667 1368.97 284.579C1361.66 266.386 1350.94 249.769 1337.61 235.888C1324.29 222.111 1308.46 210.858 1291.13 203.392C1273.8 195.925 1255.07 192.034 1236.44 192.034C1217.7 192.034 1198.97 195.82 1181.74 203.392C1164.41 210.858 1148.58 222.006 1135.26 235.888C1121.93 249.769 1111.21 266.386 1103.9 284.579C1096.49 302.667 1092.58 322.438 1092.48 342.209Z" fill="#60D09A"/>
<path d="M1104 342.209C1103.8 324.016 1107.1 305.717 1113.62 288.786C1120.13 271.854 1129.95 256.29 1142.27 243.354C1154.49 230.314 1169.31 219.903 1185.44 212.857C1201.57 205.81 1219 202.13 1236.43 202.13C1253.86 202.13 1271.4 205.81 1287.42 212.857C1303.55 219.903 1318.28 230.314 1330.6 243.354C1342.82 256.395 1352.64 271.854 1359.25 288.786C1365.76 305.717 1369.07 324.016 1368.87 342.209C1368.67 324.016 1365.16 305.928 1358.35 289.206C1351.64 272.485 1341.82 257.236 1329.5 244.511C1317.28 231.786 1302.65 221.585 1286.72 214.644C1270.79 207.703 1253.56 204.233 1236.43 204.233C1219.2 204.233 1201.97 207.703 1186.14 214.644C1170.22 221.48 1155.69 231.786 1143.37 244.511C1131.15 257.236 1121.23 272.485 1114.52 289.206C1107.71 305.928 1104.2 324.016 1104 342.209Z" fill="#60D09A"/>
<path d="M1115.52 342.209C1115.32 325.593 1118.32 308.872 1124.23 293.413C1130.24 277.954 1139.16 263.756 1150.38 251.873C1161.6 239.989 1175.02 230.524 1189.75 224.004C1204.48 217.589 1220.4 214.224 1236.33 214.224C1252.26 214.224 1268.19 217.589 1282.92 224.004C1297.64 230.419 1311.17 239.884 1322.29 251.873C1333.5 263.756 1342.42 277.954 1348.43 293.413C1354.34 308.872 1357.35 325.593 1357.15 342.209C1356.95 325.593 1353.74 309.082 1347.53 293.834C1341.42 278.585 1332.4 264.703 1321.18 253.03C1309.96 241.461 1296.74 232.102 1282.21 225.792C1267.69 219.482 1251.96 216.327 1236.33 216.327C1220.61 216.327 1204.98 219.482 1190.45 225.792C1175.93 232.102 1162.6 241.461 1151.48 253.03C1140.26 264.598 1131.35 278.585 1125.14 293.834C1118.92 309.082 1115.72 325.593 1115.52 342.209Z" fill="#60D09A"/>
<path d="M1127.04 342.209C1126.84 327.171 1129.55 312.132 1134.86 298.145C1140.27 284.158 1148.38 271.328 1158.5 260.496C1168.62 249.664 1180.84 241.146 1194.16 235.257C1207.49 229.367 1221.91 226.423 1236.34 226.318C1250.76 226.318 1265.19 229.367 1278.51 235.257C1291.83 241.041 1304.06 249.664 1314.17 260.496C1324.29 271.223 1332.41 284.158 1337.82 298.145C1343.23 312.132 1345.93 327.276 1345.63 342.209C1345.43 327.171 1342.52 312.237 1336.91 298.461C1331.4 284.684 1323.19 272.064 1313.07 261.653C1302.95 251.242 1290.93 242.723 1277.81 237.044C1264.69 231.366 1250.46 228.421 1236.34 228.526C1222.11 228.526 1207.99 231.366 1194.86 237.044C1181.74 242.723 1169.72 251.137 1159.6 261.653C1149.48 272.17 1141.37 284.684 1135.76 298.461C1130.25 312.237 1127.34 327.171 1127.04 342.209Z" fill="#60D09A"/>
<path d="M1138.66 342.209C1138.46 328.748 1140.87 315.287 1145.68 302.773C1150.48 290.258 1157.7 278.795 1166.81 269.12C1175.83 259.445 1186.85 251.768 1198.77 246.509C1210.69 241.251 1223.61 238.622 1236.54 238.517C1249.46 238.517 1262.38 241.251 1274.3 246.509C1286.22 251.768 1297.14 259.445 1306.26 269.12C1315.28 278.795 1322.59 290.258 1327.4 302.773C1332.21 315.287 1334.61 328.854 1334.41 342.209C1334.11 315.287 1323.39 288.891 1305.26 270.171C1296.24 260.812 1285.52 253.24 1273.7 248.192C1261.98 243.144 1249.26 240.515 1236.64 240.515C1224.01 240.515 1211.29 243.039 1199.57 248.192C1187.85 253.24 1177.13 260.812 1168.02 270.171C1149.58 288.891 1138.96 315.287 1138.66 342.209Z" fill="#60D09A"/>
<path d="M1150.18 342.209C1149.98 330.326 1152.09 318.442 1156.29 307.4C1160.5 296.358 1166.91 286.157 1174.93 277.638C1182.94 269.12 1192.56 262.284 1203.08 257.657C1213.59 253.03 1225.02 250.611 1236.44 250.611C1247.86 250.611 1259.28 253.03 1269.79 257.657C1280.31 262.284 1290.03 269.015 1297.94 277.638C1305.96 286.157 1312.27 296.358 1316.58 307.4C1320.78 318.442 1322.89 330.431 1322.69 342.209C1322.39 318.442 1312.87 295.201 1296.84 278.795C1288.83 270.592 1279.41 263.967 1269.09 259.445C1258.77 254.923 1247.56 252.714 1236.44 252.714C1225.32 252.714 1214.1 254.923 1203.78 259.445C1193.46 263.862 1184.04 270.592 1176.03 278.795C1159.9 295.201 1150.48 318.442 1150.18 342.209Z" fill="#60D09A"/>
<path d="M1161.7 342.209C1161.5 331.903 1163.31 321.597 1166.91 312.027C1170.62 302.457 1176.13 293.623 1183.04 286.262C1189.95 278.795 1198.37 273.011 1207.48 268.909C1216.6 264.913 1226.52 262.81 1236.44 262.81C1246.35 262.81 1256.27 264.913 1265.39 268.909C1274.5 272.906 1282.92 278.795 1289.83 286.262C1296.74 293.623 1302.25 302.457 1305.96 312.027C1309.57 321.597 1311.37 332.008 1311.17 342.209C1310.87 321.702 1302.65 301.511 1288.73 287.313C1281.82 280.267 1273.6 274.483 1264.69 270.592C1255.77 266.701 1246.15 264.808 1236.44 264.808C1226.82 264.808 1217.1 266.701 1208.19 270.592C1199.27 274.378 1191.06 280.162 1184.14 287.313C1170.22 301.511 1162 321.597 1161.7 342.209Z" fill="#60D09A"/>
<path d="M1173.22 342.209C1173.02 333.481 1174.53 324.752 1177.53 316.654C1180.64 308.557 1185.24 301.09 1191.15 294.78C1196.97 288.47 1204.08 283.527 1211.79 280.057C1219.51 276.692 1227.92 274.904 1236.33 274.904C1244.75 274.904 1253.06 276.692 1260.88 280.057C1268.59 283.422 1275.7 288.47 1281.51 294.78C1287.33 301.09 1292.03 308.557 1295.14 316.654C1298.14 324.752 1299.75 333.586 1299.45 342.209C1299.15 324.857 1292.13 307.926 1280.41 295.937C1274.6 289.942 1267.69 285.105 1260.18 281.845C1252.66 278.585 1244.55 276.902 1236.33 277.007C1228.22 277.007 1220.11 278.585 1212.49 281.845C1204.98 285.105 1198.07 289.942 1192.26 295.937C1180.54 307.926 1173.62 324.857 1173.22 342.209Z" fill="#60D09A"/>
<path d="M1184.84 342.209C1184.64 335.163 1185.85 328.012 1188.35 321.282C1190.85 314.656 1194.66 308.452 1199.47 303.298C1208.99 292.887 1222.71 286.998 1236.53 286.998C1250.26 286.998 1263.98 292.992 1273.6 303.298C1278.41 308.452 1282.22 314.551 1284.72 321.282C1287.22 327.907 1288.43 335.058 1288.23 342.209C1287.83 328.012 1282.12 314.236 1272.6 304.455C1267.79 299.618 1262.18 295.621 1256.07 292.992C1249.96 290.363 1243.35 288.996 1236.64 288.996C1230.02 288.996 1223.41 290.363 1217.2 292.992C1211.09 295.621 1205.48 299.618 1200.67 304.455C1190.85 314.236 1185.14 328.012 1184.84 342.209Z" fill="#60D09A"/>
<path d="M1196.36 342.209C1196.16 336.741 1197.07 331.167 1198.97 325.909C1200.87 320.756 1203.78 315.918 1207.58 311.922C1211.29 307.926 1215.8 304.666 1220.81 302.457C1225.72 300.249 1231.13 299.197 1236.54 299.092C1241.95 299.092 1247.25 300.249 1252.26 302.457C1257.17 304.666 1261.68 307.82 1265.49 311.922C1269.19 315.918 1272.1 320.756 1274.1 325.909C1276.01 331.062 1276.91 336.636 1276.71 342.209C1276.31 331.167 1271.8 320.545 1264.39 313.079C1256.97 305.507 1246.85 301.195 1236.64 301.195C1226.42 301.195 1216.2 305.507 1208.89 313.079C1201.27 320.545 1196.67 331.167 1196.36 342.209Z" fill="#60D09A"/>
<path d="M1207.88 342.209C1207.68 338.318 1208.28 334.322 1209.59 330.536C1210.89 326.855 1212.99 323.385 1215.7 320.44C1218.3 317.496 1221.61 315.182 1225.11 313.605C1228.62 312.027 1232.53 311.186 1236.33 311.186C1240.24 311.186 1244.05 312.027 1247.55 313.605C1251.06 315.182 1254.37 317.496 1256.97 320.44C1259.68 323.385 1261.68 326.75 1263.08 330.536C1264.38 334.322 1264.98 338.213 1264.78 342.209C1264.38 334.322 1261.08 326.961 1255.87 321.597C1250.66 316.339 1243.45 313.289 1236.23 313.289C1229.02 313.289 1221.91 316.339 1216.6 321.597C1211.59 326.855 1208.28 334.322 1207.88 342.209Z" fill="#60D09A"/>
<path d="M1219.41 342.209C1219 337.582 1220.61 332.639 1223.81 329.064C1225.42 327.276 1227.32 325.909 1229.52 324.857C1231.63 323.911 1234.03 323.385 1236.34 323.385C1238.64 323.385 1241.04 323.911 1243.15 324.857C1245.25 325.804 1247.25 327.276 1248.86 329.064C1252.06 332.639 1253.67 337.582 1253.27 342.209C1252.86 337.582 1250.86 333.27 1247.76 330.221C1244.65 327.171 1240.54 325.488 1236.34 325.488C1232.13 325.488 1228.02 327.171 1224.92 330.221C1221.81 333.27 1219.81 337.582 1219.41 342.209Z" fill="#60D09A"/>
<path d="M1438.99 0.00151062C1439.19 27.7651 1434.09 55.5286 1424.07 81.1889C1414.05 106.954 1399.12 130.511 1380.39 150.282C1361.76 170.053 1339.22 185.828 1314.77 196.555C1290.33 207.282 1263.78 212.75 1237.24 212.855C1210.69 212.855 1184.14 207.282 1159.7 196.555C1135.26 185.828 1112.72 170.053 1094.08 150.282C1075.45 130.511 1060.42 106.954 1050.41 81.1889C1040.39 55.4235 1035.38 27.6599 1035.48 0.00151062C1035.68 27.7651 1040.99 55.3183 1051.31 80.8734C1061.43 106.429 1076.45 129.67 1095.19 149.125C1113.82 168.581 1136.06 184.251 1160.4 194.767C1184.64 205.284 1210.99 210.752 1237.24 210.647C1263.48 210.647 1289.83 205.284 1314.07 194.767C1338.42 184.251 1360.66 168.581 1379.29 149.125C1397.92 129.67 1412.95 106.323 1423.17 80.8734C1433.48 55.3183 1438.79 27.7651 1438.99 0.00151062Z" fill="#FE9900"/>
<path d="M1427.47 0.000930786C1427.67 26.0818 1422.86 52.3731 1413.45 76.5611C1404.03 100.854 1389.91 123.044 1372.27 141.658C1354.64 160.272 1333.51 175.206 1310.37 185.302C1287.32 195.398 1262.28 200.551 1237.24 200.656C1212.19 200.656 1187.25 195.398 1164.11 185.302C1141.07 175.206 1119.83 160.378 1102.2 141.658C1084.57 123.044 1070.54 100.749 1061.02 76.5611C1051.61 52.268 1046.9 26.0818 1047 0.000930786C1047.2 26.0818 1052.21 52.1628 1061.93 76.1404C1071.54 100.223 1085.67 122.203 1103.3 140.501C1120.93 158.8 1141.87 173.523 1164.81 183.514C1187.65 193.505 1212.49 198.552 1237.24 198.552C1261.98 198.552 1286.72 193.505 1309.66 183.514C1332.6 173.628 1353.54 158.8 1371.17 140.501C1388.8 122.203 1402.93 100.118 1412.55 76.1404C1422.26 52.1628 1427.27 26.187 1427.47 0.000930786Z" fill="#FE9900"/>
<path d="M1415.85 0.00062561C1416.05 24.5041 1411.54 49.1127 1402.73 71.9335C1393.81 94.7543 1380.59 115.577 1364.06 133.14C1347.53 150.702 1327.59 164.689 1305.96 174.154C1284.22 183.619 1260.78 188.562 1237.23 188.562C1213.69 188.562 1190.25 183.619 1168.51 174.154C1146.77 164.689 1126.94 150.702 1110.41 133.14C1093.88 115.682 1080.66 94.7543 1071.74 71.9335C1062.93 49.1127 1058.42 24.5041 1058.62 0.00062561C1058.82 24.5041 1063.53 49.0075 1072.64 71.5128C1081.66 94.1233 1094.98 114.736 1111.51 131.983C1128.04 149.125 1147.78 163.006 1169.21 172.366C1190.75 181.726 1213.99 186.458 1237.23 186.458C1260.48 186.458 1283.72 181.726 1305.26 172.366C1326.79 163.112 1346.43 149.23 1362.96 131.983C1379.49 114.736 1392.81 94.1233 1401.83 71.5128C1410.94 49.0075 1415.75 24.5041 1415.85 0.00062561Z" fill="#FE9900"/>
<path d="M1404.33 0.00154114C1404.53 22.9275 1400.32 45.9586 1392.11 67.3071C1383.79 88.6556 1371.47 108.216 1355.94 124.517C1340.52 140.923 1321.88 153.963 1301.55 162.902C1281.21 171.841 1259.27 176.363 1237.23 176.363C1215.19 176.363 1193.26 171.736 1172.92 162.902C1152.58 154.068 1133.95 140.923 1118.52 124.517C1103.1 108.111 1090.67 88.5505 1082.36 67.3071C1074.04 45.9586 1069.94 22.9275 1070.14 0.00154114C1070.34 22.9275 1074.75 45.8535 1083.26 66.8865C1091.68 88.0247 1104.1 107.27 1119.62 123.36C1135.05 139.45 1153.48 152.386 1173.62 161.114C1193.76 169.843 1215.49 174.26 1237.23 174.26C1258.97 174.26 1280.71 169.843 1300.85 161.114C1320.98 152.386 1339.31 139.45 1354.84 123.36C1370.27 107.27 1382.69 87.9195 1391.21 66.8865C1399.72 45.8535 1404.23 22.9275 1404.33 0.00154114Z" fill="#FE9900"/>
<path d="M1392.81 9.15527e-05C1393.01 21.3486 1389.11 42.8023 1381.49 62.6785C1373.78 82.5546 1362.26 100.748 1347.83 115.997C1333.41 131.246 1316.08 143.445 1297.24 151.753C1278.31 160.061 1257.87 164.268 1237.34 164.373C1216.9 164.373 1196.36 160.061 1177.43 151.753C1158.5 143.445 1141.17 131.351 1126.84 115.997C1112.42 100.748 1100.9 82.5546 1093.18 62.6785C1085.47 42.8023 1081.66 21.3486 1081.86 9.15527e-05C1082.06 21.3486 1086.17 42.6971 1094.18 62.2578C1102 81.9237 1113.62 99.9069 1128.04 114.84C1142.47 129.774 1159.6 141.868 1178.33 149.965C1197.07 158.063 1217.3 162.27 1237.54 162.165C1257.77 162.165 1278.01 158.063 1296.74 149.965C1315.48 141.868 1332.61 129.774 1347.03 114.84C1361.46 99.9069 1372.98 81.9237 1380.89 62.2578C1388.51 42.6971 1392.61 21.3486 1392.81 9.15527e-05Z" fill="#FE9900"/>
<path d="M1381.29 0.00234985C1381.49 19.7734 1377.88 39.6496 1370.77 58.0534C1363.66 76.4573 1352.94 93.2837 1339.62 107.481C1326.29 121.678 1310.27 132.931 1292.73 140.608C1275.2 148.285 1256.27 152.176 1237.34 152.281C1218.4 152.281 1199.37 148.285 1181.94 140.608C1164.41 132.931 1148.38 121.678 1135.05 107.481C1121.73 93.3889 1111.11 76.4573 1103.9 58.0534C1096.79 39.6496 1093.28 19.7734 1093.38 0.00234985C1093.58 19.7734 1097.39 39.5444 1104.8 57.6328C1112.11 75.8263 1122.83 92.4424 1136.16 106.324C1149.48 120.101 1165.31 131.353 1182.64 138.82C1199.97 146.287 1218.7 150.178 1237.34 150.178C1256.07 150.178 1274.8 146.392 1292.03 138.82C1309.36 131.353 1325.19 120.206 1338.52 106.324C1351.84 92.4424 1362.56 75.8263 1369.87 57.6328C1377.18 39.5444 1381.09 19.7734 1381.29 0.00234985Z" fill="#FE9900"/>
<path d="M1369.77 0.000305176C1369.97 18.1939 1366.67 36.4926 1360.15 53.4241C1353.64 70.3557 1343.82 85.9201 1331.5 98.8554C1319.28 111.896 1304.46 122.307 1288.33 129.353C1272.2 136.399 1254.77 140.08 1237.34 140.08C1219.91 140.08 1202.37 136.399 1186.35 129.353C1170.22 122.307 1155.49 111.896 1143.17 98.8554C1130.95 85.8149 1121.13 70.3557 1114.52 53.4241C1108.01 36.4926 1104.7 18.1939 1104.9 0.000305176C1105.1 18.1939 1108.61 36.2823 1115.42 53.0035C1122.13 69.7247 1131.95 84.9736 1144.27 97.6986C1156.49 110.424 1171.12 120.625 1187.05 127.565C1202.98 134.506 1220.21 137.977 1237.34 137.977C1254.57 137.977 1271.8 134.506 1287.63 127.565C1303.55 120.73 1318.08 110.424 1330.4 97.6986C1342.62 84.9736 1352.54 69.7247 1359.25 53.0035C1365.96 36.2823 1369.47 18.1939 1369.77 0.000305176Z" fill="#FE9900"/>
<path d="M1358.15 0.000534058C1358.35 16.6166 1355.35 33.3379 1349.44 48.7971C1343.42 64.2564 1334.51 78.4536 1323.29 90.3373C1312.07 102.221 1298.65 111.686 1283.92 118.206C1269.19 124.621 1253.27 127.986 1237.34 127.986C1221.41 127.986 1205.48 124.621 1190.75 118.206C1176.03 111.791 1162.5 102.326 1151.38 90.3373C1140.16 78.4536 1131.25 64.2564 1125.24 48.7971C1119.33 33.3379 1116.32 16.6166 1116.52 0.000534058C1116.72 16.6166 1119.93 33.1275 1126.14 48.3764C1132.25 63.6253 1141.27 77.5071 1152.49 89.1805C1163.71 100.749 1176.93 110.108 1191.46 116.418C1205.98 122.728 1221.71 125.883 1237.34 125.883C1253.06 125.883 1268.69 122.728 1283.22 116.418C1297.74 110.108 1311.07 100.749 1322.19 89.1805C1333.41 77.6123 1342.32 63.6253 1348.53 48.3764C1354.74 33.1275 1357.95 16.6166 1358.15 0.000534058Z" fill="#FE9900"/>
<path d="M1346.63 0.000244141C1346.83 15.0388 1344.13 30.0775 1338.82 44.0644C1333.41 58.0513 1325.29 70.8815 1315.17 81.7135C1305.06 92.5455 1292.83 101.064 1279.51 106.953C1266.19 112.842 1251.76 115.787 1237.34 115.892C1222.91 115.892 1208.49 112.842 1195.16 106.953C1181.84 101.169 1169.62 92.5455 1159.5 81.7135C1149.38 70.9866 1141.27 58.0513 1135.86 44.0644C1130.45 30.0775 1127.74 14.9337 1128.04 0.000244141C1128.24 15.0388 1131.15 29.9723 1136.76 43.7489C1142.27 57.5255 1150.48 70.1453 1160.6 80.5566C1170.72 90.968 1182.74 99.4863 1195.86 105.165C1208.99 110.844 1223.21 113.789 1237.34 113.684C1251.56 113.684 1265.69 110.844 1278.81 105.165C1291.93 99.4863 1303.95 91.0731 1314.07 80.5566C1324.19 70.0401 1332.3 57.5255 1337.91 43.7489C1343.52 29.9723 1346.43 15.0388 1346.63 0.000244141Z" fill="#FE9900"/>
<path d="M1335.11 0.000656128C1335.31 13.4618 1332.91 26.9229 1328.1 39.4375C1323.29 51.9522 1316.08 63.4152 1306.96 73.0903C1297.94 82.7655 1286.92 90.4426 1275 95.7008C1263.08 100.959 1250.16 103.588 1237.24 103.693C1224.31 103.693 1211.39 100.959 1199.47 95.7008C1187.55 90.4426 1176.63 82.7655 1167.51 73.0903C1158.5 63.4152 1151.18 51.9522 1146.38 39.4375C1141.57 26.9229 1139.16 13.3566 1139.36 0.000656128C1139.66 26.9229 1150.38 53.3193 1168.51 72.0387C1177.53 81.3984 1188.25 88.9703 1200.07 94.0182C1211.79 99.0661 1224.51 101.695 1237.14 101.695C1249.76 101.695 1262.48 99.1713 1274.2 94.0182C1285.92 88.9703 1296.64 81.3984 1305.76 72.0387C1324.09 53.3193 1334.81 26.9229 1335.11 0.000656128Z" fill="#FE9900"/>
<path d="M1323.59 0.0018692C1323.79 11.8855 1321.69 23.7692 1317.48 34.8115C1313.27 45.8538 1306.86 56.0548 1298.85 64.5732C1290.83 73.0916 1281.22 79.9273 1270.7 84.5546C1260.18 89.1818 1248.76 91.6006 1237.34 91.6006C1225.92 91.6006 1214.5 89.1818 1203.98 84.5546C1193.46 79.9273 1183.74 73.1967 1175.83 64.5732C1167.81 56.0548 1161.5 45.8538 1157.2 34.8115C1152.99 23.7692 1150.88 11.7803 1151.08 0.0018692C1151.39 23.7692 1160.9 47.0106 1176.93 63.4164C1184.94 71.6193 1194.36 78.2446 1204.68 82.7667C1215 87.2888 1226.22 89.4973 1237.34 89.4973C1248.46 89.4973 1259.68 87.2888 1270 82.7667C1280.31 78.3498 1289.73 71.6193 1297.74 63.4164C1313.77 47.0106 1323.19 23.7692 1323.59 0.0018692Z" fill="#FE9900"/>
<path d="M1311.97 0.000831604C1312.17 10.307 1310.37 20.6132 1306.76 30.1832C1303.05 39.7532 1297.54 48.5871 1290.63 55.9486C1283.72 63.4153 1275.3 69.1994 1266.19 73.3008C1257.07 77.2971 1247.15 79.4004 1237.24 79.4004C1227.32 79.4004 1217.4 77.2971 1208.29 73.3008C1199.17 69.3046 1190.75 63.4153 1183.84 55.9486C1176.93 48.5871 1171.42 39.7532 1167.71 30.1832C1164.11 20.6132 1162.3 10.2018 1162.5 0.000831604C1162.8 20.508 1171.02 40.6997 1184.94 54.897C1191.86 61.943 1200.07 67.7271 1208.99 71.6182C1217.9 75.5093 1227.52 77.4023 1237.24 77.4023C1246.85 77.4023 1256.57 75.5093 1265.49 71.6182C1274.4 67.8322 1282.62 62.0482 1289.53 54.897C1303.45 40.6997 1311.67 20.508 1311.97 0.000831604Z" fill="#FE9900"/>
<path d="M1300.45 0.00202942C1300.65 8.73072 1299.15 17.4594 1296.14 25.5571C1293.04 33.6548 1288.43 41.1215 1282.52 47.4314C1276.71 53.7413 1269.59 58.6841 1261.88 62.1545C1254.17 65.5198 1245.75 67.3076 1237.34 67.3076C1228.92 67.3076 1220.61 65.5198 1212.79 62.1545C1205.08 58.7893 1197.97 53.7413 1192.16 47.4314C1186.35 41.1215 1181.64 33.6548 1178.53 25.5571C1175.53 17.4594 1173.93 8.62556 1174.23 0.00202942C1174.53 17.3543 1181.54 34.2858 1193.26 46.2746C1199.07 52.269 1205.98 57.1066 1213.5 60.3668C1221.01 63.6269 1229.12 65.3095 1237.34 65.2043C1245.45 65.2043 1253.57 63.6269 1261.18 60.3668C1268.69 57.1066 1275.61 52.269 1281.42 46.2746C1293.14 34.2858 1300.15 17.3543 1300.45 0.00202942Z" fill="#FE9900"/>
<path d="M1288.93 0.00125504C1289.13 7.04731 1287.93 14.1986 1285.42 20.9291C1282.92 27.5545 1279.11 33.7592 1274.3 38.9123C1264.78 49.3236 1251.06 55.2129 1237.24 55.2129C1223.51 55.2129 1209.79 49.2185 1200.17 38.9123C1195.36 33.7592 1191.56 27.6597 1189.05 20.9291C1186.55 14.3037 1185.34 7.15248 1185.54 0.00125504C1185.95 14.1985 1191.66 27.9752 1201.17 37.7555C1205.98 42.5931 1211.59 46.5894 1217.7 49.2185C1223.81 51.8476 1230.42 53.2148 1237.14 53.2148C1243.75 53.2148 1250.36 51.8476 1256.57 49.2185C1262.68 46.5894 1268.29 42.5931 1273.1 37.7555C1282.82 27.9752 1288.53 14.1985 1288.93 0.00125504Z" fill="#FE9900"/>
<path d="M1277.41 0.000511169C1277.61 5.46909 1276.71 11.0428 1274.8 16.3011C1272.9 21.4542 1269.99 26.2918 1266.19 30.2881C1262.48 34.2843 1257.97 37.5444 1252.96 39.7529C1248.06 41.9614 1242.65 43.013 1237.24 43.1182C1231.83 43.1182 1226.52 41.9614 1221.51 39.7529C1216.6 37.5444 1212.09 34.3895 1208.29 30.2881C1204.58 26.2918 1201.67 21.4542 1199.67 16.3011C1197.77 11.148 1196.87 5.57426 1197.07 0.000511169C1197.47 11.0428 1201.97 21.6645 1209.39 29.1312C1216.8 36.7031 1226.92 41.0149 1237.14 41.0149C1247.35 41.0149 1257.57 36.7031 1264.89 29.1312C1272.5 21.6645 1277.01 11.0428 1277.41 0.000511169Z" fill="#FE9900"/>
<path d="M1265.79 0.00123215C1265.99 3.89234 1265.39 7.88861 1264.08 11.6746C1262.78 15.3553 1260.68 18.8258 1257.97 21.7704C1255.37 24.715 1252.06 27.0286 1248.56 28.6061C1245.05 30.1836 1241.14 31.0249 1237.34 31.0249C1233.43 31.0249 1229.62 30.1836 1226.12 28.6061C1222.61 27.0286 1219.3 24.715 1216.7 21.7704C1213.99 18.8258 1211.99 15.4605 1210.59 11.6746C1209.29 7.88861 1208.69 3.9975 1208.89 0.00123215C1209.29 7.88861 1212.59 15.2502 1217.8 20.6136C1223.01 25.8718 1230.22 28.9216 1237.44 28.9216C1244.65 28.9216 1251.76 25.8718 1257.07 20.6136C1262.18 15.2502 1265.49 7.88861 1265.79 0.00123215Z" fill="#FE9900"/>
<path d="M1254.27 0.00111008C1254.67 4.62837 1253.07 9.57113 1249.86 13.1467C1248.26 14.9346 1246.35 16.3017 1244.15 17.3533C1242.05 18.2998 1239.64 18.8257 1237.34 18.8257C1235.03 18.8257 1232.63 18.2998 1230.53 17.3533C1228.42 16.4069 1226.42 14.9346 1224.82 13.1467C1221.61 9.57113 1220.01 4.62837 1220.41 0.00111008C1220.81 4.62837 1222.81 8.94017 1225.92 11.99C1229.02 15.0397 1233.13 16.7224 1237.34 16.7224C1241.55 16.7224 1245.65 15.0397 1248.76 11.99C1251.86 8.94017 1253.87 4.62837 1254.27 0.00111008Z" fill="#FE9900"/>
</g>
</svg>
