<svg width="98" height="57" viewBox="0 0 98 57" fill="none" xmlns="http://www.w3.org/2000/svg">
<path fill-rule="evenodd" clip-rule="evenodd" d="M25.1669 21.0438L44.2331 2.01855V21.0438H75.5015L96.0929 11.1507L91.1357 25.9903L96.0929 39.6885L77.0268 30.9369C71.5612 42.352 53.5373 62.2905 25.1669 50.7231L33.9374 37.786H8.77006C6.48212 34.7419 3.05022 28.6539 1.90625 21.0438H25.1669Z" fill="#C5C5C5"/>
<path d="M19.0645 25.6104H22.8777V29.4154H19.0645V25.6104Z" fill="black"/>
<path d="M35.8438 25.6104H39.657V33.2204H35.8438V25.6104Z" fill="black"/>
<path d="M41.9434 25.6104H45.7566V33.2204H41.9434V25.6104Z" fill="black"/>
<path fill-rule="evenodd" clip-rule="evenodd" d="M44.9631 0.261087C45.6755 0.555565 46.1401 1.24929 46.1401 2.01879V19.1415H75.0668L95.2659 9.43672C95.956 9.10515 96.7782 9.21785 97.3532 9.72293C97.9282 10.2281 98.1441 11.0275 97.9023 11.7525L93.1541 25.9656L97.8863 39.0426C98.1479 39.7638 97.9488 40.5709 97.3829 41.0897C96.8171 41.6085 95.9949 41.7376 95.2964 41.4171L77.892 33.4282C74.7522 39.1942 68.9413 46.3775 60.6303 51.1018C51.406 56.3452 39.1945 58.4978 24.4461 52.4846C23.9144 52.2678 23.509 51.8233 23.3425 51.2748C23.176 50.7263 23.2663 50.1321 23.5881 49.6573L30.3461 39.6887H26.6926L24.1804 44.3891C23.8404 45.0252 23.1694 45.4149 22.4473 45.3956C21.725 45.3764 21.0758 44.9516 20.7703 44.2983L18.6146 39.6887H8.77043C8.17031 39.6887 7.60519 39.4068 7.24514 38.9277C4.81178 35.6902 1.22176 29.3134 0.0211071 21.3263C-0.0612273 20.7785 0.0997152 20.2222 0.461908 19.8025C0.824103 19.3828 1.35159 19.1415 1.90662 19.1415H24.3776L42.8852 0.673506C43.4305 0.129385 44.2506 -0.0333869 44.9631 0.261087ZM25.5534 35.8837C25.5518 35.8837 25.5502 35.8837 25.5486 35.8837H19.8288C19.8272 35.8837 19.8257 35.8837 19.8241 35.8837H9.74692C7.86754 33.174 5.41759 28.5882 4.19344 22.9465H25.1673H44.2334H75.5019C75.7883 22.9465 76.0708 22.8822 76.3294 22.7582L92.8589 14.8163L89.3271 25.3889C89.1921 25.7948 89.1975 26.2344 89.3431 26.6367L92.7537 36.0616L77.8242 29.2087C76.8769 28.7741 75.7561 29.1787 75.3068 30.117C72.7079 35.545 67.0779 43.0576 58.7428 47.7955C50.9457 52.2277 40.7001 54.2867 28.0927 49.8037L35.5169 38.8522C35.9122 38.2691 35.9526 37.516 35.6218 36.8942C35.291 36.2724 34.6432 35.8837 33.9377 35.8837H25.5534ZM42.3268 6.61189V19.1415H29.7703L42.3268 6.61189Z" fill="black"/>
<path fill-rule="evenodd" clip-rule="evenodd" d="M42.042 35.3832C42.7397 34.5962 43.9446 34.5226 44.7333 35.2188L54.6477 43.9704C55.2412 44.4943 55.4481 45.3299 55.1674 46.0694C54.8867 46.8088 54.1768 47.2979 53.3844 47.2979H42.7074C41.6544 47.2979 40.8008 46.4461 40.8008 45.3954C40.8008 44.3446 41.6544 43.4928 42.7074 43.4928H48.3515L42.2068 38.0687C41.4181 37.3726 41.3443 36.1702 42.042 35.3832Z" fill="black"/>
</svg>
