<svg width="99" height="54" viewBox="0 0 99 54" fill="none" xmlns="http://www.w3.org/2000/svg">
<path fill-rule="evenodd" clip-rule="evenodd" d="M90.9273 32.3242C90.9273 24.2555 87.7209 16.5174 82.0126 10.812C76.3051 5.10662 68.5635 1.90137 60.4914 1.90137C52.4193 1.90137 44.6778 5.10662 38.97 10.812C33.2622 16.5174 30.0555 24.2555 30.0555 32.3242H30.1316L27.7728 34.289V4.94366C22.9349 4.84694 14.017 4.89781 8.83716 4.92736C7.22801 4.93654 5.97963 4.94366 5.32638 4.94366C2.28279 4.94365 1.90234 7.09861 1.90234 7.98593V24.3382H14.4571V41.8313C14.4571 46.0905 18.5152 47.4088 20.5443 47.5356H27.7728V36.2221L27.7842 36.2702V47.5356C27.6573 49.6905 28.5451 54.0005 33.1105 54.0005H50.9915C54.0351 54.0005 56.6983 52.099 53.2742 48.6765L51.8552 47.5356H70.0026C69.8758 49.6905 70.7635 54.0005 75.3289 54.0005H93.21C96.2536 54.0005 98.9167 52.099 95.4927 48.6765L88.6666 43.1883C90.5811 39.7639 91.1517 35.174 90.9273 32.7045L90.3186 32.3242H90.9273Z" fill="#60D09A"/>
<path d="M16.3594 9.50684H20.1639V13.3097H16.3594V9.50684Z" fill="black"/>
<path fill-rule="evenodd" clip-rule="evenodd" d="M68.0991 32.7042C68.0991 31.654 68.9508 30.8027 70.0013 30.8027H77.9907C78.4245 30.8027 78.8452 30.9508 79.1831 31.2226L96.6837 45.2931C96.737 45.336 96.7879 45.3818 96.8366 45.4302C97.8189 46.4125 98.5342 47.4475 98.8393 48.539C99.165 49.7042 98.9923 50.8489 98.3455 51.7939C97.7436 52.6728 96.848 53.2131 95.9936 53.5306C95.1223 53.854 94.1552 54.0001 93.2087 54.0001H75.3276C72.3059 54.0001 70.3427 52.5068 69.2569 50.624C68.2589 48.8936 68.0307 46.9137 68.0991 45.5818V32.7042ZM71.9036 34.6056V45.6339C71.9036 45.6711 71.9025 45.7083 71.9003 45.7455C71.8518 46.5685 72.0124 47.7875 72.5529 48.7247C73.0206 49.5357 73.784 50.1973 75.3276 50.1973H93.2087C93.7839 50.1973 94.2914 50.1058 94.6688 49.9657C95.015 49.837 95.1551 49.706 95.1946 49.6601C95.1931 49.6411 95.1885 49.609 95.1748 49.562C95.1132 49.3416 94.8903 48.8792 94.2153 48.1888L77.3204 34.6056H71.9036ZM95.1954 49.6819C95.1954 49.6818 95.1954 49.6811 95.1954 49.6797V49.6819Z" fill="black"/>
<path fill-rule="evenodd" clip-rule="evenodd" d="M25.8804 32.7042C25.8804 31.654 26.732 30.8027 27.7826 30.8027H35.772C36.2056 30.8027 36.6263 30.9508 36.9643 31.2226L54.4649 45.2931C54.5182 45.336 54.5693 45.3818 54.6177 45.4302C55.6004 46.4125 56.3156 47.4475 56.6206 48.539C56.9462 49.7042 56.7734 50.8489 56.1265 51.7939C55.525 52.6728 54.6296 53.2131 53.7744 53.5306C52.9035 53.854 51.9366 54.0001 50.9899 54.0001H33.1089C30.0871 54.0001 28.1239 52.5068 27.0381 50.624C26.0401 48.8936 25.8119 46.9137 25.8804 45.5818V32.7042ZM29.6848 34.6056V45.6339C29.6848 45.6711 29.6837 45.7083 29.6815 45.7455C29.6331 46.5685 29.7936 47.7875 30.3342 48.7247C30.8018 49.5357 31.5652 50.1973 33.1089 50.1973H50.9899C51.565 50.1973 52.0723 50.1058 52.4498 49.9657C52.7964 49.837 52.9363 49.706 52.9759 49.6601C52.9743 49.6411 52.9695 49.609 52.9563 49.562C52.8948 49.3416 52.6718 48.8792 51.9963 48.1888L35.1019 34.6056H29.6848ZM52.9764 49.6819C52.9764 49.6818 52.9765 49.6811 52.9766 49.6797L52.9764 49.6819Z" fill="black"/>
<path fill-rule="evenodd" clip-rule="evenodd" d="M42.4346 16.1487C43.1775 16.8913 43.1775 18.0952 42.4346 18.8378C41.5403 19.7316 40.6712 21.2218 39.973 22.7845C39.2779 24.3402 38.8656 25.7076 38.7761 26.1996C38.5882 27.2329 37.5979 27.9182 36.5643 27.7303C35.5307 27.5424 34.845 26.5526 35.033 25.5194C35.1971 24.6171 35.7359 22.9421 36.4992 21.2337C37.2594 19.5324 38.356 17.5366 39.7444 16.1487C40.4872 15.4062 41.6917 15.4062 42.4346 16.1487Z" fill="black"/>
<path fill-rule="evenodd" clip-rule="evenodd" d="M78.1683 16.1487C77.4257 16.8913 77.4257 18.0952 78.1683 18.8378C79.0631 19.7316 79.9321 21.2218 80.6298 22.7845C81.3253 24.3402 81.7377 25.7076 81.8267 26.1996C82.0146 27.2329 83.0053 27.9182 84.0386 27.7303C85.0727 27.5424 85.7582 26.5526 85.5703 25.5194C85.406 24.6171 84.8672 22.9421 84.1041 21.2337C83.3439 19.5324 82.2467 17.5366 80.8588 16.1487C80.1154 15.4062 78.9117 15.4062 78.1683 16.1487Z" fill="black"/>
<path fill-rule="evenodd" clip-rule="evenodd" d="M50.3973 9.79664C50.8671 10.7359 50.4862 11.878 49.5465 12.3477C48.6003 12.8206 47.452 13.8187 46.9974 14.2732C46.2545 15.0158 45.05 15.0158 44.3071 14.2732C43.5643 13.5307 43.5643 12.3267 44.3071 11.5841C44.8671 11.0245 46.3565 9.69024 47.8452 8.94625C48.7848 8.47667 49.9274 8.85733 50.3973 9.79664Z" fill="black"/>
<path fill-rule="evenodd" clip-rule="evenodd" d="M70.2051 9.79664C69.7353 10.7359 70.1162 11.878 71.0559 12.3477C72.0021 12.8206 73.1504 13.8187 73.605 14.2732C74.3479 15.0158 75.5524 15.0158 76.2954 14.2732C77.038 13.5307 77.038 12.3267 76.2954 11.5841C75.7354 11.0245 74.2459 9.69024 72.7572 8.94625C71.8176 8.47667 70.675 8.85733 70.2051 9.79664Z" fill="black"/>
<path fill-rule="evenodd" clip-rule="evenodd" d="M52.8809 47.9151C52.8809 46.865 53.6413 46.0137 54.5793 46.0137H70.2049C71.1428 46.0137 71.9033 46.865 71.9033 47.9151C71.9033 48.9652 71.1428 49.8165 70.2049 49.8165H54.5793C53.6413 49.8165 52.8809 48.9652 52.8809 47.9151Z" fill="black"/>
<path fill-rule="evenodd" clip-rule="evenodd" d="M37.6248 9.46758C43.6894 3.40558 51.9147 0 60.4913 0C69.0679 0 77.2934 3.40558 83.3578 9.46758C89.4221 15.5296 92.8294 23.7513 92.8294 32.3243C92.8294 32.7502 92.6864 33.1613 92.4269 33.4937C92.3622 34.6311 92.1576 35.7941 91.8905 36.8664C91.4545 38.6114 90.8161 40.2542 90.199 41.308C89.7493 42.0757 88.5646 42.4214 87.5526 42.0802C86.5414 41.739 86.0856 40.8401 86.5353 40.0724C86.9873 39.301 87.5511 37.9017 87.9506 36.3002C88.1233 35.6096 88.2587 34.9071 88.3424 34.2257H30.0554C29.9267 34.2257 29.7992 34.2126 29.675 34.1873V47.5357C29.675 48.5858 28.8233 49.4371 27.7727 49.4371H20.5442C20.5047 49.4371 20.4651 49.4359 20.4256 49.4334C19.1515 49.3538 17.2735 48.9155 15.6567 47.7964C13.9593 46.6214 12.5548 44.6802 12.5548 41.8314V26.2397H1.90224C0.851664 26.2397 0 25.3884 0 24.3383V7.98599C0 7.33418 0.129513 6.11341 0.937745 5.00929C1.82614 3.79567 3.29662 3.04228 5.32628 3.04229C5.96402 3.04229 7.19369 3.03527 8.78433 3.02619H8.7844H8.78478C13.9564 2.99666 22.9435 2.94536 27.8108 3.04267C28.8463 3.06337 29.675 3.90841 29.675 4.94372V22.5248C31.2284 17.6444 33.9346 13.1561 37.6248 9.46758ZM60.4913 3.80285C52.9237 3.80285 45.6661 6.80778 40.315 12.1566C35.414 17.0554 32.48 23.5529 32.0211 30.4228H88.9618C88.5022 23.5529 85.5689 17.0554 80.668 12.1566C75.3165 6.80778 68.0589 3.80285 60.4913 3.80285ZM8.88918 6.82865C7.262 6.83792 5.9951 6.84514 5.32628 6.84514C4.79011 6.84514 4.47878 6.93953 4.31048 7.01789C4.1505 7.09238 4.06507 7.17707 4.00809 7.25493C3.8652 7.45009 3.80448 7.75052 3.80448 7.98599V22.4368H14.457C15.5076 22.4368 16.3593 23.2881 16.3593 24.3383V41.8314C16.3593 43.2418 16.9839 44.0894 17.8227 44.67C18.7207 45.2916 19.8534 45.5773 20.6092 45.6342H25.8705V6.81652C20.8828 6.76027 13.4627 6.80258 8.88918 6.82865Z" fill="black"/>
</svg>
