<svg width="98" height="65" viewBox="0 0 98 65" fill="none" xmlns="http://www.w3.org/2000/svg">
<path d="M1.90039 56.6754H8.7376V62.7614C25.1976 63.015 59.4089 63.37 64.5748 62.7614C69.7407 62.1528 72.5516 56.6754 73.3112 54.0128L82.8074 28.1473V20.9201V17.8771L96.1019 1.90137H82.0477L77.8694 5.32474L73.3112 1.90137H60.7764L73.3112 17.8771V20.9201H1.90039V56.6754Z" fill="#60AED0"/>
<path fill-rule="evenodd" clip-rule="evenodd" d="M59.067 1.0705C59.3849 0.415664 60.0481 0 60.7752 0H73.3101C73.721 0 74.1209 0.13347 74.4496 0.380375L77.8173 2.90965L80.8439 0.429905C81.1835 0.151892 81.6082 0 82.0465 0H96.1008C96.8377 0 97.5085 0.426895 97.8207 1.09518C98.1329 1.76347 98.0319 2.55251 97.5601 3.11943L84.7054 18.5662V28.1478C84.7054 28.3717 84.6659 28.5939 84.5884 28.8041L75.1159 54.6064C74.6657 56.1469 73.6709 58.3827 72.068 60.3575C70.435 62.3693 68.0331 64.2694 64.7955 64.6508C62.0651 64.9724 52.0587 65.0312 40.8829 64.9871C29.6173 64.9427 16.9419 64.7905 8.70719 64.6636C7.66983 64.6476 6.83721 63.8009 6.83721 62.7619V58.5778H1.89922C0.850313 58.5778 0 57.7263 0 56.6759V20.9206C0 19.8703 0.850313 19.0188 1.89922 19.0188H71.4109V18.5355L59.2818 3.07689C58.8326 2.50439 58.7492 1.72533 59.067 1.0705ZM64.6828 3.80375L74.8035 16.7026C75.0664 17.0377 75.2093 17.4515 75.2093 17.8776V20.9206C75.2093 21.971 74.359 22.8225 73.3101 22.8225H3.79845V54.774H8.73643C9.78534 54.774 10.6357 55.6255 10.6357 56.6759V60.8883C18.8318 61.0086 30.4722 61.1423 40.8978 61.1834C52.234 61.2281 61.9162 61.16 64.3517 60.8731C66.2801 60.6459 67.8666 59.5029 69.1204 57.9582C70.3797 56.4069 71.1643 54.6112 71.4839 53.4908C71.4968 53.4457 71.5114 53.401 71.5275 53.357L80.907 27.8092V17.8776C80.907 17.4328 81.0627 17.0019 81.3468 16.6601L92.0456 3.80375H82.7242L79.0708 6.79722C78.3947 7.35139 77.4276 7.37183 76.7287 6.84676L72.677 3.80375H64.6828Z" fill="#323232"/>
<path fill-rule="evenodd" clip-rule="evenodd" d="M0.380859 56.6753C0.380859 55.6249 1.23117 54.7734 2.28008 54.7734H16.7142C17.7631 54.7734 18.6134 55.6249 18.6134 56.6753C18.6134 57.7257 17.7631 58.5772 16.7142 58.5772H2.28008C1.23117 58.5772 0.380859 57.7257 0.380859 56.6753Z" fill="#323232"/>
<path fill-rule="evenodd" clip-rule="evenodd" d="M23.1814 45.6315C23.8186 44.7971 25.0105 44.6379 25.8438 45.276L38.7585 55.1657C39.4053 55.661 39.6649 56.5141 39.4038 57.2864C39.1427 58.0586 38.4191 58.5784 37.6048 58.5784H23.1707C22.1218 58.5784 21.2715 57.7269 21.2715 56.6765C21.2715 55.6261 22.1218 54.7746 23.1707 54.7746H31.9947L23.5364 48.2975C22.7032 47.6595 22.5443 46.4659 23.1814 45.6315Z" fill="#323232"/>
<path fill-rule="evenodd" clip-rule="evenodd" d="M6.45703 27.7681C6.45703 26.7177 7.30735 25.8662 8.35626 25.8662H14.4338C15.4827 25.8662 16.333 26.7177 16.333 27.7681C16.333 28.8185 15.4827 29.67 14.4338 29.67H10.2555V33.0933C10.2555 34.1437 9.40516 34.9952 8.35626 34.9952C7.30735 34.9952 6.45703 34.1437 6.45703 33.0933V27.7681Z" fill="#323232"/>
<path fill-rule="evenodd" clip-rule="evenodd" d="M19.752 27.7681C19.752 26.7177 20.6023 25.8662 21.6512 25.8662H24.6899C25.7388 25.8662 26.5892 26.7177 26.5892 27.7681C26.5892 28.8185 25.7388 29.67 24.6899 29.67H21.6512C20.6023 29.67 19.752 28.8185 19.752 27.7681Z" fill="#323232"/>
<path fill-rule="evenodd" clip-rule="evenodd" d="M70.5961 43.4979C71.5699 43.888 72.0436 44.9948 71.6541 45.9701C71.367 46.6887 71.0397 47.5532 70.6905 48.4755C70.4227 49.1827 70.142 49.9239 69.8568 50.6593C69.5376 51.4826 69.2185 52.2822 68.9269 52.956C68.6533 53.588 68.3485 54.2421 68.0523 54.6869C67.5233 55.4815 66.7414 56.3728 65.9124 57.0829C65.4953 57.4401 65.024 57.7881 64.5267 58.056C64.0572 58.3089 63.407 58.5769 62.6736 58.5769H52.7977C51.7488 58.5769 50.8984 57.7253 50.8984 56.675C50.8984 55.6246 51.7488 54.7731 52.7977 54.7731H62.5863C62.6134 54.7625 62.6599 54.7424 62.7273 54.7061C62.9148 54.6051 63.1607 54.4344 63.4433 54.1923C64.0139 53.7036 64.5613 53.0735 64.8918 52.577C64.9755 52.4513 65.1613 52.0911 65.4417 51.4433C65.704 50.8373 66.0022 50.0915 66.316 49.2824C66.5737 48.6181 66.8469 47.8969 67.1147 47.1901C67.4801 46.2258 67.8355 45.288 68.1273 44.5574C68.5169 43.5822 69.6221 43.1078 70.5961 43.4979Z" fill="#323232"/>
<path d="M16.334 41.4609H20.1324V45.2647H16.334V41.4609Z" fill="#323232"/>
</svg>
