<svg width="50" height="30" viewBox="0 0 50 30" fill="none" xmlns="http://www.w3.org/2000/svg">
<path d="M48.9998 15.7143H39.7199L35.9479 7.6314C35.8079 7.33425 35.3939 7.16572 34.9699 7.14284C34.5279 7.15282 34.1479 7.36857 34.0338 7.67283L27.1398 26.1414L19.9799 0.574267C19.8919 0.259953 19.5219 0.027112 19.0759 0.00144233C18.6139 -0.0185772 18.2119 0.171434 18.0599 0.469984L10.3 15.7143H0.999996C0.448045 15.7143 0 16.0343 0 16.4286C0 16.8228 0.448045 17.1428 0.999996 17.1428H11C11.42 17.1428 11.7959 16.9543 11.94 16.6728L18.7199 3.35566L26.0199 29.4257C26.11 29.7514 26.5039 29.9886 26.968 30H27C27.4519 30 27.85 29.7843 27.966 29.47L35.106 10.3443L38.052 16.6543C38.188 16.9457 38.57 17.1428 39 17.1428H49C49.552 17.1428 50 16.8228 50 16.4286C50 16.0343 49.5518 15.7143 48.9998 15.7143Z" fill="url(#paint0_linear_583_17923)"/>
<defs>
<linearGradient id="paint0_linear_583_17923" x1="22.5" y1="23" x2="44.7315" y2="-5.99755" gradientUnits="userSpaceOnUse">
<stop stop-color="#60D09A"/>
<stop offset="1" stop-color="#6DFFCB"/>
</linearGradient>
</defs>
</svg>
