<svg width="17" height="12" viewBox="0 0 17 12" fill="none" xmlns="http://www.w3.org/2000/svg">
<mask id="mask0_366_18206" style="mask-type:alpha" maskUnits="userSpaceOnUse" x="0" y="0" width="17" height="12">
<path d="M7.69944 0.896773L7.69962 0.896553C7.89005 0.66111 8.1742 0.5 8.50003 0.5C8.82509 0.5 9.10974 0.660224 9.30059 0.896779L7.69944 0.896773ZM7.69944 0.896773L0.780687 9.46103L0.780597 9.46114C0.405896 9.92523 0.406386 10.6418 0.782563 11.1053L0.782663 11.1055C0.982445 11.3515 1.26958 11.5003 1.58306 11.4997C1.89648 11.4992 2.18298 11.3494 2.382 11.103L2.38201 11.103L8.50002 3.52998L14.618 11.1033L14.6181 11.1034C14.817 11.3496 15.1035 11.4994 15.4169 11.5C15.7304 11.5006 16.0174 11.3517 16.2171 11.1058L16.2173 11.1056C16.4134 10.864 16.5 10.5642 16.5 10.2822C16.5 10.0009 16.414 9.70235 16.2193 9.46117L16.2192 9.46107L9.30094 0.897216L7.69944 0.896773Z" fill="#6046FF" stroke="#6046FF"/>
</mask>
<g mask="url(#mask0_366_18206)">
<path d="M7.69944 0.896773L7.69962 0.896553C7.89005 0.66111 8.1742 0.5 8.50003 0.5C8.82509 0.5 9.10974 0.660224 9.30059 0.896779L7.69944 0.896773ZM7.69944 0.896773L0.780687 9.46103L0.780597 9.46114C0.405896 9.92523 0.406386 10.6418 0.782563 11.1053L0.782663 11.1055C0.982445 11.3515 1.26958 11.5003 1.58306 11.4997C1.89648 11.4992 2.18298 11.3494 2.382 11.103L2.38201 11.103L8.50002 3.52998L14.618 11.1033L14.6181 11.1034C14.817 11.3496 15.1035 11.4994 15.4169 11.5C15.7304 11.5006 16.0174 11.3517 16.2171 11.1058L16.2173 11.1056C16.4134 10.864 16.5 10.5642 16.5 10.2822C16.5 10.0009 16.414 9.70235 16.2193 9.46117L16.2192 9.46107L9.30094 0.897216L7.69944 0.896773Z" fill="#FE9900" stroke="#FE9900"/>
</g>
</svg>
