<svg width="30" height="30" viewBox="0 0 30 30" fill="none" xmlns="http://www.w3.org/2000/svg">
<path d="M26.0607 16.5829C26.0607 16.1306 26.2115 15.6784 26.2115 15.0753C26.2115 14.4723 26.2115 14.0201 26.0607 13.5678L29.2265 11.005C29.5281 10.7035 29.5281 10.402 29.3773 10.1005L26.3622 4.82411C26.2115 4.67336 25.91 4.5226 25.4577 4.67336L21.6889 6.18089C20.9351 5.57788 20.0306 5.12562 19.1261 4.67336L18.523 0.753767C18.6738 0.301507 18.2215 0 17.92 0H11.8899C11.5883 0 11.1361 0.301507 11.1361 0.603014L10.5331 4.67336C9.62858 4.97486 8.87481 5.57788 7.97029 6.18089L4.3522 4.67336C3.89994 4.5226 3.59844 4.67336 3.29687 4.97486L0.281798 10.2512C0.131044 10.402 0.281798 10.8542 0.583305 11.1558L3.74913 13.5678C3.74913 14.0201 3.59838 14.4723 3.59838 15.0753C3.59838 15.6784 3.59838 16.1306 3.74913 16.5829L0.583305 19.1457C0.281798 19.4473 0.281798 19.7487 0.432551 20.0503L3.44762 25.3266C3.59838 25.4774 3.89983 25.6281 4.35215 25.4774L8.12098 23.9699C8.87475 24.5729 9.77927 25.0251 10.6838 25.4774L11.2868 29.397C11.2868 29.6985 11.5883 30 12.0406 30H18.0707C18.3723 30 18.8245 29.6984 18.8245 29.397L19.4275 25.4774C20.332 25.0251 21.2365 24.5729 21.9903 23.9699L25.7592 25.4774C26.0607 25.6281 26.5129 25.4774 26.6637 25.1758L29.6788 19.8995C29.8296 19.598 29.8296 19.1457 29.528 18.9949L26.0607 16.5829ZM14.905 20.3517C12.0406 20.3517 9.62858 17.9397 9.62858 15.0753C9.62858 12.211 12.0406 9.79898 14.905 9.79898C17.7693 9.79898 20.1813 12.211 20.1813 15.0753C20.1813 17.9397 17.7693 20.3517 14.905 20.3517Z" fill="#60D09A"/>
</svg>
