<svg width="47" height="32" viewBox="0 0 47 32" fill="none" xmlns="http://www.w3.org/2000/svg">
<mask id="mask0_371_60263" style="mask-type:alpha" maskUnits="userSpaceOnUse" x="0" y="20" width="17" height="12">
<path d="M9.30056 31.1032L9.30038 31.1034C9.10995 31.3389 8.8258 31.5 8.49997 31.5C8.17491 31.5 7.89026 31.3398 7.69941 31.1032L9.30056 31.1032ZM9.30056 31.1032L16.2193 22.539L16.2194 22.5389C16.5941 22.0748 16.5936 21.3582 16.2174 20.8947L16.2173 20.8945C16.0176 20.6485 15.7304 20.4997 15.4169 20.5003C15.1035 20.5008 14.817 20.6506 14.618 20.897L14.618 20.897L8.49998 28.47L2.38199 20.8967L2.38193 20.8966C2.18296 20.6504 1.89654 20.5006 1.58313 20.5C1.26963 20.4994 0.982595 20.6483 0.782852 20.8942L0.782712 20.8944C0.586597 21.136 0.5 21.4358 0.5 21.7178C0.5 21.9991 0.586023 22.2976 0.780746 22.5388L0.780832 22.5389L7.69906 31.1028L9.30056 31.1032Z" fill="#6046FF" stroke="#6046FF"/>
</mask>
<g mask="url(#mask0_371_60263)">
<path d="M9.30056 31.1032L9.30038 31.1034C9.10995 31.3389 8.8258 31.5 8.49997 31.5C8.17491 31.5 7.89026 31.3398 7.69941 31.1032L9.30056 31.1032ZM9.30056 31.1032L16.2193 22.539L16.2194 22.5389C16.5941 22.0748 16.5936 21.3582 16.2174 20.8947L16.2173 20.8945C16.0176 20.6485 15.7304 20.4997 15.4169 20.5003C15.1035 20.5008 14.817 20.6506 14.618 20.897L14.618 20.897L8.49998 28.47L2.38199 20.8967L2.38193 20.8966C2.18296 20.6504 1.89654 20.5006 1.58313 20.5C1.26963 20.4994 0.982595 20.6483 0.782852 20.8942L0.782712 20.8944C0.586597 21.136 0.5 21.4358 0.5 21.7178C0.5 21.9991 0.586023 22.2976 0.780746 22.5388L0.780832 22.5389L7.69906 31.1028L9.30056 31.1032Z" fill="#60D09A" stroke="#60D09A"/>
</g>
<mask id="mask1_371_60263" style="mask-type:alpha" maskUnits="userSpaceOnUse" x="30" y="0" width="17" height="12">
<path d="M37.6994 0.896773L37.6996 0.896552C37.89 0.661111 38.1742 0.5 38.5 0.5C38.8251 0.5 39.1097 0.660224 39.3006 0.896779L37.6994 0.896773ZM37.6994 0.896773L30.7807 9.46103L30.7806 9.46114C30.4059 9.92523 30.4064 10.6418 30.7826 11.1053L30.7827 11.1055C30.9824 11.3515 31.2696 11.5003 31.5831 11.4997C31.8965 11.4992 32.183 11.3494 32.382 11.103L32.382 11.103L38.5 3.52998L44.618 11.1033L44.6181 11.1034C44.817 11.3496 45.1035 11.4994 45.4169 11.5C45.7304 11.5006 46.0174 11.3517 46.2171 11.1058L46.2173 11.1056C46.4134 10.864 46.5 10.5642 46.5 10.2822C46.5 10.0009 46.414 9.70235 46.2193 9.46118L46.2192 9.46107L39.3009 0.897216L37.6994 0.896773Z" fill="#6046FF" stroke="#6046FF"/>
</mask>
<g mask="url(#mask1_371_60263)">
<path d="M37.6994 0.896773L37.6996 0.896552C37.89 0.661111 38.1742 0.5 38.5 0.5C38.8251 0.5 39.1097 0.660224 39.3006 0.896779L37.6994 0.896773ZM37.6994 0.896773L30.7807 9.46103L30.7806 9.46114C30.4059 9.92523 30.4064 10.6418 30.7826 11.1053L30.7827 11.1055C30.9824 11.3515 31.2696 11.5003 31.5831 11.4997C31.8965 11.4992 32.183 11.3494 32.382 11.103L32.382 11.103L38.5 3.52998L44.618 11.1033L44.6181 11.1034C44.817 11.3496 45.1035 11.4994 45.4169 11.5C45.7304 11.5006 46.0174 11.3517 46.2171 11.1058L46.2173 11.1056C46.4134 10.864 46.5 10.5642 46.5 10.2822C46.5 10.0009 46.414 9.70235 46.2193 9.46118L46.2192 9.46107L39.3009 0.897216L37.6994 0.896773Z" fill="#60D09A" stroke="#60D09A"/>
</g>
</svg>
